Garima.ufo
<glyph name="zero" format="2">
  <advance width="747"/>
  <unicode hex="0030"/>
  <image fileName="A_000000000000001.png" xScale="2.835084645830554" yScale="2.8350846458305563" xOffset="1745.0" yOffset="-1"/>
  <outline>
    <contour>
      <point x="710" y="503"/>
      <point x="540" y="565"/>
      <point x="463" y="565" type="curve" smooth="yes"/>
      <point x="323" y="565"/>
      <point x="128" y="480"/>
      <point x="91" y="437" type="curve" smooth="yes"/>
      <point x="60" y="401"/>
      <point x="42" y="344"/>
      <point x="42" y="311" type="curve" smooth="yes"/>
      <point x="42" y="278"/>
      <point x="52" y="255"/>
      <point x="103" y="223" type="curve" smooth="yes"/>
      <point x="146" y="196"/>
      <point x="226" y="155"/>
      <point x="260" y="155" type="curve" smooth="yes"/>
      <point x="282" y="155"/>
      <point x="298" y="177"/>
      <point x="299" y="206" type="curve"/>
      <point x="276" y="212" type="line"/>
      <point x="421" y="502"/>
      <point x="436" y="518"/>
      <point x="481" y="518" type="curve" smooth="yes"/>
      <point x="493" y="518"/>
      <point x="520" y="515"/>
      <point x="541" y="508" type="curve"/>
      <point x="505" y="539"/>
      <point x="411" y="539"/>
      <point x="382" y="523" type="curve"/>
      <point x="342" y="431"/>
      <point x="277" y="311"/>
      <point x="217" y="228" type="curve"/>
      <point x="115" y="267"/>
      <point x="97" y="297"/>
      <point x="97" y="334" type="curve" smooth="yes"/>
      <point x="97" y="429"/>
      <point x="295" y="525"/>
      <point x="438" y="525" type="curve" smooth="yes"/>
      <point x="533" y="525"/>
      <point x="647" y="472"/>
      <point x="647" y="419" type="curve" smooth="yes"/>
      <point x="647" y="379"/>
      <point x="589" y="328"/>
      <point x="467" y="290" type="curve"/>
      <point x="493" y="285" type="line"/>
      <point x="472" y="388"/>
      <point x="449" y="468"/>
      <point x="437" y="480" type="curve" smooth="yes"/>
      <point x="426" y="491"/>
      <point x="401" y="478"/>
      <point x="367" y="462" type="curve"/>
      <point x="360" y="443" type="line"/>
      <point x="380" y="448"/>
      <point x="394" y="446"/>
      <point x="400" y="437" type="curve" smooth="yes"/>
      <point x="430" y="392"/>
      <point x="435" y="303"/>
      <point x="441" y="202" type="curve"/>
      <point x="458" y="194"/>
      <point x="487" y="195"/>
      <point x="502" y="208" type="curve" smooth="yes"/>
      <point x="508" y="216"/>
      <point x="503" y="231"/>
      <point x="494" y="268" type="curve"/>
      <point x="489" y="236" type="line"/>
      <point x="630" y="299"/>
      <point x="710" y="383"/>
      <point x="710" y="453" type="curve" smooth="yes"/>
    </contour>
  </outline>
</glyph>
<glyph name="one" format="2">
  <advance width="972"/>
  <unicode hex="0031"/>
  <outline>
    <contour>
      <point x="671" y="411" type="curve"/>
      <point x="665" y="363" type="line"/>
      <point x="726" y="378"/>
      <point x="806" y="399"/>
      <point x="880" y="405" type="curve"/>
      <point x="819" y="425" type="line"/>
      <point x="818" y="355"/>
      <point x="842" y="328"/>
      <point x="941" y="345" type="curve"/>
      <point x="936" y="370"/>
      <point x="933" y="395"/>
      <point x="930" y="413" type="curve" smooth="yes"/>
      <point x="928" y="427"/>
      <point x="923" y="431"/>
      <point x="911" y="434" type="curve" smooth="yes"/>
      <point x="891" y="439"/>
      <point x="871" y="443"/>
      <point x="854" y="446" type="curve" smooth="yes"/>
      <point x="835" y="450"/>
      <point x="826" y="450"/>
      <point x="805" y="444" type="curve" smooth="yes"/>
      <point x="767" y="433"/>
      <point x="732" y="424"/>
    </contour>
    <contour>
      <point x="710" y="503"/>
      <point x="540" y="565"/>
      <point x="463" y="565" type="curve" smooth="yes"/>
      <point x="323" y="565"/>
      <point x="128" y="480"/>
      <point x="91" y="437" type="curve" smooth="yes"/>
      <point x="60" y="401"/>
      <point x="42" y="344"/>
      <point x="42" y="311" type="curve" smooth="yes"/>
      <point x="42" y="278"/>
      <point x="52" y="255"/>
      <point x="103" y="223" type="curve" smooth="yes"/>
      <point x="146" y="196"/>
      <point x="226" y="155"/>
      <point x="260" y="155" type="curve" smooth="yes"/>
      <point x="282" y="155"/>
      <point x="298" y="177"/>
      <point x="299" y="206" type="curve"/>
      <point x="276" y="212" type="line"/>
      <point x="313" y="301"/>
      <point x="402" y="483"/>
      <point x="463" y="528" type="curve"/>
      <point x="378" y="522" type="line"/>
      <point x="338" y="428"/>
      <point x="271" y="303"/>
      <point x="217" y="228" type="curve"/>
      <point x="115" y="267"/>
      <point x="97" y="297"/>
      <point x="97" y="334" type="curve" smooth="yes"/>
      <point x="97" y="429"/>
      <point x="287" y="523"/>
      <point x="430" y="523" type="curve" smooth="yes"/>
      <point x="525" y="523"/>
      <point x="647" y="472"/>
      <point x="647" y="419" type="curve" smooth="yes"/>
      <point x="647" y="379"/>
      <point x="589" y="328"/>
      <point x="467" y="290" type="curve"/>
      <point x="493" y="285" type="line"/>
      <point x="472" y="388"/>
      <point x="449" y="468"/>
      <point x="437" y="480" type="curve" smooth="yes"/>
      <point x="426" y="491"/>
      <point x="401" y="478"/>
      <point x="367" y="462" type="curve"/>
      <point x="360" y="443" type="line"/>
      <point x="380" y="448"/>
      <point x="394" y="446"/>
      <point x="400" y="437" type="curve" smooth="yes"/>
      <point x="430" y="392"/>
      <point x="435" y="303"/>
      <point x="441" y="202" type="curve"/>
      <point x="458" y="194"/>
      <point x="487" y="195"/>
      <point x="502" y="208" type="curve" smooth="yes"/>
      <point x="508" y="216"/>
      <point x="503" y="231"/>
      <point x="494" y="268" type="curve"/>
      <point x="489" y="236" type="line"/>
      <point x="630" y="299"/>
      <point x="710" y="383"/>
      <point x="710" y="453" type="curve" smooth="yes"/>
    </contour>
  </outline>
</glyph>
<glyph name="two" format="2">
  <advance width="762"/>
  <unicode hex="0032"/>
  <outline>
    <contour>
      <point x="710" y="509" type="curve" smooth="yes"/>
      <point x="710" y="575"/>
      <point x="540" y="637"/>
      <point x="463" y="637" type="curve" smooth="yes"/>
      <point x="323" y="637"/>
      <point x="128" y="552"/>
      <point x="91" y="509" type="curve" smooth="yes"/>
      <point x="60" y="473"/>
      <point x="42" y="416"/>
      <point x="42" y="383" type="curve" smooth="yes"/>
      <point x="42" y="350"/>
      <point x="52" y="327"/>
      <point x="103" y="295" type="curve" smooth="yes"/>
      <point x="146" y="268"/>
      <point x="226" y="227"/>
      <point x="260" y="227" type="curve" smooth="yes"/>
      <point x="282" y="227"/>
      <point x="298" y="249"/>
      <point x="299" y="278" type="curve"/>
      <point x="276" y="284" type="line"/>
      <point x="397.0" y="554"/>
      <point x="443.0" y="590.0"/>
      <point x="475" y="590.0" type="curve" smooth="yes"/>
      <point x="492" y="590"/>
      <point x="506" y="587"/>
      <point x="521" y="583" type="curve"/>
      <point x="507" y="594"/>
      <point x="406" y="611"/>
      <point x="378" y="594" type="curve"/>
      <point x="338" y="500"/>
      <point x="271" y="375"/>
      <point x="217" y="300" type="curve"/>
      <point x="115" y="339"/>
      <point x="97" y="369"/>
      <point x="97" y="406" type="curve" smooth="yes"/>
      <point x="97" y="501"/>
      <point x="287" y="595"/>
      <point x="430" y="595" type="curve" smooth="yes"/>
      <point x="525" y="595"/>
      <point x="648" y="547"/>
      <point x="648" y="494" type="curve" smooth="yes"/>
      <point x="648" y="432"/>
      <point x="360" y="191"/>
      <point x="360" y="48" type="curve" smooth="yes"/>
      <point x="360" y="14"/>
      <point x="384" y="-8"/>
      <point x="424" y="-8" type="curve" smooth="yes"/>
      <point x="470" y="-8"/>
      <point x="596" y="26"/>
      <point x="661" y="31" type="curve"/>
      <point x="605" y="35" type="line"/>
      <point x="604" y="-35"/>
      <point x="628" y="-62"/>
      <point x="727" y="-45" type="curve"/>
      <point x="722" y="-20"/>
      <point x="719" y="14"/>
      <point x="716" y="32" type="curve" smooth="yes"/>
      <point x="714" y="46"/>
      <point x="709" y="50"/>
      <point x="697" y="53" type="curve" smooth="yes"/>
      <point x="677" y="58"/>
      <point x="657" y="62"/>
      <point x="640" y="65" type="curve" smooth="yes"/>
      <point x="621" y="69"/>
      <point x="612" y="67"/>
      <point x="591" y="63" type="curve" smooth="yes"/>
      <point x="561" y="57"/>
      <point x="488" y="43"/>
      <point x="467" y="43" type="curve" smooth="yes"/>
      <point x="445" y="43"/>
      <point x="436" y="51"/>
      <point x="436" y="77" type="curve" smooth="yes"/>
      <point x="436" y="199"/>
      <point x="710" y="432"/>
    </contour>
    <contour>
      <point x="518" y="303"/>
      <point x="453" y="536"/>
      <point x="437" y="552" type="curve" smooth="yes"/>
      <point x="426" y="563"/>
      <point x="401" y="550"/>
      <point x="367" y="534" type="curve"/>
      <point x="360" y="515" type="line"/>
      <point x="380" y="520"/>
      <point x="394" y="518"/>
      <point x="400" y="509" type="curve" smooth="yes"/>
      <point x="430" y="464"/>
      <point x="435" y="375"/>
      <point x="441" y="274" type="curve"/>
      <point x="458" y="266"/>
      <point x="490" y="264"/>
      <point x="502" y="280" type="curve" smooth="yes"/>
    </contour>
  </outline>
</glyph>
<glyph name="three" format="2">
  <advance width="747"/>
  <unicode hex="0033"/>
  <outline>
    <contour>
      <point x="710" y="517" type="curve" smooth="yes"/>
      <point x="710" y="583"/>
      <point x="540" y="645"/>
      <point x="463" y="645" type="curve" smooth="yes"/>
      <point x="323" y="645"/>
      <point x="128" y="560"/>
      <point x="91" y="517" type="curve" smooth="yes"/>
      <point x="60" y="481"/>
      <point x="42" y="424"/>
      <point x="42" y="391" type="curve" smooth="yes"/>
      <point x="42" y="358"/>
      <point x="52" y="335"/>
      <point x="103" y="303" type="curve" smooth="yes"/>
      <point x="146" y="276"/>
      <point x="226" y="235"/>
      <point x="260" y="235" type="curve" smooth="yes"/>
      <point x="282" y="235"/>
      <point x="298" y="257"/>
      <point x="299" y="286" type="curve"/>
      <point x="276" y="292" type="line"/>
      <point x="313" y="381"/>
      <point x="402" y="563"/>
      <point x="463" y="608" type="curve"/>
      <point x="378" y="602" type="line"/>
      <point x="338" y="508"/>
      <point x="271" y="383"/>
      <point x="217" y="308" type="curve"/>
      <point x="115" y="347"/>
      <point x="97" y="377"/>
      <point x="97" y="414" type="curve" smooth="yes"/>
      <point x="97" y="509"/>
      <point x="287" y="603"/>
      <point x="430" y="603" type="curve" smooth="yes"/>
      <point x="525" y="603"/>
      <point x="648" y="555"/>
      <point x="648" y="502" type="curve" smooth="yes"/>
      <point x="648" y="440"/>
      <point x="360" y="191"/>
      <point x="360" y="48" type="curve" smooth="yes"/>
      <point x="360" y="11"/>
      <point x="377" y="-8"/>
      <point x="414" y="-8" type="curve" smooth="yes"/>
      <point x="432" y="-8"/>
      <point x="448" y="2"/>
      <point x="457" y="16" type="curve"/>
      <point x="446" y="27"/>
      <point x="442" y="48"/>
      <point x="442" y="61" type="curve" smooth="yes"/>
      <point x="442" y="211"/>
      <point x="710" y="447"/>
    </contour>
    <contour>
      <point x="518" y="311"/>
      <point x="453" y="544"/>
      <point x="437" y="560" type="curve" smooth="yes"/>
      <point x="426" y="571"/>
      <point x="401" y="558"/>
      <point x="367" y="542" type="curve"/>
      <point x="360" y="523" type="line"/>
      <point x="380" y="528"/>
      <point x="394" y="526"/>
      <point x="400" y="517" type="curve" smooth="yes"/>
      <point x="430" y="472"/>
      <point x="435" y="383"/>
      <point x="441" y="282" type="curve"/>
      <point x="458" y="274"/>
      <point x="490" y="272"/>
      <point x="502" y="288" type="curve" smooth="yes"/>
    </contour>
  </outline>
</glyph>
<glyph name="four" format="2">
  <advance width="763"/>
  <unicode hex="0034"/>
  <outline>
    <contour>
      <point x="518" y="303"/>
      <point x="453" y="536"/>
      <point x="437" y="552" type="curve" smooth="yes"/>
      <point x="426" y="563"/>
      <point x="401" y="550"/>
      <point x="367" y="534" type="curve"/>
      <point x="360" y="515" type="line"/>
      <point x="380" y="520"/>
      <point x="394" y="518"/>
      <point x="400" y="509" type="curve" smooth="yes"/>
      <point x="430" y="464"/>
      <point x="435" y="375"/>
      <point x="441" y="274" type="curve"/>
      <point x="458" y="266"/>
      <point x="490" y="264"/>
      <point x="502" y="280" type="curve" smooth="yes"/>
    </contour>
    <contour>
      <point x="648" y="494" type="curve" smooth="yes"/>
      <point x="648.0" y="432.0"/>
      <point x="363" y="191"/>
      <point x="363" y="83" type="curve" smooth="yes"/>
      <point x="363" y="14"/>
      <point x="444" y="-11"/>
      <point x="512" y="-11" type="curve" smooth="yes"/>
      <point x="626" y="-11"/>
      <point x="699" y="47"/>
      <point x="699" y="113" type="curve" smooth="yes"/>
      <point x="699" y="173"/>
      <point x="660" y="213"/>
      <point x="518" y="277" type="curve"/>
      <point x="493" y="238" type="line"/>
      <point x="592" y="192"/>
      <point x="631" y="152"/>
      <point x="631" y="118" type="curve" smooth="yes"/>
      <point x="631" y="73"/>
      <point x="592" y="36"/>
      <point x="514" y="36" type="curve" smooth="yes"/>
      <point x="461" y="36"/>
      <point x="432" y="58"/>
      <point x="432" y="89" type="curve" smooth="yes"/>
      <point x="432" y="211"/>
      <point x="710" y="432"/>
      <point x="710" y="509" type="curve" smooth="yes"/>
      <point x="710.0" y="575.0"/>
      <point x="540" y="637"/>
      <point x="463" y="637" type="curve" smooth="yes"/>
      <point x="323" y="637"/>
      <point x="128" y="552"/>
      <point x="91" y="509" type="curve" smooth="yes"/>
      <point x="60" y="473"/>
      <point x="42" y="416"/>
      <point x="42" y="383" type="curve" smooth="yes"/>
      <point x="42" y="350"/>
      <point x="52" y="327"/>
      <point x="103" y="295" type="curve" smooth="yes"/>
      <point x="146" y="268"/>
      <point x="226" y="227"/>
      <point x="260" y="227" type="curve" smooth="yes"/>
      <point x="282" y="227"/>
      <point x="298" y="249"/>
      <point x="299" y="278" type="curve"/>
      <point x="276" y="284" type="line"/>
      <point x="397.0" y="554"/>
      <point x="443.0" y="590.0"/>
      <point x="475" y="590.0" type="curve" smooth="yes"/>
      <point x="492" y="590"/>
      <point x="506" y="587"/>
      <point x="521" y="583" type="curve"/>
      <point x="507" y="594"/>
      <point x="406" y="611"/>
      <point x="378" y="594" type="curve"/>
      <point x="338" y="500"/>
      <point x="271" y="375"/>
      <point x="217" y="300" type="curve"/>
      <point x="115" y="339"/>
      <point x="97" y="369"/>
      <point x="97" y="406" type="curve" smooth="yes"/>
      <point x="97" y="501"/>
      <point x="287" y="595"/>
      <point x="430" y="595" type="curve" smooth="yes"/>
      <point x="525" y="595"/>
      <point x="648" y="547"/>
    </contour>
  </outline>
</glyph>
<glyph name="five" format="2">
  <advance width="823"/>
  <unicode hex="0035"/>
  <outline>
    <contour>
      <point x="776" y="523"/>
      <point x="606" y="585"/>
      <point x="529" y="585" type="curve" smooth="yes"/>
      <point x="389" y="585"/>
      <point x="194" y="500"/>
      <point x="157" y="457" type="curve" smooth="yes"/>
      <point x="126" y="421"/>
      <point x="108" y="364"/>
      <point x="108" y="331" type="curve" smooth="yes"/>
      <point x="108" y="298"/>
      <point x="118" y="275"/>
      <point x="169" y="243" type="curve" smooth="yes"/>
      <point x="212" y="216"/>
      <point x="292" y="175"/>
      <point x="326" y="175" type="curve" smooth="yes"/>
      <point x="348" y="175"/>
      <point x="364" y="197"/>
      <point x="365" y="226" type="curve"/>
      <point x="342" y="232" type="line"/>
      <point x="379" y="321"/>
      <point x="468" y="503"/>
      <point x="529" y="548" type="curve"/>
      <point x="444" y="542" type="line"/>
      <point x="404" y="448"/>
      <point x="337" y="323"/>
      <point x="283" y="248" type="curve"/>
      <point x="181" y="287"/>
      <point x="163" y="317"/>
      <point x="163" y="354" type="curve" smooth="yes"/>
      <point x="163" y="449"/>
      <point x="353" y="543"/>
      <point x="496" y="543" type="curve" smooth="yes"/>
      <point x="591" y="543"/>
      <point x="713" y="492"/>
      <point x="713" y="439" type="curve" smooth="yes"/>
      <point x="713" y="399"/>
      <point x="655" y="348"/>
      <point x="533" y="310" type="curve"/>
      <point x="559" y="305" type="line"/>
      <point x="538" y="408"/>
      <point x="515" y="488"/>
      <point x="503" y="500" type="curve" smooth="yes"/>
      <point x="492" y="511"/>
      <point x="467" y="498"/>
      <point x="433" y="482" type="curve"/>
      <point x="426" y="463" type="line"/>
      <point x="446" y="468"/>
      <point x="460" y="466"/>
      <point x="466" y="457" type="curve" smooth="yes"/>
      <point x="496" y="412"/>
      <point x="501" y="323"/>
      <point x="507" y="222" type="curve"/>
      <point x="524" y="214"/>
      <point x="553" y="215"/>
      <point x="568" y="228" type="curve" smooth="yes"/>
      <point x="574" y="236"/>
      <point x="569" y="251"/>
      <point x="560" y="288" type="curve"/>
      <point x="555" y="256" type="line"/>
      <point x="696" y="319"/>
      <point x="776" y="403"/>
      <point x="776" y="473" type="curve" smooth="yes"/>
    </contour>
    <contour>
      <point x="171" y="278" type="line"/>
      <point x="86" y="197"/>
      <point x="41" y="102"/>
      <point x="41" y="48" type="curve" smooth="yes"/>
      <point x="41" y="1"/>
      <point x="79" y="-10"/>
      <point x="129" y="19" type="curve"/>
      <point x="126" y="29"/>
      <point x="124" y="40"/>
      <point x="124" y="63" type="curve" smooth="yes"/>
      <point x="124" y="114"/>
      <point x="148" y="188"/>
      <point x="210" y="255" type="curve"/>
    </contour>
  </outline>
</glyph>
<glyph name="six" format="2">
  <advance width="752"/>
  <unicode hex="0036"/>
  <outline>
    <contour>
      <point x="219" y="291" type="line"/>
      <point x="148" y="176"/>
      <point x="102" y="94"/>
      <point x="102" y="40" type="curve" smooth="yes"/>
      <point x="102" y="-7"/>
      <point x="143" y="-19"/>
      <point x="195" y="11" type="curve"/>
      <point x="192" y="21"/>
      <point x="190" y="32"/>
      <point x="190" y="55" type="curve" smooth="yes"/>
      <point x="190" y="103"/>
      <point x="215" y="169"/>
      <point x="274" y="274" type="curve"/>
    </contour>
    <contour>
      <point x="716" y="575"/>
      <point x="546" y="637"/>
      <point x="469" y="637" type="curve" smooth="yes"/>
      <point x="329" y="637"/>
      <point x="134" y="552"/>
      <point x="97" y="509" type="curve" smooth="yes"/>
      <point x="66" y="473"/>
      <point x="48" y="416"/>
      <point x="48" y="383" type="curve" smooth="yes"/>
      <point x="48" y="350"/>
      <point x="58" y="327"/>
      <point x="109" y="295" type="curve" smooth="yes"/>
      <point x="152" y="268"/>
      <point x="232" y="227"/>
      <point x="266" y="227" type="curve" smooth="yes"/>
      <point x="288" y="227"/>
      <point x="304" y="249"/>
      <point x="305" y="278" type="curve"/>
      <point x="282" y="284" type="line"/>
      <point x="427" y="574"/>
      <point x="442" y="590"/>
      <point x="487" y="590" type="curve" smooth="yes"/>
      <point x="499" y="590"/>
      <point x="526" y="587"/>
      <point x="547" y="580" type="curve"/>
      <point x="511" y="611"/>
      <point x="417" y="611"/>
      <point x="388" y="595" type="curve"/>
      <point x="348" y="503"/>
      <point x="283" y="383"/>
      <point x="223" y="300" type="curve"/>
      <point x="121" y="339"/>
      <point x="103" y="369"/>
      <point x="103" y="406" type="curve" smooth="yes"/>
      <point x="103" y="501"/>
      <point x="301" y="597"/>
      <point x="444" y="597" type="curve" smooth="yes"/>
      <point x="539" y="597"/>
      <point x="653" y="544"/>
      <point x="653" y="491" type="curve" smooth="yes"/>
      <point x="653" y="451"/>
      <point x="595" y="400"/>
      <point x="473" y="362" type="curve"/>
      <point x="499" y="357" type="line"/>
      <point x="478" y="460"/>
      <point x="455" y="540"/>
      <point x="443" y="552" type="curve" smooth="yes"/>
      <point x="432" y="563"/>
      <point x="407" y="550"/>
      <point x="373" y="534" type="curve"/>
      <point x="366" y="515" type="line"/>
      <point x="386" y="520"/>
      <point x="400" y="518"/>
      <point x="406" y="509" type="curve" smooth="yes"/>
      <point x="436" y="464"/>
      <point x="441" y="375"/>
      <point x="447" y="274" type="curve"/>
      <point x="464" y="266"/>
      <point x="493" y="267"/>
      <point x="508" y="280" type="curve" smooth="yes"/>
      <point x="514" y="288"/>
      <point x="509" y="303"/>
      <point x="500" y="340" type="curve"/>
      <point x="495" y="308" type="line"/>
      <point x="636" y="371"/>
      <point x="716" y="455"/>
      <point x="716" y="525" type="curve" smooth="yes"/>
    </contour>
  </outline>
</glyph>
<glyph name="A" format="2">
  <advance width="500"/>
  <unicode hex="0041"/>
  <image fileName="A_000000000000001.png" xScale="2.835084645830554" yScale="2.8350846458305563" xOffset="738.0" yOffset="-1"/>
  <outline>
    <contour>
      <point x="354" y="441" type="line"/>
      <point x="308" y="375"/>
      <point x="248" y="260"/>
      <point x="213" y="183" type="curve"/>
      <point x="125" y="216"/>
      <point x="97.0" y="245"/>
      <point x="97" y="271" type="curve" smooth="yes"/>
      <point x="97" y="292"/>
      <point x="129" y="366"/>
      <point x="159" y="378" type="curve" smooth="yes"/>
      <point x="238" y="411"/>
      <point x="371" y="432"/>
      <point x="452" y="432" type="curve" smooth="yes"/>
      <point x="520" y="432"/>
      <point x="573" y="402"/>
      <point x="608" y="371" type="curve"/>
      <point x="662" y="413" type="line"/>
      <point x="621" y="446"/>
      <point x="553" y="480"/>
      <point x="498" y="480.0" type="curve" smooth="yes"/>
      <point x="363" y="480.0"/>
      <point x="229" y="446"/>
      <point x="147" y="417" type="curve" smooth="yes"/>
      <point x="124" y="409"/>
      <point x="97" y="394"/>
      <point x="87" y="380" type="curve" smooth="yes"/>
      <point x="69" y="355"/>
      <point x="35" y="284"/>
      <point x="35" y="257" type="curve" smooth="yes"/>
      <point x="35" y="229"/>
      <point x="52" y="203"/>
      <point x="91" y="176" type="curve" smooth="yes"/>
      <point x="142" y="140"/>
      <point x="219" y="109"/>
      <point x="252" y="109" type="curve" smooth="yes"/>
      <point x="263" y="109"/>
      <point x="280" y="142"/>
      <point x="283" y="161" type="curve"/>
      <point x="263" y="168" type="line"/>
      <point x="301" y="252"/>
      <point x="350" y="346"/>
      <point x="429" y="446" type="curve"/>
    </contour>
    <contour>
      <point x="630" y="427" type="curve"/>
      <point x="607" y="383" type="line"/>
      <point x="597" y="339"/>
      <point x="573" y="280"/>
      <point x="560" y="270" type="curve" smooth="yes"/>
      <point x="541" y="255"/>
      <point x="487" y="229"/>
      <point x="461" y="219" type="curve"/>
      <point x="439" y="279"/>
      <point x="404" y="344"/>
      <point x="384" y="358" type="curve" smooth="yes"/>
      <point x="370" y="368"/>
      <point x="350" y="368"/>
      <point x="335" y="367" type="curve"/>
      <point x="317" y="322" type="line"/>
      <point x="343" y="322.0"/>
      <point x="352" y="321"/>
      <point x="363" y="304" type="curve" smooth="yes"/>
      <point x="390" y="262"/>
      <point x="401" y="202"/>
      <point x="415" y="141" type="curve"/>
      <point x="428" y="137"/>
      <point x="461" y="139"/>
      <point x="472" y="150" type="curve" smooth="yes"/>
      <point x="478" y="156"/>
      <point x="478" y="162"/>
      <point x="476" y="173" type="curve"/>
      <point x="498" y="181"/>
      <point x="590" y="220"/>
      <point x="611" y="239" type="curve" smooth="yes"/>
      <point x="633.143222443036" y="259.13020222094184"/>
      <point x="680" y="368"/>
      <point x="680" y="401" type="curve" smooth="yes"/>
      <point x="680" y="410"/>
      <point x="655" y="418"/>
    </contour>
  </outline>
</glyph>
<glyph name="B" format="2">
  <advance width="992"/>
  <unicode hex="0042"/>
  <outline>
    <contour>
      <point x="428" y="570" type="line"/>
      <point x="406" y="521"/>
      <point x="302" y="249"/>
      <point x="302" y="165" type="curve" smooth="yes"/>
      <point x="302" y="125"/>
      <point x="309" y="99"/>
      <point x="319" y="80" type="curve"/>
      <point x="411" y="126" type="line"/>
      <point x="391" y="142"/>
      <point x="370" y="148"/>
      <point x="370" y="188" type="curve" smooth="yes"/>
      <point x="370" y="265"/>
      <point x="455" y="503"/>
      <point x="498" y="571" type="curve"/>
    </contour>
    <contour>
      <point x="45" y="218" type="curve" smooth="yes"/>
      <point x="45" y="134"/>
      <point x="158" y="71"/>
      <point x="272" y="71" type="curve" smooth="yes"/>
      <point x="321" y="71"/>
      <point x="364" y="81"/>
      <point x="404" y="106" type="curve"/>
      <point x="373" y="151" type="line"/>
      <point x="353" y="138"/>
      <point x="317" y="122"/>
      <point x="270" y="122" type="curve" smooth="yes"/>
      <point x="186" y="122"/>
      <point x="114" y="149"/>
      <point x="114" y="225" type="curve" smooth="yes"/>
      <point x="114" y="321"/>
      <point x="242" y="561"/>
      <point x="528" y="561" type="curve" smooth="yes"/>
      <point x="628" y="561"/>
      <point x="666" y="517"/>
      <point x="666" y="448" type="curve" smooth="yes"/>
      <point x="666" y="324"/>
      <point x="576" y="195"/>
      <point x="367" y="145" type="curve"/>
      <point x="377" y="95" type="line"/>
      <point x="507" y="146"/>
      <point x="617" y="206"/>
      <point x="650" y="239" type="curve" smooth="yes"/>
      <point x="719" y="308"/>
      <point x="736" y="409"/>
      <point x="736" y="471" type="curve" smooth="yes"/>
      <point x="736" y="556"/>
      <point x="695" y="604"/>
      <point x="578" y="604" type="curve" smooth="yes"/>
      <point x="439" y="604"/>
      <point x="291" y="547"/>
      <point x="201" y="488" type="curve" smooth="yes"/>
      <point x="127" y="440"/>
      <point x="45" y="302"/>
    </contour>
    <contour>
      <point x="701" y="471" type="curve"/>
      <point x="695" y="423" type="line"/>
      <point x="756" y="438"/>
      <point x="836" y="459"/>
      <point x="910" y="465" type="curve"/>
      <point x="849" y="485" type="line"/>
      <point x="848" y="415"/>
      <point x="872" y="388"/>
      <point x="971" y="405" type="curve"/>
      <point x="966" y="430"/>
      <point x="963" y="455"/>
      <point x="960" y="473" type="curve" smooth="yes"/>
      <point x="958" y="487"/>
      <point x="953" y="491"/>
      <point x="941" y="494" type="curve" smooth="yes"/>
      <point x="921" y="499"/>
      <point x="901" y="503"/>
      <point x="884" y="506" type="curve" smooth="yes"/>
      <point x="865" y="510"/>
      <point x="856" y="510"/>
      <point x="835" y="504" type="curve" smooth="yes"/>
      <point x="797" y="493"/>
      <point x="762" y="484"/>
    </contour>
  </outline>
</glyph>
<glyph name="C" format="2">
  <advance width="781"/>
  <unicode hex="0043"/>
  <outline>
    <contour>
      <point x="335" y="55" type="curve" smooth="yes"/>
      <point x="335" y="235"/>
      <point x="449" y="585"/>
      <point x="491" y="651" type="curve"/>
      <point x="421" y="650" type="line"/>
      <point x="400" y="602"/>
      <point x="247" y="121"/>
      <point x="247" y="40" type="curve" smooth="yes"/>
      <point x="247" y="-7"/>
      <point x="288" y="-19"/>
      <point x="340" y="11" type="curve"/>
      <point x="337" y="21"/>
      <point x="335" y="32"/>
    </contour>
    <contour>
      <point x="729" y="551" type="curve" smooth="yes"/>
      <point x="729" y="636"/>
      <point x="688" y="684"/>
      <point x="571" y="684" type="curve" smooth="yes"/>
      <point x="432" y="684"/>
      <point x="284" y="627"/>
      <point x="194" y="568" type="curve" smooth="yes"/>
      <point x="120" y="520"/>
      <point x="48" y="402"/>
      <point x="48" y="318" type="curve" smooth="yes"/>
      <point x="48" y="223"/>
      <point x="127" y="151"/>
      <point x="236" y="151" type="curve" smooth="yes"/>
      <point x="264" y="151"/>
      <point x="282" y="153"/>
      <point x="300" y="161" type="curve"/>
      <point x="299" y="207" type="line"/>
      <point x="279" y="202"/>
      <point x="260" y="202"/>
      <point x="234" y="202" type="curve" smooth="yes"/>
      <point x="158" y="202"/>
      <point x="117" y="234"/>
      <point x="117" y="325" type="curve" smooth="yes"/>
      <point x="117" y="421"/>
      <point x="235" y="641"/>
      <point x="521" y="641" type="curve" smooth="yes"/>
      <point x="621" y="641"/>
      <point x="659" y="597"/>
      <point x="659" y="528" type="curve" smooth="yes"/>
      <point x="659" y="398"/>
      <point x="557" y="266"/>
      <point x="323" y="210" type="curve"/>
      <point x="333" y="160" type="line"/>
      <point x="480" y="218"/>
      <point x="606" y="282"/>
      <point x="643" y="319" type="curve" smooth="yes"/>
      <point x="712" y="388"/>
      <point x="729" y="489"/>
    </contour>
  </outline>
</glyph>
<glyph name="D" format="2">
  <advance width="500"/>
  <unicode hex="0044"/>
  <outline>
    <contour>
      <point x="235" y="639.0" type="curve" smooth="yes"/>
      <point x="257" y="639"/>
      <point x="266" y="631"/>
      <point x="266.0" y="613" type="curve" smooth="yes"/>
      <point x="266.0" y="577"/>
      <point x="186.0" y="435"/>
      <point x="186.0" y="390" type="curve" smooth="yes"/>
      <point x="186" y="340"/>
      <point x="372.0" y="392.0"/>
      <point x="372.0" y="309" type="curve" smooth="yes"/>
      <point x="372" y="255"/>
      <point x="269" y="126"/>
      <point x="269" y="19" type="curve"/>
      <point x="260" y="2"/>
      <point x="247" y="-5"/>
      <point x="229" y="-5" type="curve" smooth="yes"/>
      <point x="204" y="-5"/>
      <point x="189" y="4"/>
      <point x="189.0" y="31" type="curve" smooth="yes"/>
      <point x="189.0" y="88"/>
      <point x="296" y="266"/>
      <point x="296.0" y="291" type="curve" smooth="yes"/>
      <point x="296.0" y="310.0"/>
      <point x="277" y="315"/>
      <point x="147" y="315.0" type="curve" smooth="yes"/>
      <point x="116.0" y="315.0"/>
      <point x="102" y="332"/>
      <point x="102.0" y="352" type="curve" smooth="yes"/>
      <point x="102.0" y="397"/>
      <point x="193" y="562"/>
      <point x="193" y="626" type="curve"/>
      <point x="201" y="633"/>
      <point x="217" y="639.0"/>
    </contour>
  </outline>
</glyph>
<glyph name="E" format="2">
  <advance width="776"/>
  <unicode hex="0045"/>
  <outline>
    <contour>
      <point x="727" y="601" type="curve" smooth="yes"/>
      <point x="727" y="686"/>
      <point x="686" y="734"/>
      <point x="569" y="734" type="curve" smooth="yes"/>
      <point x="430" y="734"/>
      <point x="282" y="677"/>
      <point x="192" y="618" type="curve" smooth="yes"/>
      <point x="120" y="571"/>
      <point x="46" y="465"/>
      <point x="46" y="388" type="curve" smooth="yes"/>
      <point x="46" y="299"/>
      <point x="125" y="231"/>
      <point x="234" y="231" type="curve" smooth="yes"/>
      <point x="262" y="231"/>
      <point x="280" y="233"/>
      <point x="298" y="241" type="curve"/>
      <point x="297" y="287" type="line"/>
      <point x="277" y="282"/>
      <point x="258" y="282"/>
      <point x="232" y="282" type="curve" smooth="yes"/>
      <point x="156" y="282"/>
      <point x="115" y="311"/>
      <point x="115" y="395" type="curve" smooth="yes"/>
      <point x="115" y="485"/>
      <point x="233" y="691"/>
      <point x="519" y="691" type="curve" smooth="yes"/>
      <point x="619" y="691"/>
      <point x="657" y="647"/>
      <point x="657" y="578" type="curve" smooth="yes"/>
      <point x="657" y="460"/>
      <point x="554" y="346"/>
      <point x="321" y="290" type="curve"/>
      <point x="318" y="239" type="line"/>
      <point x="490" y="297"/>
      <point x="603" y="356"/>
      <point x="641" y="394" type="curve" smooth="yes"/>
      <point x="706" y="459"/>
      <point x="727" y="546"/>
    </contour>
    <contour>
      <point x="309" y="112" type="curve" smooth="yes"/>
      <point x="309" y="273"/>
      <point x="444" y="630"/>
      <point x="489" y="701" type="curve"/>
      <point x="419" y="700" type="line"/>
      <point x="353.82460569463916" y="550.5979422846344"/>
      <point x="237.0" y="209.0"/>
      <point x="237" y="105" type="curve" smooth="yes"/>
      <point x="237.0" y="14.0"/>
      <point x="319.6308724832215" y="-11.0"/>
      <point x="389" y="-11" type="curve" smooth="yes"/>
      <point x="483" y="-11"/>
      <point x="543" y="47"/>
      <point x="543" y="113" type="curve" smooth="yes"/>
      <point x="543" y="182"/>
      <point x="444" y="224"/>
      <point x="309" y="225" type="curve"/>
      <point x="299" y="186" type="line"/>
      <point x="421" y="191"/>
      <point x="474" y="158"/>
      <point x="474" y="104" type="curve" smooth="yes"/>
      <point x="474" y="73"/>
      <point x="446" y="36"/>
      <point x="391" y="36" type="curve" smooth="yes"/>
      <point x="338" y="36"/>
      <point x="309" y="58"/>
    </contour>
  </outline>
</glyph>
<glyph name="F" format="2">
  <advance width="875"/>
  <unicode hex="0046"/>
  <outline>
    <contour>
      <point x="515" y="650" type="line"/>
      <point x="493" y="601"/>
      <point x="389" y="329"/>
      <point x="389" y="245" type="curve" smooth="yes"/>
      <point x="389" y="205"/>
      <point x="396" y="179"/>
      <point x="406" y="160" type="curve"/>
      <point x="498" y="206" type="line"/>
      <point x="478" y="222"/>
      <point x="457" y="228"/>
      <point x="457" y="268" type="curve" smooth="yes"/>
      <point x="457" y="345"/>
      <point x="542" y="583"/>
      <point x="585" y="651" type="curve"/>
    </contour>
    <contour>
      <point x="170" y="278" type="line"/>
      <point x="85" y="197"/>
      <point x="40" y="102"/>
      <point x="40" y="48" type="curve" smooth="yes"/>
      <point x="40" y="1"/>
      <point x="78" y="-10"/>
      <point x="128" y="19" type="curve"/>
      <point x="125" y="29"/>
      <point x="123" y="40"/>
      <point x="123" y="63" type="curve" smooth="yes"/>
      <point x="123" y="111"/>
      <point x="144" y="180"/>
      <point x="200" y="245" type="curve"/>
    </contour>
    <contour>
      <point x="823" y="551" type="curve" smooth="yes"/>
      <point x="823" y="636"/>
      <point x="782" y="684"/>
      <point x="665" y="684" type="curve" smooth="yes"/>
      <point x="526" y="684"/>
      <point x="378" y="627"/>
      <point x="288" y="568" type="curve" smooth="yes"/>
      <point x="214" y="520"/>
      <point x="132" y="382"/>
      <point x="132" y="298" type="curve" smooth="yes"/>
      <point x="132" y="214"/>
      <point x="245" y="151"/>
      <point x="359" y="151" type="curve" smooth="yes"/>
      <point x="408" y="151"/>
      <point x="451" y="161"/>
      <point x="491" y="186" type="curve"/>
      <point x="460" y="231" type="line"/>
      <point x="440" y="218"/>
      <point x="404" y="202"/>
      <point x="357" y="202" type="curve" smooth="yes"/>
      <point x="273" y="202"/>
      <point x="201" y="229"/>
      <point x="201" y="305" type="curve" smooth="yes"/>
      <point x="201" y="401"/>
      <point x="329" y="641"/>
      <point x="615" y="641" type="curve" smooth="yes"/>
      <point x="715" y="641"/>
      <point x="753" y="597"/>
      <point x="753" y="528" type="curve" smooth="yes"/>
      <point x="753" y="404"/>
      <point x="663" y="275"/>
      <point x="454" y="225" type="curve"/>
      <point x="464" y="175" type="line"/>
      <point x="594" y="226"/>
      <point x="704" y="286"/>
      <point x="737" y="319" type="curve" smooth="yes"/>
      <point x="806" y="388"/>
      <point x="823" y="489"/>
    </contour>
  </outline>
</glyph>
<glyph name="H" format="2">
  <advance width="891"/>
  <unicode hex="0048"/>
  <outline>
    <contour>
      <point x="183" y="61" type="curve" smooth="yes"/>
      <point x="183" y="231"/>
      <point x="321" y="494"/>
      <point x="360" y="557" type="curve"/>
      <point x="288" y="557" type="line"/>
      <point x="269" y="511"/>
      <point x="96" y="124"/>
      <point x="96" y="48" type="curve" smooth="yes"/>
      <point x="96" y="20"/>
      <point x="125" y="26"/>
      <point x="189" y="21" type="curve"/>
      <point x="186" y="30"/>
      <point x="183" y="41"/>
    </contour>
    <contour>
      <point x="692" y="558" type="curve" smooth="yes"/>
      <point x="664" y="558"/>
      <point x="657" y="534"/>
      <point x="663" y="516" type="curve"/>
      <point x="705" y="505"/>
      <point x="729" y="487"/>
      <point x="754" y="457" type="curve"/>
      <point x="782" y="461"/>
      <point x="807" y="474"/>
      <point x="807" y="494" type="curve" smooth="yes"/>
      <point x="807" y="521"/>
      <point x="736" y="558"/>
    </contour>
    <contour>
      <point x="243" y="512" type="curve"/>
      <point x="292" y="524"/>
      <point x="330" y="526"/>
      <point x="388" y="521" type="curve"/>
      <point x="399" y="532"/>
      <point x="397" y="546"/>
      <point x="382" y="553" type="curve" smooth="yes"/>
      <point x="361" y="562"/>
      <point x="325" y="569"/>
      <point x="280" y="569.0" type="curve" smooth="yes"/>
      <point x="249.0" y="569.0"/>
      <point x="229.0" y="554.0"/>
      <point x="229" y="538" type="curve" smooth="yes"/>
      <point x="229" y="526"/>
      <point x="234" y="517"/>
    </contour>
    <contour>
      <point x="669" y="325" type="line"/>
      <point x="651" y="329"/>
      <point x="641" y="328"/>
      <point x="605" y="322" type="curve" smooth="yes"/>
      <point x="495" y="306"/>
      <point x="386" y="290"/>
      <point x="204" y="275" type="curve"/>
      <point x="198" y="230" type="line"/>
      <point x="332" y="247"/>
      <point x="530" y="279"/>
      <point x="667" y="286" type="curve"/>
    </contour>
    <contour>
      <point x="43" y="-5" type="curve"/>
      <point x="91" y="7"/>
      <point x="143" y="17"/>
      <point x="225" y="19" type="curve"/>
      <point x="225" y="57"/>
      <point x="213" y="71"/>
      <point x="174" y="71" type="curve" smooth="yes"/>
      <point x="148" y="71"/>
      <point x="86" y="55"/>
      <point x="49" y="43" type="curve" smooth="yes"/>
      <point x="21" y="33"/>
      <point x="23" y="6"/>
    </contour>
    <contour>
      <point x="520" y="30" type="curve"/>
      <point x="586" y="38"/>
      <point x="649" y="30"/>
      <point x="683" y="22" type="curve"/>
      <point x="698" y="49"/>
      <point x="697" y="86"/>
      <point x="635" y="86" type="curve" smooth="yes"/>
      <point x="605" y="86"/>
      <point x="554" y="85"/>
      <point x="531" y="78" type="curve" smooth="yes"/>
      <point x="512" y="73"/>
      <point x="503" y="50"/>
    </contour>
    <contour>
      <point x="652" y="52" type="line"/>
      <point x="652" y="221"/>
      <point x="711" y="377"/>
      <point x="780" y="509" type="curve"/>
      <point x="710" y="511" type="line"/>
      <point x="663" y="383"/>
      <point x="566" y="115"/>
      <point x="566" y="39" type="curve"/>
    </contour>
  </outline>
</glyph>
<glyph name="I" format="2">
  <advance width="4060"/>
  <unicode hex="0049"/>
  <image fileName="image (19).png" xScale="5.38928634129213" yScale="5.389286341292139" xOffset="-326.21874999999864" yOffset="-166.12499999999997"/>
  <outline>
    <contour>
      <point x="745" y="85" type="curve" smooth="yes"/>
      <point x="773" y="203"/>
      <point x="824" y="305"/>
      <point x="872" y="406" type="curve"/>
      <point x="811" y="423" type="line"/>
      <point x="752" y="253"/>
      <point x="667" y="84"/>
      <point x="640" y="40" type="curve"/>
      <point x="654" y="27"/>
      <point x="673" y="18"/>
      <point x="695" y="18" type="curve" smooth="yes"/>
      <point x="724" y="18"/>
      <point x="733" y="36"/>
    </contour>
    <contour>
      <point x="1256" y="446" type="line"/>
      <point x="1249" y="463"/>
      <point x="1230" y="471"/>
      <point x="1185" y="466" type="curve" smooth="yes"/>
      <point x="1088" y="455"/>
      <point x="1004" y="439"/>
      <point x="811" y="423" type="curve"/>
      <point x="801" y="370" type="line"/>
      <point x="934" y="387"/>
      <point x="1101" y="416"/>
      <point x="1237" y="423" type="curve"/>
    </contour>
    <contour>
      <point x="1035" y="10" type="curve"/>
      <point x="1090" y="17"/>
      <point x="1141" y="9"/>
      <point x="1170" y="2" type="curve"/>
      <point x="1185" y="29"/>
      <point x="1184" y="66"/>
      <point x="1122" y="66" type="curve" smooth="yes"/>
      <point x="1100" y="66"/>
      <point x="1063" y="63"/>
      <point x="1046" y="58" type="curve" smooth="yes"/>
      <point x="1027" y="53"/>
      <point x="1018" y="30"/>
    </contour>
    <contour>
      <point x="1148" y="52" type="line"/>
      <point x="1154" y="196"/>
      <point x="1196" y="331"/>
      <point x="1256" y="446" type="curve"/>
      <point x="1196" y="459" type="line"/>
      <point x="1154" y="347"/>
      <point x="1064" y="105"/>
      <point x="1064" y="39" type="curve"/>
    </contour>
    <contour>
      <point x="2125" y="483"/>
      <point x="1955" y="545"/>
      <point x="1878" y="545" type="curve" smooth="yes"/>
      <point x="1738" y="545"/>
      <point x="1543" y="460"/>
      <point x="1506" y="417" type="curve" smooth="yes"/>
      <point x="1475" y="381"/>
      <point x="1457" y="324"/>
      <point x="1457" y="291" type="curve" smooth="yes"/>
      <point x="1457" y="258"/>
      <point x="1467" y="235"/>
      <point x="1518" y="203" type="curve" smooth="yes"/>
      <point x="1561" y="176"/>
      <point x="1641" y="135"/>
      <point x="1675" y="135" type="curve" smooth="yes"/>
      <point x="1697" y="135"/>
      <point x="1713" y="157"/>
      <point x="1714" y="186" type="curve"/>
      <point x="1691" y="192" type="line"/>
      <point x="1728" y="281"/>
      <point x="1817" y="463"/>
      <point x="1878" y="508" type="curve"/>
      <point x="1793" y="502" type="line"/>
      <point x="1753" y="408"/>
      <point x="1686" y="283"/>
      <point x="1632" y="208" type="curve"/>
      <point x="1530" y="247"/>
      <point x="1512" y="277"/>
      <point x="1512" y="314" type="curve" smooth="yes"/>
      <point x="1512" y="409"/>
      <point x="1702" y="503"/>
      <point x="1845" y="503" type="curve" smooth="yes"/>
      <point x="1940" y="503"/>
      <point x="2062" y="452"/>
      <point x="2062" y="399" type="curve" smooth="yes"/>
      <point x="2062" y="359"/>
      <point x="2004" y="308"/>
      <point x="1882" y="270" type="curve"/>
      <point x="1908" y="265" type="line"/>
      <point x="1887" y="368"/>
      <point x="1864" y="448"/>
      <point x="1852" y="460" type="curve" smooth="yes"/>
      <point x="1841" y="471"/>
      <point x="1816" y="458"/>
      <point x="1782" y="442" type="curve"/>
      <point x="1775" y="423" type="line"/>
      <point x="1795" y="428"/>
      <point x="1809" y="426"/>
      <point x="1815" y="417" type="curve" smooth="yes"/>
      <point x="1845" y="372"/>
      <point x="1850" y="283"/>
      <point x="1856" y="182" type="curve"/>
      <point x="1873" y="174"/>
      <point x="1902" y="175"/>
      <point x="1917" y="188" type="curve" smooth="yes"/>
      <point x="1923" y="196"/>
      <point x="1918" y="211"/>
      <point x="1909" y="248" type="curve"/>
      <point x="1904" y="216" type="line"/>
      <point x="2045" y="279"/>
      <point x="2125" y="363"/>
      <point x="2125" y="433" type="curve" smooth="yes"/>
    </contour>
    <contour>
      <point x="1491" y="253" type="line"/>
      <point x="1401" y="174"/>
      <point x="1350" y="102"/>
      <point x="1350" y="48" type="curve" smooth="yes"/>
      <point x="1350" y="1"/>
      <point x="1388" y="-10"/>
      <point x="1438" y="19" type="curve"/>
      <point x="1435" y="29"/>
      <point x="1433" y="40"/>
      <point x="1433" y="63" type="curve" smooth="yes"/>
      <point x="1433" y="114"/>
      <point x="1461" y="163"/>
      <point x="1530" y="230" type="curve"/>
    </contour>
    <contour>
      <point x="1026" y="422" type="line"/>
      <point x="1036" y="485"/>
      <point x="1072" y="592"/>
      <point x="1085" y="617" type="curve"/>
      <point x="999" y="616" type="line"/>
      <point x="995" y="581"/>
      <point x="978" y="490"/>
      <point x="967" y="422" type="curve"/>
    </contour>
    <contour>
      <point x="1085" y="577" type="curve"/>
      <point x="1094" y="582"/>
      <point x="1099" y="591"/>
      <point x="1099" y="603" type="curve" smooth="yes"/>
      <point x="1099" y="620"/>
      <point x="1082" y="634"/>
      <point x="1048" y="634" type="curve" smooth="yes"/>
      <point x="1009" y="634"/>
      <point x="977" y="628"/>
      <point x="959" y="620" type="curve" smooth="yes"/>
      <point x="944" y="613"/>
      <point x="942" y="599"/>
      <point x="953" y="588" type="curve"/>
      <point x="1006" y="593"/>
      <point x="1039" y="588"/>
    </contour>
    <contour>
      <point x="467" y="240" type="curve"/>
      <point x="460" y="192"/>
      <point x="450" y="154"/>
      <point x="429" y="128" type="curve"/>
      <point x="341" y="128"/>
      <point x="232" y="125"/>
      <point x="43" y="133" type="curve"/>
      <point x="33" y="80" type="line"/>
      <point x="216" y="80"/>
      <point x="400" y="73"/>
      <point x="428" y="73" type="curve" smooth="yes"/>
      <point x="516" y="73"/>
      <point x="555" y="201"/>
      <point x="537" y="232" type="curve" smooth="yes"/>
      <point x="526" y="250"/>
      <point x="493" y="246"/>
    </contour>
    <contour>
      <point x="9" y="159" type="curve"/>
      <point x="18" y="100"/>
      <point x="11" y="48"/>
      <point x="0" y="-4" type="curve"/>
      <point x="18" y="-13"/>
      <point x="42" y="-10"/>
      <point x="54" y="14" type="curve" smooth="yes"/>
      <point x="66" y="38"/>
      <point x="82" y="78"/>
      <point x="82" y="122" type="curve" smooth="yes"/>
      <point x="82" y="150"/>
      <point x="63" y="171"/>
    </contour>
    <contour>
      <point x="17" y="505" type="curve"/>
      <point x="42" y="500"/>
      <point x="73" y="491"/>
      <point x="104" y="462" type="curve" smooth="yes"/>
      <point x="162" y="408"/>
      <point x="182" y="241"/>
      <point x="168" y="107" type="curve"/>
      <point x="258" y="101" type="line"/>
      <point x="244" y="329"/>
      <point x="205" y="407"/>
      <point x="177" y="464" type="curve" smooth="yes"/>
      <point x="158" y="502"/>
      <point x="125" y="533"/>
      <point x="86" y="548" type="curve"/>
      <point x="84" y="534" type="line"/>
      <point x="181" y="573"/>
      <point x="321" y="616"/>
      <point x="373" y="616" type="curve" smooth="yes"/>
      <point x="413" y="616"/>
      <point x="416" y="592"/>
      <point x="416" y="592" type="curve"/>
      <point x="412" y="628" type="line"/>
      <point x="320" y="475"/>
      <point x="287" y="392"/>
      <point x="205" y="339" type="curve"/>
      <point x="224" y="318" type="line"/>
      <point x="283" y="291"/>
      <point x="320" y="344"/>
      <point x="339" y="385" type="curve" smooth="yes"/>
      <point x="378" y="467"/>
      <point x="428" y="567"/>
      <point x="472" y="609" type="curve"/>
      <point x="471" y="640"/>
      <point x="445" y="664"/>
      <point x="404" y="664" type="curve" smooth="yes"/>
      <point x="328" y="664"/>
      <point x="112" y="610"/>
      <point x="48" y="582" type="curve" smooth="yes"/>
      <point x="10" y="565"/>
      <point x="4" y="535"/>
    </contour>
    <contour>
      <point x="2419" y="238" type="line"/>
      <point x="2267" y="184"/>
      <point x="2200" y="102"/>
      <point x="2200" y="48" type="curve" smooth="yes"/>
      <point x="2200" y="1"/>
      <point x="2238" y="-10"/>
      <point x="2288" y="19" type="curve"/>
      <point x="2285" y="29"/>
      <point x="2283" y="40"/>
      <point x="2283" y="56" type="curve" smooth="yes"/>
      <point x="2283" y="114"/>
      <point x="2338" y="165"/>
      <point x="2448" y="203" type="curve"/>
    </contour>
    <contour>
      <point x="2781.0" y="92.0"/>
      <point x="2979.0" y="403.0"/>
      <point x="2979" y="485" type="curve"/>
      <point x="2979" y="528"/>
      <point x="2926" y="537"/>
      <point x="2881" y="538" type="curve" smooth="yes"/>
      <point x="2776" y="541"/>
      <point x="2597" y="507"/>
      <point x="2416" y="464" type="curve"/>
      <point x="2394" y="400"/>
      <point x="2383" y="332"/>
      <point x="2383" y="286" type="curve" smooth="yes"/>
      <point x="2383" y="186"/>
      <point x="2539" y="92"/>
      <point x="2593" y="92" type="curve" smooth="yes"/>
    </contour>
    <contour>
      <point x="2598" y="153" type="curve" smooth="yes"/>
      <point x="2487" y="153"/>
      <point x="2408" y="265"/>
      <point x="2485" y="437" type="curve"/>
      <point x="2614" y="471"/>
      <point x="2777" y="497"/>
      <point x="2903" y="488" type="curve"/>
      <point x="2889.0" y="358.0"/>
      <point x="2725.0" y="153.0"/>
    </contour>
    <contour>
      <point x="3750" y="281" type="curve"/>
      <point x="3744" y="233" type="line"/>
      <point x="3805" y="248"/>
      <point x="3885" y="269"/>
      <point x="3959" y="275" type="curve"/>
      <point x="3898" y="295" type="line"/>
      <point x="3897" y="225"/>
      <point x="3921" y="198"/>
      <point x="4020" y="215" type="curve"/>
      <point x="4015" y="240"/>
      <point x="4012" y="265"/>
      <point x="4009" y="283" type="curve" smooth="yes"/>
      <point x="4007" y="297"/>
      <point x="4002" y="301"/>
      <point x="3990" y="304" type="curve" smooth="yes"/>
      <point x="3970" y="309"/>
      <point x="3950" y="313"/>
      <point x="3933" y="316" type="curve" smooth="yes"/>
      <point x="3914" y="320"/>
      <point x="3905" y="320"/>
      <point x="3884" y="314" type="curve" smooth="yes"/>
      <point x="3846" y="303"/>
      <point x="3811" y="294"/>
    </contour>
    <contour>
      <point x="3789" y="373"/>
      <point x="3619" y="435"/>
      <point x="3542" y="435" type="curve" smooth="yes"/>
      <point x="3402" y="435"/>
      <point x="3207" y="350"/>
      <point x="3170" y="307" type="curve" smooth="yes"/>
      <point x="3139" y="271"/>
      <point x="3121" y="214"/>
      <point x="3121" y="181" type="curve" smooth="yes"/>
      <point x="3121" y="148"/>
      <point x="3131" y="125"/>
      <point x="3182" y="93" type="curve" smooth="yes"/>
      <point x="3225" y="66"/>
      <point x="3305" y="25"/>
      <point x="3339" y="25" type="curve" smooth="yes"/>
      <point x="3361" y="25"/>
      <point x="3377" y="47"/>
      <point x="3378" y="76" type="curve"/>
      <point x="3355" y="82" type="line"/>
      <point x="3392" y="171"/>
      <point x="3481" y="353"/>
      <point x="3542" y="398" type="curve"/>
      <point x="3457" y="392" type="line"/>
      <point x="3417" y="298"/>
      <point x="3350" y="173"/>
      <point x="3296" y="98" type="curve"/>
      <point x="3194" y="137"/>
      <point x="3176" y="167"/>
      <point x="3176" y="204" type="curve" smooth="yes"/>
      <point x="3176" y="299"/>
      <point x="3366" y="393"/>
      <point x="3509" y="393" type="curve" smooth="yes"/>
      <point x="3604" y="393"/>
      <point x="3726" y="342"/>
      <point x="3726" y="289" type="curve" smooth="yes"/>
      <point x="3726" y="249"/>
      <point x="3668" y="198"/>
      <point x="3546" y="160" type="curve"/>
      <point x="3572" y="155" type="line"/>
      <point x="3551" y="258"/>
      <point x="3528" y="338"/>
      <point x="3516" y="350" type="curve" smooth="yes"/>
      <point x="3505" y="361"/>
      <point x="3480" y="348"/>
      <point x="3446" y="332" type="curve"/>
      <point x="3439" y="313" type="line"/>
      <point x="3459" y="318"/>
      <point x="3473" y="316"/>
      <point x="3479" y="307" type="curve" smooth="yes"/>
      <point x="3509" y="262"/>
      <point x="3514" y="173"/>
      <point x="3520" y="72" type="curve"/>
      <point x="3537" y="64"/>
      <point x="3566" y="65"/>
      <point x="3581" y="78" type="curve" smooth="yes"/>
      <point x="3587" y="86"/>
      <point x="3582" y="101"/>
      <point x="3573" y="138" type="curve"/>
      <point x="3568" y="106" type="line"/>
      <point x="3709" y="169"/>
      <point x="3789" y="253"/>
      <point x="3789" y="323" type="curve" smooth="yes"/>
    </contour>
  </outline>
</glyph>
<glyph name="Z" format="2">
  <advance width="500"/>
  <unicode hex="005A"/>
  <outline>
    <contour>
      <point x="181" y="568" type="curve" smooth="yes"/>
      <point x="181" y="583"/>
      <point x="176" y="591"/>
      <point x="147" y="591" type="curve" smooth="yes"/>
      <point x="122.87951807228916" y="591.0"/>
      <point x="91.0" y="591"/>
      <point x="52" y="583" type="curve"/>
      <point x="39" y="563"/>
      <point x="28" y="529"/>
      <point x="27" y="497" type="curve"/>
      <point x="-27" y="489"/>
      <point x="-56" y="503"/>
      <point x="-56" y="527" type="curve" smooth="yes"/>
      <point x="-56" y="569"/>
      <point x="-27" y="619"/>
      <point x="2" y="623" type="curve" smooth="yes"/>
      <point x="47.0" y="629.0"/>
      <point x="141" y="637.0"/>
      <point x="223" y="637" type="curve" smooth="yes"/>
      <point x="257" y="637"/>
      <point x="266" y="621"/>
      <point x="266" y="603" type="curve" smooth="yes"/>
      <point x="266" y="567"/>
      <point x="186" y="435"/>
      <point x="186" y="390" type="curve" smooth="yes"/>
      <point x="186" y="340"/>
      <point x="372" y="392"/>
      <point x="372" y="309" type="curve" smooth="yes"/>
      <point x="372" y="255"/>
      <point x="269" y="126"/>
      <point x="269" y="19" type="curve"/>
      <point x="260" y="2"/>
      <point x="247" y="-5"/>
      <point x="229" y="-5" type="curve" smooth="yes"/>
      <point x="204" y="-5"/>
      <point x="189" y="4"/>
      <point x="189" y="31" type="curve" smooth="yes"/>
      <point x="189" y="88"/>
      <point x="296" y="266"/>
      <point x="296" y="291" type="curve" smooth="yes"/>
      <point x="296" y="310"/>
      <point x="277" y="315"/>
      <point x="147" y="315" type="curve" smooth="yes"/>
      <point x="116" y="315"/>
      <point x="102" y="332"/>
      <point x="102" y="352" type="curve" smooth="yes"/>
      <point x="102" y="397"/>
      <point x="181" y="536"/>
    </contour>
  </outline>
</glyph>
<glyph name="a" format="2">
  <advance width="500"/>
  <unicode hex="0061"/>
  <outline>
    <contour>
      <point x="144" y="296" type="curve" smooth="yes"/>
      <point x="129" y="284"/>
      <point x="97" y="285"/>
      <point x="80" y="313" type="curve"/>
      <point x="119" y="335"/>
      <point x="158" y="507.0"/>
      <point x="224" y="507.0" type="curve" smooth="yes"/>
      <point x="315" y="507.0"/>
      <point x="348" y="184"/>
      <point x="485" y="31" type="curve"/>
      <point x="485.0" y="15.0"/>
      <point x="470" y="-3.0"/>
      <point x="450" y="-3" type="curve" smooth="yes"/>
      <point x="425" y="-3"/>
      <point x="414" y="11"/>
      <point x="400" y="36" type="curve" smooth="yes"/>
      <point x="365" y="95"/>
      <point x="288" y="409"/>
      <point x="201" y="454" type="curve"/>
      <point x="221" y="459" type="line"/>
      <point x="177" y="433"/>
      <point x="173" y="319"/>
    </contour>
    <contour>
      <point x="305" y="329" type="curve"/>
      <point x="332" y="277" type="line"/>
      <point x="231" y="256"/>
      <point x="155" y="228"/>
      <point x="125" y="198" type="curve" smooth="yes"/>
      <point x="83.0" y="156.0"/>
      <point x="117" y="59"/>
      <point x="151" y="59.0" type="curve" smooth="yes"/>
      <point x="197" y="59.0"/>
      <point x="295" y="170"/>
      <point x="318" y="288" type="curve"/>
      <point x="346" y="255" type="line"/>
      <point x="270" y="47"/>
      <point x="186" y="-5"/>
      <point x="112" y="-5" type="curve" smooth="yes"/>
      <point x="68.0" y="-5"/>
      <point x="47" y="59"/>
      <point x="47.0" y="108" type="curve" smooth="yes"/>
      <point x="47.0" y="156"/>
      <point x="67" y="205"/>
      <point x="91" y="229" type="curve"/>
      <point x="147" y="241"/>
      <point x="222" y="280"/>
    </contour>
  </outline>
</glyph>
<glyph name="uni1200" format="2">
  <advance width="704"/>
  <unicode hex="1200"/>
  <outline>
    <contour>
      <point x="428" y="94" type="curve" smooth="yes"/>
      <point x="448" y="94"/>
      <point x="461" y="102"/>
      <point x="480" y="153" type="curve" smooth="yes"/>
      <point x="550" y="347"/>
      <point x="627" y="494"/>
      <point x="627" y="557" type="curve" smooth="yes"/>
      <point x="627" y="590"/>
      <point x="605" y="608"/>
      <point x="577" y="608" type="curve" smooth="yes"/>
      <point x="547" y="608"/>
      <point x="522" y="588"/>
      <point x="517" y="560" type="curve"/>
      <point x="529" y="554"/>
      <point x="535" y="544"/>
      <point x="535" y="517" type="curve" smooth="yes"/>
      <point x="535" y="446"/>
      <point x="443" y="215"/>
      <point x="388" y="160" type="curve" smooth="yes"/>
      <point x="349" y="121"/>
      <point x="308" y="99"/>
      <point x="258" y="99" type="curve" smooth="yes"/>
      <point x="215" y="99"/>
      <point x="190" y="117"/>
      <point x="190" y="164" type="curve" smooth="yes"/>
      <point x="190" y="232"/>
      <point x="219" y="392"/>
      <point x="251" y="514" type="curve"/>
      <point x="267" y="520"/>
      <point x="276" y="530"/>
      <point x="276" y="547" type="curve" smooth="yes"/>
      <point x="276" y="578"/>
      <point x="217" y="609"/>
      <point x="173" y="609" type="curve" smooth="yes"/>
      <point x="145" y="609"/>
      <point x="133" y="584"/>
      <point x="139" y="565" type="curve"/>
      <point x="163" y="557"/>
      <point x="175" y="547"/>
      <point x="175" y="522" type="curve" smooth="yes"/>
      <point x="175" y="464"/>
      <point x="114" y="235"/>
      <point x="114" y="144" type="curve" smooth="yes"/>
      <point x="114" y="62"/>
      <point x="168" y="32"/>
      <point x="224" y="32" type="curve" smooth="yes"/>
      <point x="280" y="32"/>
      <point x="343" y="56"/>
      <point x="399" y="103" type="curve"/>
      <point x="406" y="98"/>
      <point x="417" y="94"/>
    </contour>
  </outline>
</glyph>
<glyph name="uni1202" format="2">
  <advance width="693"/>
  <unicode hex="1202"/>
  <outline>
    <contour>
      <point x="273" y="51" type="curve" smooth="yes"/>
      <point x="273" y="14"/>
      <point x="298" y="-8"/>
      <point x="340" y="-8" type="curve" smooth="yes"/>
      <point x="370" y="-8"/>
      <point x="447" y="8"/>
      <point x="538" y="28" type="curve"/>
      <point x="532" y="51" type="line"/>
      <point x="531" y="-25"/>
      <point x="551" y="-49"/>
      <point x="606" y="-49" type="curve" smooth="yes"/>
      <point x="619" y="-49"/>
      <point x="637" y="-47"/>
      <point x="649" y="-43" type="curve"/>
      <point x="640" y="-19"/>
      <point x="636" y="24"/>
      <point x="639" y="51" type="curve"/>
      <point x="606" y="63"/>
      <point x="561" y="74"/>
      <point x="551" y="74" type="curve" smooth="yes"/>
      <point x="521" y="74"/>
      <point x="430" y="47"/>
      <point x="397" y="47" type="curve" smooth="yes"/>
      <point x="371" y="47"/>
      <point x="358" y="54"/>
      <point x="358" y="78" type="curve" smooth="yes"/>
      <point x="358" y="167"/>
      <point x="558" y="506"/>
      <point x="558" y="587" type="curve" smooth="yes"/>
      <point x="558" y="617"/>
      <point x="539" y="637"/>
      <point x="511" y="637" type="curve" smooth="yes"/>
      <point x="473" y="637"/>
      <point x="448" y="615"/>
      <point x="445" y="587" type="curve"/>
      <point x="457" y="581"/>
      <point x="463" y="572"/>
      <point x="463" y="553" type="curve" smooth="yes"/>
      <point x="463" y="519"/>
      <point x="436" y="441"/>
      <point x="410" y="412" type="curve" smooth="yes"/>
      <point x="367" y="364"/>
      <point x="314" y="329"/>
      <point x="244" y="329" type="curve" smooth="yes"/>
      <point x="203" y="329"/>
      <point x="184" y="347"/>
      <point x="184" y="387" type="curve" smooth="yes"/>
      <point x="184" y="438"/>
      <point x="191" y="485"/>
      <point x="202" y="535" type="curve"/>
      <point x="214" y="541"/>
      <point x="226" y="552"/>
      <point x="226" y="566" type="curve" smooth="yes"/>
      <point x="226" y="604"/>
      <point x="165" y="629"/>
      <point x="127" y="629" type="curve" smooth="yes"/>
      <point x="92" y="629"/>
      <point x="81" y="607"/>
      <point x="87" y="587" type="curve"/>
      <point x="112" y="579"/>
      <point x="125" y="570"/>
      <point x="125" y="551" type="curve" smooth="yes"/>
      <point x="125" y="502"/>
      <point x="105" y="421"/>
      <point x="105" y="370" type="curve" smooth="yes"/>
      <point x="105" y="301"/>
      <point x="139" y="263"/>
      <point x="194" y="263" type="curve" smooth="yes"/>
      <point x="251" y="263"/>
      <point x="320" y="289"/>
      <point x="406" y="348" type="curve"/>
      <point x="395" y="357" type="line"/>
      <point x="328" y="216"/>
      <point x="273" y="99"/>
    </contour>
  </outline>
</glyph>
<glyph name="uni1205" format="2">
  <advance width="749"/>
  <unicode hex="1205"/>
  <outline>
    <contour>
      <point x="159" y="144" type="curve" smooth="yes"/>
      <point x="159" y="62"/>
      <point x="213" y="32"/>
      <point x="269" y="32" type="curve" smooth="yes"/>
      <point x="325" y="32"/>
      <point x="388" y="56"/>
      <point x="444" y="103" type="curve"/>
      <point x="451" y="98"/>
      <point x="462" y="94"/>
      <point x="473" y="94" type="curve" smooth="yes"/>
      <point x="493" y="94"/>
      <point x="506" y="102"/>
      <point x="525" y="153" type="curve" smooth="yes"/>
      <point x="595" y="347"/>
      <point x="672" y="494"/>
      <point x="672" y="557" type="curve" smooth="yes"/>
      <point x="672" y="590"/>
      <point x="650" y="608"/>
      <point x="622" y="608" type="curve" smooth="yes"/>
      <point x="592" y="608"/>
      <point x="567" y="588"/>
      <point x="562" y="560" type="curve"/>
      <point x="574" y="554"/>
      <point x="580" y="544"/>
      <point x="580" y="517" type="curve" smooth="yes"/>
      <point x="580" y="446"/>
      <point x="488" y="215"/>
      <point x="433" y="160" type="curve" smooth="yes"/>
      <point x="394" y="121"/>
      <point x="353" y="99"/>
      <point x="303" y="99" type="curve" smooth="yes"/>
      <point x="260" y="99"/>
      <point x="235" y="120"/>
      <point x="235" y="157" type="curve" smooth="yes"/>
      <point x="235" y="219"/>
      <point x="273" y="307"/>
      <point x="273" y="342" type="curve" smooth="yes"/>
      <point x="273" y="359"/>
      <point x="262" y="369"/>
      <point x="238" y="369" type="curve" smooth="yes"/>
      <point x="209" y="369" type="line" smooth="yes"/>
      <point x="189" y="369"/>
      <point x="182" y="376"/>
      <point x="182" y="391" type="curve" smooth="yes"/>
      <point x="182" y="429"/>
      <point x="193" y="473"/>
      <point x="205" y="505" type="curve"/>
      <point x="229" y="508"/>
      <point x="239" y="520"/>
      <point x="239" y="539" type="curve" smooth="yes"/>
      <point x="239" y="571"/>
      <point x="177" y="606"/>
      <point x="130" y="606" type="curve" smooth="yes"/>
      <point x="102" y="606"/>
      <point x="91" y="578"/>
      <point x="97" y="560" type="curve"/>
      <point x="121" y="552"/>
      <point x="133" y="543"/>
      <point x="133" y="524" type="curve" smooth="yes"/>
      <point x="133" y="476"/>
      <point x="102" y="397"/>
      <point x="102" y="365" type="curve" smooth="yes"/>
      <point x="102" y="348"/>
      <point x="112" y="333"/>
      <point x="143" y="333" type="curve" smooth="yes"/>
      <point x="163" y="333" type="line" smooth="yes"/>
      <point x="183" y="333"/>
      <point x="188" y="327"/>
      <point x="188" y="309" type="curve" smooth="yes"/>
      <point x="188" y="281"/>
      <point x="159" y="186"/>
    </contour>
  </outline>
</glyph>
<glyph name="uni1206" format="2">
  <advance width="920"/>
  <unicode hex="1206"/>
  <outline>
    <contour>
      <point x="704" y="585" type="curve" smooth="yes"/>
      <point x="741" y="585"/>
      <point x="770" y="559"/>
      <point x="770" y="518" type="curve" smooth="yes"/>
      <point x="770" y="464"/>
      <point x="739" y="419"/>
      <point x="682" y="419" type="curve" smooth="yes"/>
      <point x="635" y="419"/>
      <point x="591" y="444"/>
      <point x="591" y="502" type="curve" smooth="yes"/>
      <point x="591" y="548"/>
      <point x="633" y="585"/>
    </contour>
    <contour>
      <point x="531" y="547" type="curve" smooth="yes"/>
      <point x="510" y="477"/>
      <point x="446" y="218"/>
      <point x="388" y="160" type="curve" smooth="yes"/>
      <point x="349" y="121"/>
      <point x="308" y="99"/>
      <point x="258" y="99" type="curve" smooth="yes"/>
      <point x="215" y="99"/>
      <point x="190" y="117"/>
      <point x="190" y="164" type="curve" smooth="yes"/>
      <point x="190" y="232"/>
      <point x="219" y="392"/>
      <point x="251" y="514" type="curve"/>
      <point x="267" y="520"/>
      <point x="276" y="530"/>
      <point x="276" y="547" type="curve" smooth="yes"/>
      <point x="276" y="578"/>
      <point x="217" y="609"/>
      <point x="173" y="609" type="curve" smooth="yes"/>
      <point x="145" y="609"/>
      <point x="133" y="584"/>
      <point x="139" y="565" type="curve"/>
      <point x="163" y="557"/>
      <point x="175" y="547"/>
      <point x="175" y="522" type="curve" smooth="yes"/>
      <point x="175" y="464"/>
      <point x="114" y="235"/>
      <point x="114" y="144" type="curve" smooth="yes"/>
      <point x="114" y="62"/>
      <point x="168" y="32"/>
      <point x="224" y="32" type="curve" smooth="yes"/>
      <point x="280" y="32"/>
      <point x="343" y="56"/>
      <point x="399" y="103" type="curve"/>
      <point x="406" y="98"/>
      <point x="417" y="94"/>
      <point x="428" y="94" type="curve" smooth="yes"/>
      <point x="448" y="94"/>
      <point x="460" y="102"/>
      <point x="480" y="153" type="curve" smooth="yes"/>
      <point x="533" y="286"/>
      <point x="567" y="404"/>
      <point x="584" y="464" type="curve"/>
      <point x="560" y="407" type="line"/>
      <point x="589" y="386"/>
      <point x="636" y="360"/>
      <point x="688" y="360" type="curve" smooth="yes"/>
      <point x="783" y="360"/>
      <point x="848" y="446"/>
      <point x="848" y="529" type="curve" smooth="yes"/>
      <point x="848" y="590"/>
      <point x="798" y="640"/>
      <point x="713" y="640" type="curve" smooth="yes"/>
      <point x="617" y="640"/>
      <point x="547" y="601"/>
    </contour>
  </outline>
</glyph>
<glyph name="uni120E" format="2">
  <advance width="1069"/>
  <unicode hex="120E"/>
  <outline>
    <contour>
      <point x="1000" y="473" type="curve" smooth="yes"/>
      <point x="1000" y="518"/>
      <point x="961" y="560"/>
      <point x="877" y="560" type="curve" smooth="yes"/>
      <point x="791" y="560"/>
      <point x="664" y="537"/>
      <point x="567" y="512" type="curve"/>
      <point x="588" y="461" type="line"/>
      <point x="610" y="467"/>
      <point x="632" y="473"/>
      <point x="682" y="485" type="curve"/>
      <point x="654" y="506" type="line"/>
      <point x="688" y="342"/>
      <point x="769" y="294"/>
      <point x="833" y="294" type="curve" smooth="yes"/>
      <point x="909" y="294"/>
      <point x="1000" y="385"/>
    </contour>
    <contour>
      <point x="841" y="510" type="curve" smooth="yes"/>
      <point x="902" y="510"/>
      <point x="914" y="491"/>
      <point x="914" y="469" type="curve" smooth="yes"/>
      <point x="914" y="412"/>
      <point x="861" y="363"/>
      <point x="835" y="363" type="curve" smooth="yes"/>
      <point x="791" y="363"/>
      <point x="734" y="424"/>
      <point x="734" y="472" type="curve" smooth="yes"/>
      <point x="734" y="499"/>
      <point x="792" y="510"/>
    </contour>
    <contour>
      <point x="366" y="531" type="curve"/>
      <point x="378" y="535"/>
      <point x="406" y="542"/>
      <point x="430" y="533" type="curve"/>
      <point x="392" y="570" type="line"/>
      <point x="196" y="494"/>
      <point x="92" y="288"/>
      <point x="92" y="48" type="curve" smooth="yes"/>
      <point x="92" y="10"/>
      <point x="115" y="-5"/>
      <point x="141" y="-5" type="curve" smooth="yes"/>
      <point x="157" y="-5"/>
      <point x="174" y="0"/>
      <point x="184" y="8" type="curve"/>
      <point x="180" y="18"/>
      <point x="176" y="43"/>
      <point x="176" y="62" type="curve" smooth="yes"/>
      <point x="176" y="353"/>
      <point x="326" y="524"/>
      <point x="441" y="524" type="curve" smooth="yes"/>
      <point x="482" y="524"/>
      <point x="556" y="464"/>
      <point x="556" y="369" type="curve" smooth="yes"/>
      <point x="556" y="276"/>
      <point x="525" y="136"/>
      <point x="525" y="46" type="curve" smooth="yes"/>
      <point x="525" y="11"/>
      <point x="543" y="-7"/>
      <point x="572" y="-7" type="curve" smooth="yes"/>
      <point x="594" y="-7"/>
      <point x="609" y="1"/>
      <point x="622" y="13" type="curve"/>
      <point x="588" y="95"/>
      <point x="634" y="275"/>
      <point x="634" y="379" type="curve" smooth="yes"/>
      <point x="634" y="531"/>
      <point x="502" y="607"/>
      <point x="411" y="607" type="curve" smooth="yes"/>
      <point x="368" y="607"/>
      <point x="354" y="589"/>
      <point x="354" y="563" type="curve" smooth="yes"/>
      <point x="354" y="553"/>
      <point x="358" y="539"/>
    </contour>
  </outline>
</glyph>
<glyph name="uni1212" format="2">
  <advance width="1109"/>
  <unicode hex="1212"/>
  <outline>
    <contour>
      <point x="774" y="78" type="curve" smooth="yes"/>
      <point x="774" y="141"/>
      <point x="810" y="305"/>
      <point x="810" y="369" type="curve" smooth="yes"/>
      <point x="810" y="416"/>
      <point x="785" y="433"/>
      <point x="744" y="433" type="curve" smooth="yes"/>
      <point x="702" y="433"/>
      <point x="456" y="417"/>
      <point x="317" y="400" type="curve"/>
      <point x="309" y="406"/>
      <point x="301" y="410"/>
      <point x="289" y="410" type="curve" smooth="yes"/>
      <point x="237" y="410"/>
      <point x="74" y="167"/>
      <point x="74" y="37" type="curve" smooth="yes"/>
      <point x="74" y="10"/>
      <point x="89" y="-5"/>
      <point x="118" y="-5" type="curve" smooth="yes"/>
      <point x="137" y="-5"/>
      <point x="152" y="-2"/>
      <point x="166" y="3" type="curve"/>
      <point x="165" y="13"/>
      <point x="164" y="22"/>
      <point x="164" y="37" type="curve" smooth="yes"/>
      <point x="164" y="189"/>
      <point x="261" y="324"/>
      <point x="305" y="346" type="curve" smooth="yes"/>
      <point x="358" y="371"/>
      <point x="577" y="379"/>
      <point x="696" y="379" type="curve" smooth="yes"/>
      <point x="723" y="379"/>
      <point x="734" y="366"/>
      <point x="734" y="335" type="curve" smooth="yes"/>
      <point x="734" y="248"/>
      <point x="693" y="90"/>
      <point x="693" y="51" type="curve" smooth="yes"/>
      <point x="693" y="14"/>
      <point x="718" y="-8"/>
      <point x="760" y="-8" type="curve" smooth="yes"/>
      <point x="790" y="-8"/>
      <point x="867" y="8"/>
      <point x="958" y="28" type="curve"/>
      <point x="952" y="51" type="line"/>
      <point x="951" y="-25"/>
      <point x="971" y="-49"/>
      <point x="1026" y="-49" type="curve" smooth="yes"/>
      <point x="1039" y="-49"/>
      <point x="1057" y="-47"/>
      <point x="1069" y="-43" type="curve"/>
      <point x="1060" y="-19"/>
      <point x="1056" y="24"/>
      <point x="1059" y="51" type="curve"/>
      <point x="1026" y="63"/>
      <point x="981" y="74"/>
      <point x="971" y="74" type="curve" smooth="yes"/>
      <point x="941" y="74"/>
      <point x="850" y="47"/>
      <point x="817" y="47" type="curve" smooth="yes"/>
      <point x="788" y="47"/>
      <point x="774" y="54"/>
    </contour>
    <contour>
      <point x="352" y="12" type="curve"/>
      <point x="398" y="16"/>
      <point x="461" y="15"/>
      <point x="491" y="8" type="curve"/>
      <point x="509" y="31"/>
      <point x="505" y="68"/>
      <point x="458" y="68" type="curve" smooth="yes"/>
      <point x="418" y="68"/>
      <point x="378" y="65"/>
      <point x="358" y="60" type="curve"/>
      <point x="347" y="50"/>
      <point x="345" y="23"/>
    </contour>
    <contour>
      <point x="479" y="49" type="line"/>
      <point x="495" y="230"/>
      <point x="595" y="484"/>
      <point x="615" y="536" type="curve"/>
      <point x="634" y="541"/>
      <point x="648" y="547"/>
      <point x="648" y="562" type="curve" smooth="yes"/>
      <point x="648" y="592"/>
      <point x="583" y="627"/>
      <point x="537" y="627" type="curve" smooth="yes"/>
      <point x="506" y="627"/>
      <point x="494" y="605"/>
      <point x="500" y="585" type="curve"/>
      <point x="526" y="577"/>
      <point x="536" y="568"/>
      <point x="536" y="549" type="curve" smooth="yes"/>
      <point x="536" y="473"/>
      <point x="394" y="124"/>
      <point x="388" y="39" type="curve"/>
    </contour>
  </outline>
</glyph>
<glyph name="uni1217" format="2">
  <advance width="956"/>
  <unicode hex="1217"/>
  <outline>
    <contour>
      <point x="452" y="158" type="curve"/>
      <point x="441" y="273"/>
      <point x="509" y="435"/>
      <point x="552" y="536" type="curve"/>
      <point x="571" y="541"/>
      <point x="585" y="547"/>
      <point x="585" y="562" type="curve" smooth="yes"/>
      <point x="585" y="592"/>
      <point x="520" y="627"/>
      <point x="474" y="627" type="curve" smooth="yes"/>
      <point x="443" y="627"/>
      <point x="431" y="605"/>
      <point x="437" y="585" type="curve"/>
      <point x="463" y="577"/>
      <point x="473" y="568"/>
      <point x="473" y="549" type="curve" smooth="yes"/>
      <point x="473" y="473"/>
      <point x="359" y="235"/>
      <point x="359" y="165" type="curve" smooth="yes"/>
      <point x="359" y="145"/>
      <point x="372" y="134"/>
      <point x="400" y="134" type="curve" smooth="yes"/>
      <point x="419" y="134"/>
      <point x="435" y="139"/>
    </contour>
    <contour>
      <point x="181" y="410"/>
      <point x="69" y="252"/>
      <point x="69" y="167" type="curve" smooth="yes"/>
      <point x="69" y="140"/>
      <point x="84" y="125"/>
      <point x="113" y="125" type="curve" smooth="yes"/>
      <point x="132" y="125"/>
      <point x="147" y="128"/>
      <point x="161" y="133" type="curve"/>
      <point x="160" y="143"/>
      <point x="159" y="152"/>
      <point x="159" y="167" type="curve" smooth="yes"/>
      <point x="159" y="220"/>
      <point x="199" y="321"/>
      <point x="242" y="346" type="curve" smooth="yes"/>
      <point x="295" y="371"/>
      <point x="514" y="379"/>
      <point x="633" y="379" type="curve" smooth="yes"/>
      <point x="660" y="379"/>
      <point x="671" y="366"/>
      <point x="671" y="335" type="curve" smooth="yes"/>
      <point x="671" y="245"/>
      <point x="633" y="82"/>
      <point x="633" y="42" type="curve" smooth="yes"/>
      <point x="633" y="20"/>
      <point x="645" y="7"/>
      <point x="670" y="7" type="curve" smooth="yes"/>
      <point x="690" y="7"/>
      <point x="707" y="15"/>
      <point x="718" y="27" type="curve"/>
      <point x="701" y="114"/>
      <point x="747" y="294"/>
      <point x="747" y="369" type="curve" smooth="yes"/>
      <point x="747" y="416"/>
      <point x="722" y="433"/>
      <point x="681" y="433" type="curve" smooth="yes"/>
      <point x="639" y="433"/>
      <point x="393" y="417"/>
      <point x="254" y="400" type="curve"/>
      <point x="246" y="406"/>
      <point x="238" y="410"/>
      <point x="226" y="410" type="curve" smooth="yes"/>
    </contour>
    <contour>
      <point x="520" y="-16" type="curve"/>
      <point x="564" y="-12"/>
      <point x="738" y="3"/>
      <point x="810" y="8" type="curve"/>
      <point x="804" y="31" type="line"/>
      <point x="803" y="-45"/>
      <point x="823" y="-69"/>
      <point x="878" y="-69" type="curve" smooth="yes"/>
      <point x="891" y="-69"/>
      <point x="909" y="-67"/>
      <point x="921" y="-63" type="curve"/>
      <point x="912" y="-39"/>
      <point x="908" y="4"/>
      <point x="911" y="31" type="curve"/>
      <point x="878" y="43"/>
      <point x="833" y="54"/>
      <point x="823" y="54" type="curve" smooth="yes"/>
      <point x="796" y="54"/>
      <point x="575" y="36"/>
      <point x="507" y="30" type="curve"/>
      <point x="442" y="38"/>
      <point x="406" y="1"/>
      <point x="406" y="-48" type="curve" smooth="yes"/>
      <point x="406" y="-78"/>
      <point x="427" y="-99"/>
      <point x="465" y="-99" type="curve" smooth="yes"/>
      <point x="476" y="-99"/>
      <point x="489" y="-97"/>
      <point x="503" y="-93" type="curve"/>
      <point x="499" y="-65"/>
      <point x="506" y="-30"/>
    </contour>
  </outline>
</glyph>
<glyph name="uni1219" format="2">
  <advance width="1119"/>
  <unicode hex="1219"/>
  <outline>
    <contour>
      <point x="545" y="515" type="curve" smooth="yes"/>
      <point x="386" y="515"/>
      <point x="162" y="433"/>
      <point x="123" y="387" type="curve" smooth="yes"/>
      <point x="92" y="351"/>
      <point x="74" y="294"/>
      <point x="74" y="261" type="curve" smooth="yes"/>
      <point x="74" y="212"/>
      <point x="91" y="185"/>
      <point x="175" y="133" type="curve" smooth="yes"/>
      <point x="223" y="103"/>
      <point x="314" y="59"/>
      <point x="352" y="59" type="curve" smooth="yes"/>
      <point x="374" y="59"/>
      <point x="390" y="86"/>
      <point x="391" y="123" type="curve"/>
      <point x="368" y="129" type="line"/>
      <point x="429" y="250"/>
      <point x="460" y="330"/>
      <point x="503" y="404" type="curve"/>
      <point x="460" y="405" type="line"/>
      <point x="502" y="349"/>
      <point x="515" y="289"/>
      <point x="523" y="122" type="curve"/>
      <point x="542" y="113"/>
      <point x="575" y="117"/>
      <point x="591" y="128" type="curve" smooth="yes"/>
      <point x="600" y="134"/>
      <point x="605" y="144"/>
      <point x="599" y="164" type="curve"/>
      <point x="752" y="237"/>
      <point x="842" y="320"/>
      <point x="842" y="393" type="curve" smooth="yes"/>
      <point x="842" y="448"/>
      <point x="637" y="515"/>
    </contour>
    <contour>
      <point x="147" y="284" type="curve" smooth="yes"/>
      <point x="147" y="364"/>
      <point x="291" y="430"/>
      <point x="442" y="454" type="curve"/>
      <point x="373" y="286"/>
      <point x="310" y="160"/>
      <point x="288" y="160" type="curve" smooth="yes"/>
      <point x="239" y="160"/>
      <point x="147" y="204"/>
    </contour>
    <contour>
      <point x="547" y="419" type="curve" smooth="yes"/>
      <point x="547" y="440"/>
      <point x="554" y="453"/>
      <point x="575" y="453" type="curve" smooth="yes"/>
      <point x="636" y="453"/>
      <point x="763" y="408"/>
      <point x="763" y="361" type="curve" smooth="yes"/>
      <point x="763" y="319"/>
      <point x="706" y="268"/>
      <point x="588" y="226" type="curve"/>
      <point x="558" y="328"/>
      <point x="547" y="399"/>
    </contour>
    <contour>
      <point x="792" y="383" type="line"/>
      <point x="834" y="394"/>
      <point x="918" y="411"/>
      <point x="956" y="416" type="curve"/>
      <point x="950" y="439" type="line"/>
      <point x="946" y="363"/>
      <point x="968" y="339"/>
      <point x="1019" y="339" type="curve" smooth="yes"/>
      <point x="1032" y="339"/>
      <point x="1050" y="341"/>
      <point x="1062" y="345" type="curve"/>
      <point x="1053" y="369"/>
      <point x="1049" y="412"/>
      <point x="1052" y="439" type="curve"/>
      <point x="1021" y="450"/>
      <point x="978" y="462"/>
      <point x="969" y="462" type="curve" smooth="yes"/>
      <point x="946" y="462"/>
      <point x="832" y="436"/>
      <point x="791" y="430" type="curve"/>
    </contour>
  </outline>
</glyph>
<glyph name="uni121A" format="2">
  <advance width="925"/>
  <unicode hex="121A"/>
  <outline>
    <contour>
      <point x="147" y="404" type="curve" smooth="yes"/>
      <point x="147" y="484"/>
      <point x="291" y="550"/>
      <point x="442" y="574" type="curve"/>
      <point x="373" y="406"/>
      <point x="310" y="280"/>
      <point x="288" y="280" type="curve" smooth="yes"/>
      <point x="239" y="280"/>
      <point x="147" y="324"/>
    </contour>
    <contour>
      <point x="757" y="492" type="curve" smooth="yes"/>
      <point x="757" y="460"/>
      <point x="686" y="388"/>
      <point x="612" y="299" type="curve"/>
      <point x="574" y="429"/>
      <point x="547" y="514"/>
      <point x="547" y="539" type="curve" smooth="yes"/>
      <point x="547" y="560"/>
      <point x="554" y="573"/>
      <point x="575" y="573" type="curve" smooth="yes"/>
      <point x="635" y="573"/>
      <point x="757" y="527"/>
    </contour>
    <contour>
      <point x="566" y="78" type="curve" smooth="yes"/>
      <point x="566.0" y="198.0"/>
      <point x="841.0" y="433.28909952606637"/>
      <point x="841" y="509" type="curve" smooth="yes"/>
      <point x="841" y="565"/>
      <point x="637" y="635"/>
      <point x="545" y="635" type="curve" smooth="yes"/>
      <point x="386" y="635"/>
      <point x="162" y="553"/>
      <point x="123" y="507" type="curve" smooth="yes"/>
      <point x="92" y="471"/>
      <point x="74" y="414"/>
      <point x="74" y="381" type="curve" smooth="yes"/>
      <point x="74" y="332"/>
      <point x="91" y="305"/>
      <point x="175" y="253" type="curve" smooth="yes"/>
      <point x="223" y="223"/>
      <point x="314" y="179"/>
      <point x="352" y="179" type="curve" smooth="yes"/>
      <point x="374" y="179"/>
      <point x="390" y="206"/>
      <point x="391" y="243" type="curve"/>
      <point x="368" y="249" type="line"/>
      <point x="429" y="370"/>
      <point x="460" y="450"/>
      <point x="503" y="524" type="curve"/>
      <point x="460" y="525" type="line"/>
      <point x="502" y="469"/>
      <point x="515" y="409"/>
      <point x="523" y="242" type="curve"/>
      <point x="539" y="237"/>
      <point x="560" y="240"/>
      <point x="579" y="247" type="curve"/>
      <point x="526.4956180694785" y="179.6358873344252"/>
      <point x="481.0" y="106"/>
      <point x="481" y="51" type="curve" smooth="yes"/>
      <point x="481.0" y="14.0"/>
      <point x="506" y="-8"/>
      <point x="548" y="-8" type="curve" smooth="yes"/>
      <point x="578" y="-8"/>
      <point x="655" y="8"/>
      <point x="746" y="28" type="curve"/>
      <point x="740" y="51" type="line"/>
      <point x="739" y="-25"/>
      <point x="759" y="-49"/>
      <point x="814" y="-49" type="curve" smooth="yes"/>
      <point x="827" y="-49"/>
      <point x="845" y="-47"/>
      <point x="857" y="-43" type="curve"/>
      <point x="848" y="-19"/>
      <point x="844" y="24"/>
      <point x="847" y="51" type="curve"/>
      <point x="814" y="63"/>
      <point x="769" y="74"/>
      <point x="759" y="74" type="curve" smooth="yes"/>
      <point x="729" y="74"/>
      <point x="638" y="47"/>
      <point x="605" y="47" type="curve" smooth="yes"/>
      <point x="579" y="47"/>
      <point x="566" y="54"/>
    </contour>
  </outline>
</glyph>
<glyph name="uni1220" format="2">
  <advance width="952"/>
  <unicode hex="1220"/>
  <outline>
    <contour>
      <point x="472" y="470" type="line"/>
      <point x="472" y="368"/>
      <point x="393" y="169"/>
      <point x="267" y="169" type="curve" smooth="yes"/>
      <point x="212" y="169"/>
      <point x="181" y="199"/>
      <point x="181" y="256" type="curve" smooth="yes"/>
      <point x="181" y="304"/>
      <point x="190" y="357"/>
      <point x="211" y="438" type="curve"/>
      <point x="225" y="446"/>
      <point x="238" y="457"/>
      <point x="238" y="472" type="curve" smooth="yes"/>
      <point x="238" y="501"/>
      <point x="172" y="530"/>
      <point x="124" y="536" type="curve"/>
      <point x="108" y="526"/>
      <point x="102" y="513"/>
      <point x="102" y="501" type="curve" smooth="yes"/>
      <point x="102" y="481"/>
      <point x="117" y="469"/>
      <point x="135" y="463" type="curve"/>
      <point x="135" y="409"/>
      <point x="102" y="287"/>
      <point x="102" y="229" type="curve" smooth="yes"/>
      <point x="102" y="152"/>
      <point x="144" y="118"/>
      <point x="218" y="118" type="curve" smooth="yes"/>
      <point x="280" y="118"/>
      <point x="350" y="141"/>
      <point x="377" y="158" type="curve"/>
      <point x="387" y="152"/>
      <point x="399" y="148"/>
      <point x="413" y="148" type="curve" smooth="yes"/>
      <point x="444" y="148"/>
      <point x="456" y="162"/>
      <point x="469" y="188" type="curve" smooth="yes"/>
      <point x="486" y="222"/>
      <point x="557" y="452"/>
      <point x="557" y="485" type="curve" smooth="yes"/>
      <point x="557" y="518"/>
      <point x="534" y="535"/>
      <point x="507" y="535" type="curve" smooth="yes"/>
      <point x="480" y="535"/>
      <point x="463" y="523"/>
      <point x="455" y="511" type="curve"/>
      <point x="465" y="351"/>
      <point x="577" y="184"/>
      <point x="704" y="184" type="curve"/>
      <point x="691" y="206" type="line"/>
      <point x="670" y="178"/>
      <point x="667" y="174"/>
      <point x="664" y="170" type="curve"/>
      <point x="668" y="153"/>
      <point x="686" y="139"/>
      <point x="711" y="139" type="curve" smooth="yes"/>
      <point x="729" y="139"/>
      <point x="750" y="146"/>
      <point x="769" y="184" type="curve" smooth="yes"/>
      <point x="789" y="224"/>
      <point x="870" y="428"/>
      <point x="870" y="496" type="curve" smooth="yes"/>
      <point x="870" y="539"/>
      <point x="848" y="555"/>
      <point x="816" y="555" type="curve" smooth="yes"/>
      <point x="788" y="555"/>
      <point x="764" y="535"/>
      <point x="759" y="507" type="curve"/>
      <point x="773" y="500"/>
      <point x="780" y="480"/>
      <point x="780" y="450" type="curve" smooth="yes"/>
      <point x="780" y="354"/>
      <point x="736" y="247"/>
      <point x="675" y="247" type="curve" smooth="yes"/>
      <point x="627" y="247"/>
      <point x="537" y="315"/>
      <point x="513" y="469" type="curve"/>
    </contour>
  </outline>
</glyph>
<glyph name="uni1224" format="2">
  <advance width="1030"/>
  <unicode hex="1224"/>
  <outline>
    <contour>
      <point x="765" y="196" type="curve" smooth="yes"/>
      <point x="808" y="196"/>
      <point x="865" y="156"/>
      <point x="865" y="107" type="curve" smooth="yes"/>
      <point x="865" y="78"/>
      <point x="838" y="43"/>
      <point x="787" y="43" type="curve" smooth="yes"/>
      <point x="736" y="43"/>
      <point x="706" y="64"/>
      <point x="706" y="110" type="curve" smooth="yes"/>
      <point x="706" y="145"/>
      <point x="724" y="196"/>
    </contour>
    <contour>
      <point x="742" y="196" type="line"/>
      <point x="794" y="311"/>
      <point x="890" y="491"/>
      <point x="890" y="576" type="curve" smooth="yes"/>
      <point x="890" y="619"/>
      <point x="868" y="635"/>
      <point x="836" y="635" type="curve" smooth="yes"/>
      <point x="808" y="635"/>
      <point x="784" y="615"/>
      <point x="779" y="587" type="curve"/>
      <point x="793" y="580"/>
      <point x="800" y="560"/>
      <point x="800" y="530" type="curve" smooth="yes"/>
      <point x="800" y="474"/>
      <point x="748" y="339"/>
      <point x="680" y="339" type="curve"/>
      <point x="632" y="339"/>
      <point x="537" y="395"/>
      <point x="513" y="549" type="curve"/>
      <point x="472" y="550" type="line"/>
      <point x="472" y="448"/>
      <point x="393" y="249"/>
      <point x="267" y="249" type="curve" smooth="yes"/>
      <point x="212" y="249"/>
      <point x="181" y="279"/>
      <point x="181" y="336" type="curve" smooth="yes"/>
      <point x="181" y="384"/>
      <point x="190" y="437"/>
      <point x="211" y="518" type="curve"/>
      <point x="225" y="526"/>
      <point x="238" y="537"/>
      <point x="238" y="552" type="curve" smooth="yes"/>
      <point x="238" y="581"/>
      <point x="172" y="610"/>
      <point x="124" y="616" type="curve"/>
      <point x="108" y="606"/>
      <point x="102" y="593"/>
      <point x="102" y="581" type="curve" smooth="yes"/>
      <point x="102" y="561"/>
      <point x="117" y="549"/>
      <point x="135" y="543" type="curve"/>
      <point x="135" y="489"/>
      <point x="102" y="367"/>
      <point x="102" y="309" type="curve" smooth="yes"/>
      <point x="102" y="232"/>
      <point x="144" y="198"/>
      <point x="218" y="198" type="curve" smooth="yes"/>
      <point x="280" y="198"/>
      <point x="350" y="221"/>
      <point x="377" y="238" type="curve"/>
      <point x="387" y="232"/>
      <point x="399" y="228"/>
      <point x="413" y="228" type="curve" smooth="yes"/>
      <point x="444" y="228"/>
      <point x="456" y="242"/>
      <point x="469" y="268" type="curve" smooth="yes"/>
      <point x="486" y="302"/>
      <point x="557" y="532"/>
      <point x="557" y="565" type="curve" smooth="yes"/>
      <point x="557" y="598"/>
      <point x="534" y="615"/>
      <point x="507" y="615" type="curve" smooth="yes"/>
      <point x="480" y="615"/>
      <point x="463" y="603"/>
      <point x="455" y="591" type="curve"/>
      <point x="465" y="431"/>
      <point x="578" y="264"/>
      <point x="721" y="264" type="curve"/>
      <point x="711" y="286" type="line"/>
      <point x="659" y="194"/>
      <point x="620" y="142"/>
      <point x="620" y="94" type="curve" smooth="yes"/>
      <point x="620" y="13"/>
      <point x="708" y="-11"/>
      <point x="785" y="-11" type="curve" smooth="yes"/>
      <point x="886" y="-11"/>
      <point x="949" y="48"/>
      <point x="949" y="116" type="curve" smooth="yes"/>
      <point x="949" y="188"/>
      <point x="852" y="258"/>
      <point x="709" y="241" type="curve"/>
    </contour>
  </outline>
</glyph>
<glyph name="uni1225" format="2">
  <advance width="991"/>
  <unicode hex="1225"/>
  <outline>
    <contour>
      <point x="187" y="39" type="curve"/>
      <point x="176" y="44"/>
      <point x="169" y="53"/>
      <point x="170" y="78" type="curve" smooth="yes"/>
      <point x="173" y="142"/>
      <point x="299" y="431"/>
      <point x="299" y="548" type="curve" smooth="yes"/>
      <point x="299" y="580"/>
      <point x="279" y="595"/>
      <point x="248" y="595" type="curve" smooth="yes"/>
      <point x="214" y="595"/>
      <point x="193" y="575"/>
      <point x="188" y="547" type="curve"/>
      <point x="202" y="542"/>
      <point x="210" y="532"/>
      <point x="210" y="514" type="curve" smooth="yes"/>
      <point x="210" y="348"/>
      <point x="77" y="134"/>
      <point x="77" y="49" type="curve" smooth="yes"/>
      <point x="77" y="15"/>
      <point x="99" y="-7"/>
      <point x="133" y="-7" type="curve" smooth="yes"/>
      <point x="158" y="-7"/>
      <point x="180" y="5"/>
    </contour>
    <contour>
      <point x="181" y="280" type="line"/>
      <point x="194" y="242"/>
      <point x="235" y="218"/>
      <point x="293" y="218" type="curve" smooth="yes"/>
      <point x="352" y="218"/>
      <point x="400" y="241"/>
      <point x="427" y="258" type="curve"/>
      <point x="437" y="252"/>
      <point x="449" y="248"/>
      <point x="463" y="248" type="curve" smooth="yes"/>
      <point x="494" y="248"/>
      <point x="506" y="262"/>
      <point x="519" y="288" type="curve" smooth="yes"/>
      <point x="535" y="319"/>
      <point x="597" y="534"/>
      <point x="597" y="565" type="curve" smooth="yes"/>
      <point x="597" y="598"/>
      <point x="574" y="615"/>
      <point x="547" y="615" type="curve" smooth="yes"/>
      <point x="520" y="615"/>
      <point x="503" y="603"/>
      <point x="495" y="591" type="curve"/>
      <point x="505" y="431"/>
      <point x="617" y="264"/>
      <point x="744" y="264" type="curve"/>
      <point x="731" y="286" type="line"/>
      <point x="710" y="258"/>
      <point x="707" y="254"/>
      <point x="704" y="250" type="curve"/>
      <point x="708" y="233"/>
      <point x="726" y="219"/>
      <point x="751" y="219" type="curve" smooth="yes"/>
      <point x="769" y="219"/>
      <point x="790" y="226"/>
      <point x="809" y="264" type="curve" smooth="yes"/>
      <point x="829" y="304"/>
      <point x="910" y="508"/>
      <point x="910" y="576" type="curve" smooth="yes"/>
      <point x="910" y="619"/>
      <point x="888" y="635"/>
      <point x="856" y="635" type="curve" smooth="yes"/>
      <point x="828" y="635"/>
      <point x="804" y="615"/>
      <point x="799" y="587" type="curve"/>
      <point x="813" y="580"/>
      <point x="820" y="560"/>
      <point x="820" y="530" type="curve" smooth="yes"/>
      <point x="820" y="434"/>
      <point x="776" y="327"/>
      <point x="715" y="327" type="curve" smooth="yes"/>
      <point x="667" y="327"/>
      <point x="577" y="395"/>
      <point x="553" y="549" type="curve"/>
      <point x="512" y="550" type="line"/>
      <point x="512" y="439"/>
      <point x="443" y="272"/>
      <point x="317" y="272" type="curve" smooth="yes"/>
      <point x="274" y="272"/>
      <point x="234" y="292"/>
      <point x="219" y="329" type="curve"/>
    </contour>
  </outline>
</glyph>
<glyph name="uni1246" format="2">
  <advance width="789"/>
  <unicode hex="1246"/>
  <outline>
    <contour>
      <point x="725" y="336" type="curve" smooth="yes"/>
      <point x="725" y="390"/>
      <point x="690" y="433"/>
      <point x="524" y="433" type="curve" smooth="yes"/>
      <point x="396" y="433"/>
      <point x="223" y="405"/>
      <point x="136" y="364" type="curve" smooth="yes"/>
      <point x="96" y="345"/>
      <point x="70" y="275"/>
      <point x="70" y="212" type="curve" smooth="yes"/>
      <point x="70" y="148"/>
      <point x="188" y="125"/>
      <point x="365" y="125" type="curve"/>
      <point x="364" y="176" type="line"/>
      <point x="234" y="182"/>
      <point x="159" y="198"/>
      <point x="159" y="244" type="curve" smooth="yes"/>
      <point x="159" y="324"/>
      <point x="236" y="383"/>
      <point x="481" y="383" type="curve" smooth="yes"/>
      <point x="607" y="383"/>
      <point x="634" y="360"/>
      <point x="634" y="322" type="curve" smooth="yes"/>
      <point x="634" y="266"/>
      <point x="555" y="205"/>
      <point x="378" y="184" type="curve"/>
      <point x="388" y="131" type="line"/>
      <point x="521" y="157"/>
      <point x="589" y="190"/>
      <point x="626" y="215" type="curve" smooth="yes"/>
      <point x="690" y="257"/>
      <point x="725" y="304"/>
    </contour>
    <contour>
      <point x="390" y="-18" type="curve"/>
      <point x="388" y="-8"/>
      <point x="386" y="2"/>
      <point x="386" y="17" type="curve" smooth="yes"/>
      <point x="386" y="100"/>
      <point x="442" y="346"/>
      <point x="463" y="478" type="curve"/>
      <point x="432" y="444" type="line"/>
      <point x="552" y="468"/>
      <point x="610" y="535"/>
      <point x="610" y="584" type="curve" smooth="yes"/>
      <point x="610" y="635"/>
      <point x="541" y="678"/>
      <point x="475" y="678" type="curve" smooth="yes"/>
      <point x="407" y="678"/>
      <point x="349" y="637"/>
      <point x="349" y="575" type="curve" smooth="yes"/>
      <point x="349" y="536"/>
      <point x="363" y="496"/>
      <point x="384" y="458" type="curve"/>
      <point x="378" y="335"/>
      <point x="300" y="49"/>
      <point x="300" y="7" type="curve" smooth="yes"/>
      <point x="300" y="-12"/>
      <point x="310" y="-25"/>
      <point x="329" y="-25" type="curve" smooth="yes"/>
      <point x="355" y="-25"/>
      <point x="370" y="-23"/>
    </contour>
    <contour>
      <point x="424" y="573" type="curve" smooth="yes"/>
      <point x="424" y="601"/>
      <point x="443" y="620"/>
      <point x="479" y="620" type="curve" smooth="yes"/>
      <point x="508" y="620"/>
      <point x="536" y="603"/>
      <point x="536" y="574" type="curve" smooth="yes"/>
      <point x="536" y="541"/>
      <point x="490" y="502"/>
      <point x="461" y="502" type="curve" smooth="yes"/>
      <point x="444" y="502"/>
      <point x="424" y="534"/>
    </contour>
  </outline>
</glyph>
<glyph name="uni124A" format="2">
  <advance width="1166"/>
  <unicode hex="124A"/>
  <outline>
    <contour>
      <point x="482" y="586" type="curve"/>
      <point x="501" y="592"/>
      <point x="512" y="602"/>
      <point x="512" y="614" type="curve" smooth="yes"/>
      <point x="512" y="636"/>
      <point x="450" y="657"/>
      <point x="392" y="657" type="curve" smooth="yes"/>
      <point x="364" y="657"/>
      <point x="352" y="633"/>
      <point x="358" y="615" type="curve"/>
      <point x="384" y="606"/>
      <point x="397" y="598"/>
      <point x="397" y="579" type="curve"/>
      <point x="395" y="443"/>
      <point x="287" y="61"/>
      <point x="287" y="7" type="curve" smooth="yes"/>
      <point x="287" y="-12"/>
      <point x="297" y="-25"/>
      <point x="316" y="-25" type="curve" smooth="yes"/>
      <point x="342" y="-25"/>
      <point x="357" y="-23"/>
      <point x="377" y="-18" type="curve"/>
      <point x="375" y="-8"/>
      <point x="373" y="2"/>
      <point x="373" y="17" type="curve" smooth="yes"/>
      <point x="373" y="130"/>
      <point x="469" y="480"/>
    </contour>
    <contour>
      <point x="760" y="418" type="curve" smooth="yes"/>
      <point x="760" y="472"/>
      <point x="719" y="515"/>
      <point x="525" y="515" type="curve" smooth="yes"/>
      <point x="397" y="515"/>
      <point x="224" y="487"/>
      <point x="137" y="446" type="curve" smooth="yes"/>
      <point x="97" y="427"/>
      <point x="71" y="357"/>
      <point x="71" y="294" type="curve" smooth="yes"/>
      <point x="71" y="225"/>
      <point x="183" y="200"/>
      <point x="352" y="200" type="curve"/>
      <point x="351" y="251" type="line"/>
      <point x="230" y="257"/>
      <point x="160" y="275"/>
      <point x="160" y="326" type="curve" smooth="yes"/>
      <point x="160" y="406"/>
      <point x="237" y="465"/>
      <point x="482" y="465" type="curve" smooth="yes"/>
      <point x="635" y="465"/>
      <point x="668" y="442"/>
      <point x="668" y="404" type="curve" smooth="yes"/>
      <point x="668" y="343"/>
      <point x="577" y="286"/>
      <point x="375" y="253" type="curve"/>
      <point x="385" y="200" type="line"/>
      <point x="536" y="234"/>
      <point x="621" y="269"/>
      <point x="664" y="297" type="curve" smooth="yes"/>
      <point x="727" y="338"/>
      <point x="760" y="386"/>
    </contour>
    <contour>
      <point x="901" y="579"/>
      <point x="830" y="412"/>
      <point x="830" y="301" type="curve" smooth="yes"/>
      <point x="830" y="270"/>
      <point x="841" y="252"/>
      <point x="870" y="252" type="curve" smooth="yes"/>
      <point x="908" y="252"/>
      <point x="967" y="279"/>
      <point x="1027" y="290" type="curve"/>
      <point x="1006" y="307" type="line"/>
      <point x="992" y="240"/>
      <point x="1025" y="213"/>
      <point x="1111" y="227" type="curve"/>
      <point x="1099" y="256"/>
      <point x="1096" y="286"/>
      <point x="1094" y="310" type="curve"/>
      <point x="1072" y="316"/>
      <point x="1050" y="323"/>
      <point x="1031" y="326" type="curve" smooth="yes"/>
      <point x="1012" y="330"/>
      <point x="1003" y="330"/>
      <point x="982" y="324" type="curve" smooth="yes"/>
      <point x="950" y="315"/>
      <point x="924" y="307"/>
      <point x="873" y="297" type="curve"/>
      <point x="926" y="285" type="line"/>
      <point x="917" y="298"/>
      <point x="914" y="305"/>
      <point x="914" y="319" type="curve" smooth="yes"/>
      <point x="914" y="377"/>
      <point x="949" y="494"/>
      <point x="999" y="531" type="curve"/>
      <point x="986" y="557"/>
      <point x="965" y="579"/>
      <point x="939" y="579" type="curve" smooth="yes"/>
    </contour>
    <contour>
      <point x="889" y="445" type="line"/>
      <point x="818" y="425"/>
      <point x="781" y="415"/>
      <point x="716" y="401" type="curve"/>
      <point x="710" y="354" type="line"/>
      <point x="763" y="368"/>
      <point x="832" y="384"/>
      <point x="896" y="392" type="curve"/>
    </contour>
  </outline>
</glyph>
<glyph name="uni124D" format="2">
  <advance width="1077"/>
  <unicode hex="124D"/>
  <outline>
    <contour>
      <point x="482" y="586" type="curve"/>
      <point x="501" y="592"/>
      <point x="512" y="602"/>
      <point x="512" y="614" type="curve" smooth="yes"/>
      <point x="512" y="636"/>
      <point x="450" y="657"/>
      <point x="392" y="657" type="curve" smooth="yes"/>
      <point x="364" y="657"/>
      <point x="352" y="633"/>
      <point x="358" y="615" type="curve"/>
      <point x="384" y="606"/>
      <point x="397" y="598"/>
      <point x="397" y="579" type="curve"/>
      <point x="395" y="443"/>
      <point x="287" y="61"/>
      <point x="287" y="7" type="curve" smooth="yes"/>
      <point x="287" y="-12"/>
      <point x="297" y="-25"/>
      <point x="316" y="-25" type="curve" smooth="yes"/>
      <point x="342" y="-25"/>
      <point x="357" y="-23"/>
      <point x="377" y="-18" type="curve"/>
      <point x="375" y="-8"/>
      <point x="373" y="2"/>
      <point x="373" y="17" type="curve" smooth="yes"/>
      <point x="373" y="130"/>
      <point x="469" y="480"/>
    </contour>
    <contour>
      <point x="760" y="418" type="curve" smooth="yes"/>
      <point x="760" y="472"/>
      <point x="719" y="515"/>
      <point x="525" y="515" type="curve" smooth="yes"/>
      <point x="397" y="515"/>
      <point x="224" y="487"/>
      <point x="137" y="446" type="curve" smooth="yes"/>
      <point x="97" y="427"/>
      <point x="71" y="357"/>
      <point x="71" y="294" type="curve" smooth="yes"/>
      <point x="71" y="225"/>
      <point x="183" y="200"/>
      <point x="352" y="200" type="curve"/>
      <point x="351" y="251" type="line"/>
      <point x="230" y="257"/>
      <point x="160" y="275"/>
      <point x="160" y="326" type="curve" smooth="yes"/>
      <point x="160" y="406"/>
      <point x="237" y="465"/>
      <point x="482" y="465" type="curve" smooth="yes"/>
      <point x="635" y="465"/>
      <point x="668" y="442"/>
      <point x="668" y="404" type="curve" smooth="yes"/>
      <point x="668" y="343"/>
      <point x="577" y="286"/>
      <point x="375" y="253" type="curve"/>
      <point x="385" y="200" type="line"/>
      <point x="536" y="234"/>
      <point x="621" y="269"/>
      <point x="664" y="297" type="curve" smooth="yes"/>
      <point x="727" y="338"/>
      <point x="760" y="386"/>
    </contour>
    <contour>
      <point x="831" y="579"/>
      <point x="740" y="460"/>
      <point x="740" y="381" type="curve" smooth="yes"/>
      <point x="740" y="350"/>
      <point x="751" y="332"/>
      <point x="780" y="332" type="curve" smooth="yes"/>
      <point x="818" y="332"/>
      <point x="877" y="359"/>
      <point x="937" y="370" type="curve"/>
      <point x="916" y="387" type="line"/>
      <point x="902" y="320"/>
      <point x="935" y="293"/>
      <point x="1021" y="307" type="curve"/>
      <point x="1009" y="336"/>
      <point x="1006" y="366"/>
      <point x="1004" y="390" type="curve"/>
      <point x="982" y="396"/>
      <point x="960" y="403"/>
      <point x="941" y="406" type="curve" smooth="yes"/>
      <point x="922" y="410"/>
      <point x="913" y="410"/>
      <point x="892" y="404" type="curve" smooth="yes"/>
      <point x="860" y="395"/>
      <point x="834" y="387"/>
      <point x="783" y="377" type="curve"/>
      <point x="835" y="365" type="line"/>
      <point x="826" y="378"/>
      <point x="823" y="385"/>
      <point x="823" y="399" type="curve" smooth="yes"/>
      <point x="823" y="435"/>
      <point x="871" y="511"/>
      <point x="926" y="531" type="curve"/>
      <point x="915" y="565"/>
      <point x="905" y="579"/>
      <point x="879" y="579" type="curve" smooth="yes"/>
    </contour>
  </outline>
</glyph>
<glyph name="uni1264" format="2">
  <advance width="825"/>
  <unicode hex="1264"/>
  <outline>
    <contour>
      <point x="632" y="202"/>
      <point x="677" y="161"/>
      <point x="677" y="119" type="curve" smooth="yes"/>
      <point x="677" y="82"/>
      <point x="658" y="48"/>
      <point x="608" y="48" type="curve" smooth="yes"/>
      <point x="570" y="48"/>
      <point x="534" y="67"/>
      <point x="534" y="118" type="curve" smooth="yes"/>
      <point x="534" y="164"/>
      <point x="541" y="202"/>
      <point x="585" y="202" type="curve" smooth="yes"/>
    </contour>
    <contour>
      <point x="553" y="213" type="line"/>
      <point x="562" y="314"/>
      <point x="631" y="420"/>
      <point x="631" y="512" type="curve" smooth="yes"/>
      <point x="631" y="562"/>
      <point x="589" y="579"/>
      <point x="500" y="588" type="curve" smooth="yes"/>
      <point x="441" y="594"/>
      <point x="363" y="596"/>
      <point x="263" y="596" type="curve" smooth="yes"/>
      <point x="229" y="596"/>
      <point x="215" y="579"/>
      <point x="215" y="556" type="curve" smooth="yes"/>
      <point x="215" y="536"/>
      <point x="225" y="521"/>
      <point x="238" y="515" type="curve"/>
      <point x="245" y="516"/>
      <point x="251" y="517"/>
      <point x="258" y="518" type="curve"/>
      <point x="175" y="369"/>
      <point x="84" y="171"/>
      <point x="84" y="45" type="curve" smooth="yes"/>
      <point x="84" y="7"/>
      <point x="101" y="-5"/>
      <point x="128" y="-5" type="curve" smooth="yes"/>
      <point x="149" y="-5"/>
      <point x="161" y="-2"/>
      <point x="175" y="4" type="curve"/>
      <point x="173" y="14"/>
      <point x="172" y="21"/>
      <point x="172" y="37" type="curve" smooth="yes"/>
      <point x="172" y="172"/>
      <point x="251" y="358"/>
      <point x="325" y="489" type="curve" smooth="yes"/>
      <point x="344" y="523"/>
      <point x="360" y="533"/>
      <point x="396" y="533" type="curve" smooth="yes"/>
      <point x="508" y="533"/>
      <point x="544" y="518"/>
      <point x="544" y="485" type="curve" smooth="yes"/>
      <point x="544" y="384"/>
      <point x="456" y="229"/>
      <point x="456" y="113" type="curve" smooth="yes"/>
      <point x="456" y="20"/>
      <point x="534" y="-11"/>
      <point x="607" y="-11" type="curve" smooth="yes"/>
      <point x="704" y="-11"/>
      <point x="756" y="48"/>
      <point x="756" y="119" type="curve" smooth="yes"/>
      <point x="756" y="191"/>
      <point x="674" y="254"/>
      <point x="582" y="254" type="curve" smooth="yes"/>
      <point x="558" y="254"/>
      <point x="538" y="253"/>
      <point x="513" y="248" type="curve"/>
    </contour>
  </outline>
</glyph>
<glyph name="uni1272" format="2">
  <advance width="728"/>
  <unicode hex="1272"/>
  <outline>
    <contour>
      <point x="234" y="48" type="curve" smooth="yes"/>
      <point x="234" y="14"/>
      <point x="258" y="-8"/>
      <point x="298" y="-8" type="curve" smooth="yes"/>
      <point x="331" y="-8"/>
      <point x="408" y="11"/>
      <point x="469" y="21" type="curve"/>
      <point x="471" y="-38"/>
      <point x="503" y="-64"/>
      <point x="611" y="-45" type="curve"/>
      <point x="605" y="-17"/>
      <point x="603" y="22"/>
      <point x="600" y="42" type="curve" smooth="yes"/>
      <point x="598" y="56"/>
      <point x="593" y="60"/>
      <point x="581" y="63" type="curve" smooth="yes"/>
      <point x="561" y="68"/>
      <point x="541" y="72"/>
      <point x="524" y="75" type="curve" smooth="yes"/>
      <point x="505" y="79"/>
      <point x="496" y="77"/>
      <point x="475" y="73" type="curve" smooth="yes"/>
      <point x="447" y="67"/>
      <point x="378" y="53"/>
      <point x="358" y="53" type="curve" smooth="yes"/>
      <point x="336" y="53"/>
      <point x="327" y="61"/>
      <point x="327" y="87" type="curve" smooth="yes"/>
      <point x="327" y="186"/>
      <point x="448" y="490"/>
      <point x="448" y="586" type="curve"/>
      <point x="467" y="592"/>
      <point x="478" y="602"/>
      <point x="478" y="614" type="curve" smooth="yes"/>
      <point x="478" y="636"/>
      <point x="416" y="657"/>
      <point x="358" y="657" type="curve" smooth="yes"/>
      <point x="330" y="657"/>
      <point x="318" y="633"/>
      <point x="324" y="615" type="curve"/>
      <point x="350" y="606"/>
      <point x="363" y="598"/>
      <point x="363" y="579" type="curve"/>
      <point x="363" y="434"/>
      <point x="234" y="99"/>
    </contour>
    <contour>
      <point x="241" y="362"/>
      <point x="490" y="394"/>
      <point x="607" y="406" type="curve"/>
      <point x="549" y="416" type="line"/>
      <point x="547" y="402"/>
      <point x="545" y="382"/>
      <point x="545" y="356" type="curve" smooth="yes"/>
      <point x="545" y="327"/>
      <point x="559" y="311"/>
      <point x="596" y="311" type="curve" smooth="yes"/>
      <point x="618" y="311"/>
      <point x="639" y="315"/>
      <point x="657" y="328" type="curve"/>
      <point x="646" y="344"/>
      <point x="640" y="367"/>
      <point x="639" y="393" type="curve" smooth="yes"/>
      <point x="638" y="417"/>
      <point x="640" y="446"/>
      <point x="648" y="468" type="curve"/>
      <point x="627" y="477"/>
      <point x="611" y="482"/>
      <point x="590" y="482" type="curve" smooth="yes"/>
      <point x="568" y="482"/>
      <point x="558" y="471"/>
      <point x="553" y="452" type="curve"/>
      <point x="480" y="440"/>
      <point x="234" y="398"/>
      <point x="151" y="390" type="curve"/>
      <point x="82" y="394"/>
      <point x="60" y="334"/>
      <point x="60" y="288" type="curve" smooth="yes"/>
      <point x="60" y="262"/>
      <point x="77" y="247"/>
      <point x="110" y="247" type="curve" smooth="yes"/>
      <point x="133" y="247"/>
      <point x="151" y="251"/>
      <point x="179" y="263" type="curve"/>
      <point x="165" y="295"/>
      <point x="169" y="333"/>
      <point x="196" y="375" type="curve"/>
      <point x="153" y="339" type="line"/>
    </contour>
  </outline>
</glyph>
<glyph name="uni1273" format="2">
  <advance width="748"/>
  <unicode hex="1273"/>
  <outline>
    <contour>
      <point x="279" y="83" type="curve" smooth="yes"/>
      <point x="261" y="43"/>
      <point x="213" y="41"/>
      <point x="109" y="41" type="curve" smooth="yes"/>
      <point x="80" y="41"/>
      <point x="50" y="-12"/>
      <point x="50" y="-53" type="curve" smooth="yes"/>
      <point x="50" y="-85"/>
      <point x="87" y="-104"/>
      <point x="159" y="-93" type="curve"/>
      <point x="160" y="-61"/>
      <point x="172" y="-28"/>
      <point x="185" y="-8" type="curve"/>
      <point x="305" y="0"/>
      <point x="341" y="20"/>
      <point x="371" y="111" type="curve" smooth="yes"/>
      <point x="400" y="198"/>
      <point x="475" y="495"/>
      <point x="475" y="586" type="curve"/>
      <point x="494" y="592"/>
      <point x="505" y="602"/>
      <point x="505" y="614" type="curve" smooth="yes"/>
      <point x="505" y="636"/>
      <point x="443" y="657"/>
      <point x="385" y="657" type="curve" smooth="yes"/>
      <point x="357" y="657"/>
      <point x="345" y="633"/>
      <point x="351" y="615" type="curve"/>
      <point x="377" y="606"/>
      <point x="390" y="598"/>
      <point x="390" y="579" type="curve"/>
      <point x="390" y="443"/>
      <point x="305" y="140"/>
    </contour>
    <contour>
      <point x="268" y="362"/>
      <point x="517" y="394"/>
      <point x="634" y="406" type="curve"/>
      <point x="576" y="416" type="line"/>
      <point x="574" y="402"/>
      <point x="572" y="382"/>
      <point x="572" y="356" type="curve" smooth="yes"/>
      <point x="572" y="327"/>
      <point x="586" y="311"/>
      <point x="623" y="311" type="curve" smooth="yes"/>
      <point x="645" y="311"/>
      <point x="666" y="315"/>
      <point x="684" y="328" type="curve"/>
      <point x="673" y="344"/>
      <point x="667" y="367"/>
      <point x="666" y="393" type="curve" smooth="yes"/>
      <point x="665" y="417"/>
      <point x="667" y="446"/>
      <point x="675" y="468" type="curve"/>
      <point x="654" y="477"/>
      <point x="638" y="482"/>
      <point x="617" y="482" type="curve" smooth="yes"/>
      <point x="595" y="482"/>
      <point x="585" y="471"/>
      <point x="580" y="452" type="curve"/>
      <point x="507" y="440"/>
      <point x="261" y="398"/>
      <point x="178" y="390" type="curve"/>
      <point x="109" y="394"/>
      <point x="87" y="334"/>
      <point x="87" y="288" type="curve" smooth="yes"/>
      <point x="87" y="262"/>
      <point x="104" y="247"/>
      <point x="137" y="247" type="curve" smooth="yes"/>
      <point x="160" y="247"/>
      <point x="178" y="251"/>
      <point x="206" y="263" type="curve"/>
      <point x="192" y="295"/>
      <point x="196" y="333"/>
      <point x="223" y="375" type="curve"/>
      <point x="180" y="339" type="line"/>
    </contour>
  </outline>
</glyph>
<glyph name="uni1274" format="2">
  <advance width="726"/>
  <unicode hex="1274"/>
  <outline>
    <contour>
      <point x="260" y="100" type="curve" smooth="yes"/>
      <point x="260" y="14"/>
      <point x="343" y="-11"/>
      <point x="412" y="-11" type="curve" smooth="yes"/>
      <point x="512" y="-11"/>
      <point x="576" y="47"/>
      <point x="576" y="113" type="curve" smooth="yes"/>
      <point x="576" y="175"/>
      <point x="473" y="213"/>
      <point x="332" y="214" type="curve"/>
      <point x="322" y="165" type="line"/>
      <point x="439" y="170"/>
      <point x="490" y="144"/>
      <point x="490" y="104" type="curve" smooth="yes"/>
      <point x="490" y="76"/>
      <point x="464" y="43"/>
      <point x="414" y="43" type="curve" smooth="yes"/>
      <point x="372" y="43"/>
      <point x="349" y="63"/>
      <point x="349" y="112" type="curve" smooth="yes"/>
      <point x="349" y="182"/>
      <point x="448" y="495"/>
      <point x="448" y="586" type="curve"/>
      <point x="467" y="592"/>
      <point x="478" y="602"/>
      <point x="478" y="614" type="curve" smooth="yes"/>
      <point x="478" y="636"/>
      <point x="416" y="657"/>
      <point x="358" y="657" type="curve" smooth="yes"/>
      <point x="330" y="657"/>
      <point x="318" y="633"/>
      <point x="324" y="615" type="curve"/>
      <point x="350" y="606"/>
      <point x="363" y="598"/>
      <point x="363" y="579" type="curve"/>
      <point x="363" y="451"/>
      <point x="260" y="175"/>
    </contour>
    <contour>
      <point x="241" y="362"/>
      <point x="490" y="394"/>
      <point x="607" y="406" type="curve"/>
      <point x="549" y="416" type="line"/>
      <point x="547" y="402"/>
      <point x="545" y="382"/>
      <point x="545" y="356" type="curve" smooth="yes"/>
      <point x="545" y="327"/>
      <point x="559" y="311"/>
      <point x="596" y="311" type="curve" smooth="yes"/>
      <point x="618" y="311"/>
      <point x="639" y="315"/>
      <point x="657" y="328" type="curve"/>
      <point x="646" y="344"/>
      <point x="640" y="367"/>
      <point x="639" y="393" type="curve" smooth="yes"/>
      <point x="638" y="417"/>
      <point x="640" y="446"/>
      <point x="648" y="468" type="curve"/>
      <point x="627" y="477"/>
      <point x="611" y="482"/>
      <point x="590" y="482" type="curve" smooth="yes"/>
      <point x="568" y="482"/>
      <point x="558" y="471"/>
      <point x="553" y="452" type="curve"/>
      <point x="480" y="440"/>
      <point x="234" y="398"/>
      <point x="151" y="390" type="curve"/>
      <point x="82" y="394"/>
      <point x="60" y="334"/>
      <point x="60" y="288" type="curve" smooth="yes"/>
      <point x="60" y="262"/>
      <point x="77" y="247"/>
      <point x="110" y="247" type="curve" smooth="yes"/>
      <point x="133" y="247"/>
      <point x="151" y="251"/>
      <point x="179" y="263" type="curve"/>
      <point x="165" y="295"/>
      <point x="169" y="333"/>
      <point x="196" y="375" type="curve"/>
      <point x="153" y="339" type="line"/>
    </contour>
  </outline>
</glyph>
<glyph name="uni1277" format="2">
  <advance width="732"/>
  <unicode hex="1277"/>
  <outline>
    <contour>
      <point x="282" y="-4"/>
      <point x="416" y="5"/>
      <point x="513" y="9" type="curve"/>
      <point x="447" y="26" type="line"/>
      <point x="446" y="-44"/>
      <point x="472" y="-72"/>
      <point x="579" y="-54" type="curve"/>
      <point x="573" y="-26"/>
      <point x="571" y="11"/>
      <point x="568" y="31" type="curve" smooth="yes"/>
      <point x="566" y="45"/>
      <point x="561" y="49"/>
      <point x="549" y="52" type="curve" smooth="yes"/>
      <point x="529" y="57"/>
      <point x="509" y="61"/>
      <point x="492" y="64" type="curve" smooth="yes"/>
      <point x="473" y="68"/>
      <point x="464" y="65"/>
      <point x="443" y="62" type="curve" smooth="yes"/>
      <point x="386" y="53"/>
      <point x="221" y="47"/>
      <point x="113" y="41" type="curve" smooth="yes"/>
      <point x="84" y="39"/>
      <point x="55" y="-17"/>
      <point x="55" y="-63" type="curve" smooth="yes"/>
      <point x="55" y="-87"/>
      <point x="93" y="-104"/>
      <point x="163" y="-93" type="curve"/>
      <point x="164" y="-61"/>
      <point x="175" y="-27"/>
      <point x="188" y="-7" type="curve"/>
    </contour>
    <contour>
      <point x="250" y="362"/>
      <point x="499" y="394"/>
      <point x="616" y="406" type="curve"/>
      <point x="558" y="416" type="line"/>
      <point x="556" y="402"/>
      <point x="554" y="382"/>
      <point x="554" y="356" type="curve" smooth="yes"/>
      <point x="554" y="327"/>
      <point x="568" y="311"/>
      <point x="605" y="311" type="curve" smooth="yes"/>
      <point x="627" y="311"/>
      <point x="648" y="315"/>
      <point x="666" y="328" type="curve"/>
      <point x="655" y="344"/>
      <point x="649" y="367"/>
      <point x="648" y="393" type="curve" smooth="yes"/>
      <point x="647" y="417"/>
      <point x="649" y="446"/>
      <point x="657" y="468" type="curve"/>
      <point x="636" y="477"/>
      <point x="620" y="482"/>
      <point x="599" y="482" type="curve" smooth="yes"/>
      <point x="577" y="482"/>
      <point x="567" y="471"/>
      <point x="562" y="452" type="curve"/>
      <point x="489" y="440"/>
      <point x="243" y="398"/>
      <point x="160" y="390" type="curve"/>
      <point x="91" y="394"/>
      <point x="69" y="334"/>
      <point x="69" y="288" type="curve" smooth="yes"/>
      <point x="69" y="262"/>
      <point x="86" y="247"/>
      <point x="119" y="247" type="curve" smooth="yes"/>
      <point x="142" y="247"/>
      <point x="160" y="251"/>
      <point x="188" y="263" type="curve"/>
      <point x="174" y="295"/>
      <point x="178" y="333"/>
      <point x="205" y="375" type="curve"/>
      <point x="162" y="339" type="line"/>
    </contour>
    <contour>
      <point x="457" y="586" type="curve"/>
      <point x="476" y="592"/>
      <point x="487" y="602"/>
      <point x="487" y="614" type="curve" smooth="yes"/>
      <point x="487" y="636"/>
      <point x="425" y="657"/>
      <point x="367" y="657" type="curve" smooth="yes"/>
      <point x="339" y="657"/>
      <point x="327" y="633"/>
      <point x="333" y="615" type="curve"/>
      <point x="359" y="606"/>
      <point x="372" y="598"/>
      <point x="372" y="579" type="curve"/>
      <point x="372" y="431"/>
      <point x="257" y="86"/>
      <point x="257" y="35" type="curve" smooth="yes"/>
      <point x="257" y="16"/>
      <point x="267" y="3"/>
      <point x="286" y="3" type="curve" smooth="yes"/>
      <point x="312" y="3"/>
      <point x="327" y="5"/>
      <point x="347" y="10" type="curve"/>
      <point x="345" y="20"/>
      <point x="343" y="30"/>
      <point x="343" y="45" type="curve" smooth="yes"/>
      <point x="343" y="152"/>
      <point x="457" y="481"/>
    </contour>
  </outline>
</glyph>
<glyph name="uni1280" format="2">
  <advance width="611"/>
  <unicode hex="1280"/>
  <outline>
    <contour>
      <point x="400" y="639" type="curve" smooth="yes"/>
      <point x="381" y="639"/>
      <point x="365" y="634"/>
      <point x="354" y="626" type="curve"/>
      <point x="354" y="562"/>
      <point x="263" y="397"/>
      <point x="263" y="352" type="curve" smooth="yes"/>
      <point x="263" y="332"/>
      <point x="277" y="315"/>
      <point x="308" y="315" type="curve" smooth="yes"/>
      <point x="438" y="315"/>
      <point x="457" y="310"/>
      <point x="457" y="291" type="curve" smooth="yes"/>
      <point x="457" y="207"/>
      <point x="376" y="70"/>
      <point x="347" y="25" type="curve"/>
      <point x="361.34237741887927" y="1.4375228118411982"/>
      <point x="390.50877192982455" y="-5.0"/>
      <point x="409" y="-5" type="curve" smooth="yes"/>
      <point x="422" y="-5"/>
      <point x="434" y="3"/>
      <point x="439" y="19" type="curve" smooth="yes"/>
      <point x="472.0" y="126"/>
      <point x="542.0" y="271.0"/>
      <point x="542" y="303" type="curve" smooth="yes"/>
      <point x="542.0" y="386.0"/>
      <point x="351.0" y="334.0"/>
      <point x="351" y="384" type="curve" smooth="yes"/>
      <point x="351.0" y="430.0"/>
      <point x="431.0" y="576.0"/>
      <point x="431" y="613" type="curve" smooth="yes"/>
      <point x="431.0" y="631.0"/>
      <point x="422.0" y="639.0"/>
    </contour>
    <contour>
      <point x="351" y="509" type="line"/>
      <point x="296" y="506"/>
      <point x="211" y="504"/>
      <point x="165" y="504" type="curve"/>
      <point x="89.25355955813038" y="557.3425636914574"/>
      <point x="54.0" y="471.0"/>
      <point x="54" y="398" type="curve" smooth="yes"/>
      <point x="54" y="372"/>
      <point x="68" y="357"/>
      <point x="94" y="357" type="curve" smooth="yes"/>
      <point x="117.38983050847457" y="357.0"/>
      <point x="134.42174795005582" y="360.42556909802454"/>
      <point x="163" y="373" type="curve"/>
      <point x="149" y="405"/>
      <point x="153" y="443"/>
      <point x="180" y="485" type="curve"/>
      <point x="137" y="449" type="line"/>
      <point x="176" y="459"/>
      <point x="255" y="460"/>
      <point x="336" y="461" type="curve"/>
    </contour>
  </outline>
</glyph>
<glyph name="uni1286" format="2">
  <advance width="731"/>
  <unicode hex="1286"/>
  <outline>
    <contour>
      <point x="361" y="509" type="line"/>
      <point x="306" y="506"/>
      <point x="221" y="504"/>
      <point x="175" y="504" type="curve"/>
      <point x="99" y="557"/>
      <point x="64" y="471"/>
      <point x="64" y="398" type="curve" smooth="yes"/>
      <point x="64" y="372"/>
      <point x="78" y="357"/>
      <point x="104" y="357" type="curve" smooth="yes"/>
      <point x="127" y="357"/>
      <point x="144" y="360"/>
      <point x="173" y="373" type="curve"/>
      <point x="159" y="405"/>
      <point x="163" y="443"/>
      <point x="190" y="485" type="curve"/>
      <point x="147" y="449" type="line"/>
      <point x="186" y="459"/>
      <point x="265" y="460"/>
      <point x="346" y="461" type="curve"/>
    </contour>
    <contour>
      <point x="383" y="604" type="curve" smooth="yes"/>
      <point x="342" y="553"/>
      <point x="243" y="317"/>
      <point x="243" y="261" type="curve" smooth="yes"/>
      <point x="243" y="241"/>
      <point x="257" y="224"/>
      <point x="288" y="224" type="curve" smooth="yes"/>
      <point x="418" y="224"/>
      <point x="437" y="219"/>
      <point x="437" y="200" type="curve" smooth="yes"/>
      <point x="437" y="145"/>
      <point x="373" y="57"/>
      <point x="347" y="25" type="curve"/>
      <point x="361" y="1"/>
      <point x="391" y="-5"/>
      <point x="409" y="-5" type="curve" smooth="yes"/>
      <point x="424" y="-5"/>
      <point x="434" y="2"/>
      <point x="443" y="19" type="curve" smooth="yes"/>
      <point x="479" y="84"/>
      <point x="522" y="189"/>
      <point x="522" y="223" type="curve" smooth="yes"/>
      <point x="522" y="295"/>
      <point x="331" y="250"/>
      <point x="331" y="293" type="curve" smooth="yes"/>
      <point x="331" y="326"/>
      <point x="357" y="401"/>
      <point x="374" y="449" type="curve"/>
      <point x="402" y="411"/>
      <point x="490" y="386"/>
      <point x="548" y="386" type="curve" smooth="yes"/>
      <point x="600" y="386"/>
      <point x="661" y="472"/>
      <point x="661" y="535" type="curve" smooth="yes"/>
      <point x="661" y="596"/>
      <point x="611" y="638"/>
      <point x="528" y="636" type="curve" smooth="yes"/>
      <point x="462" y="635"/>
      <point x="399" y="624"/>
    </contour>
    <contour>
      <point x="406" y="542"/>
      <point x="452" y="581"/>
      <point x="519" y="581" type="curve" smooth="yes"/>
      <point x="557" y="581"/>
      <point x="585" y="565"/>
      <point x="585" y="531" type="curve" smooth="yes"/>
      <point x="585" y="486"/>
      <point x="556" y="448"/>
      <point x="516" y="448" type="curve" smooth="yes"/>
      <point x="450" y="448"/>
      <point x="406" y="475"/>
      <point x="406" y="496" type="curve" smooth="yes"/>
    </contour>
  </outline>
</glyph>
<glyph name="uni1290" format="2">
  <advance width="421"/>
  <unicode hex="1290"/>
  <outline>
    <contour>
      <point x="218" y="639" type="curve" smooth="yes"/>
      <point x="196.93478260869566" y="639.0"/>
      <point x="178.79574035933481" y="634.5787202613344"/>
      <point x="167" y="626" type="curve"/>
      <point x="167" y="562"/>
      <point x="76" y="397"/>
      <point x="76" y="352" type="curve" smooth="yes"/>
      <point x="76" y="332"/>
      <point x="90" y="315"/>
      <point x="121" y="315" type="curve" smooth="yes"/>
      <point x="251" y="315"/>
      <point x="270" y="310"/>
      <point x="270" y="291" type="curve" smooth="yes"/>
      <point x="270" y="266"/>
      <point x="163" y="88"/>
      <point x="163" y="31" type="curve" smooth="yes"/>
      <point x="163" y="4"/>
      <point x="177" y="-5"/>
      <point x="200" y="-5" type="curve" smooth="yes"/>
      <point x="223.2340425531915" y="-5.0"/>
      <point x="242.8005353748784" y="0.6010707497567971"/>
      <point x="252" y="19" type="curve"/>
      <point x="252.0" y="124.0"/>
      <point x="355.0" y="250.0"/>
      <point x="355" y="303" type="curve" smooth="yes"/>
      <point x="355.0" y="386.0"/>
      <point x="169.0" y="334.0"/>
      <point x="169" y="384" type="curve" smooth="yes"/>
      <point x="169" y="430"/>
      <point x="249" y="576"/>
      <point x="249" y="613" type="curve" smooth="yes"/>
      <point x="249" y="631"/>
      <point x="240" y="639"/>
    </contour>
  </outline>
</glyph>
<glyph name="uni1292" format="2">
  <advance width="514"/>
  <unicode hex="1292"/>
  <outline>
    <contour>
      <point x="125" y="44" type="curve" smooth="yes"/>
      <point x="125.0" y="7.0"/>
      <point x="150.875" y="-8.0"/>
      <point x="194" y="-8" type="curve" smooth="yes"/>
      <point x="233.0338164251208" y="-8.0"/>
      <point x="340.36998150160923" y="21.09613905274451"/>
      <point x="396" y="25" type="curve"/>
      <point x="340" y="29" type="line"/>
      <point x="339" y="-41"/>
      <point x="365" y="-69"/>
      <point x="472" y="-51" type="curve"/>
      <point x="467" y="-24"/>
      <point x="464" y="13"/>
      <point x="461" y="33" type="curve" smooth="yes"/>
      <point x="459" y="47"/>
      <point x="454" y="51"/>
      <point x="442" y="54" type="curve" smooth="yes"/>
      <point x="422" y="59"/>
      <point x="402" y="63"/>
      <point x="385" y="66" type="curve" smooth="yes"/>
      <point x="366" y="70"/>
      <point x="357" y="68"/>
      <point x="336" y="64" type="curve" smooth="yes"/>
      <point x="316.1634015081962" y="60.221600287275464"/>
      <point x="268.13793103448273" y="50.0"/>
      <point x="254" y="50" type="curve" smooth="yes"/>
      <point x="232" y="50"/>
      <point x="223" y="56"/>
      <point x="223" y="70" type="curve" smooth="yes"/>
      <point x="223.0" y="103.0"/>
      <point x="366.0" y="250.0"/>
      <point x="366" y="303" type="curve" smooth="yes"/>
      <point x="366.0" y="386.0"/>
      <point x="180.0" y="334.0"/>
      <point x="180" y="384" type="curve" smooth="yes"/>
      <point x="180.0" y="430.0"/>
      <point x="260.0" y="576.0"/>
      <point x="260" y="613" type="curve" smooth="yes"/>
      <point x="260.0" y="631.0"/>
      <point x="251" y="639.0"/>
      <point x="229" y="639.0" type="curve" smooth="yes"/>
      <point x="207.93478260869566" y="639.0"/>
      <point x="186.47901026956936" y="634.4790102695694"/>
      <point x="178" y="626" type="curve"/>
      <point x="178" y="562"/>
      <point x="87" y="397"/>
      <point x="87" y="352" type="curve" smooth="yes"/>
      <point x="87" y="332"/>
      <point x="101" y="315"/>
      <point x="132" y="315" type="curve" smooth="yes"/>
      <point x="262" y="315"/>
      <point x="281" y="310"/>
      <point x="281" y="291" type="curve" smooth="yes"/>
      <point x="281" y="264"/>
      <point x="125" y="97"/>
    </contour>
  </outline>
</glyph>
<glyph name="uni1296" format="2">
  <advance width="549"/>
  <unicode hex="1296"/>
  <outline>
    <contour>
      <point x="256" y="19" type="curve"/>
      <point x="256.0" y="105.0"/>
      <point x="373.0" y="224.0"/>
      <point x="373" y="272" type="curve" smooth="yes"/>
      <point x="373.0" y="326.0"/>
      <point x="162.0" y="304.0"/>
      <point x="162" y="354" type="curve" smooth="yes"/>
      <point x="162" y="372"/>
      <point x="178" y="411"/>
      <point x="194" y="449" type="curve"/>
      <point x="221.01270302301026" y="412.98306263598624"/>
      <point x="297.0" y="386.0"/>
      <point x="348" y="386" type="curve" smooth="yes"/>
      <point x="409.0" y="386.0"/>
      <point x="481.0" y="466.0"/>
      <point x="481" y="525" type="curve" smooth="yes"/>
      <point x="481" y="592"/>
      <point x="424" y="638"/>
      <point x="328" y="636" type="curve" smooth="yes"/>
      <point x="272" y="635"/>
      <point x="224" y="619"/>
      <point x="205" y="604" type="curve" smooth="yes"/>
      <point x="157" y="565"/>
      <point x="74" y="367"/>
      <point x="74" y="322" type="curve" smooth="yes"/>
      <point x="74" y="302"/>
      <point x="88" y="288"/>
      <point x="119" y="285" type="curve" smooth="yes"/>
      <point x="187" y="279"/>
      <point x="282" y="265"/>
      <point x="282" y="246" type="curve" smooth="yes"/>
      <point x="282" y="224"/>
      <point x="162" y="81"/>
      <point x="162" y="31" type="curve" smooth="yes"/>
      <point x="162" y="4"/>
      <point x="176" y="-5"/>
      <point x="199" y="-5" type="curve" smooth="yes"/>
      <point x="222.01923076923077" y="-5.0"/>
      <point x="246.82039419572422" y="0.6407883914484529"/>
    </contour>
    <contour>
      <point x="226" y="542"/>
      <point x="264" y="581"/>
      <point x="319" y="581" type="curve" smooth="yes"/>
      <point x="369" y="581"/>
      <point x="405" y="564"/>
      <point x="405" y="529" type="curve" smooth="yes"/>
      <point x="405" y="485"/>
      <point x="371" y="448"/>
      <point x="324" y="448" type="curve" smooth="yes"/>
      <point x="265" y="448"/>
      <point x="226" y="475"/>
      <point x="226" y="496" type="curve" smooth="yes"/>
    </contour>
  </outline>
</glyph>
<glyph name="uni12A2" format="2">
  <advance width="816"/>
  <unicode hex="12A2"/>
  <outline>
    <contour>
      <point x="168" y="624" type="curve"/>
      <point x="173" y="615"/>
      <point x="175" y="606"/>
      <point x="175" y="594" type="curve" smooth="yes"/>
      <point x="175" y="565"/>
      <point x="159" y="514"/>
      <point x="159" y="486" type="curve" smooth="yes"/>
      <point x="159" y="471"/>
      <point x="171" y="460"/>
      <point x="197" y="460" type="curve" smooth="yes"/>
      <point x="259" y="460"/>
      <point x="304" y="467"/>
      <point x="380" y="467" type="curve" smooth="yes"/>
      <point x="393" y="467"/>
      <point x="400" y="465"/>
      <point x="400" y="456" type="curve" smooth="yes"/>
      <point x="400" y="447"/>
      <point x="386" y="431"/>
      <point x="364" y="407" type="curve" smooth="yes"/>
      <point x="277" y="312"/>
      <point x="64" y="111"/>
      <point x="64" y="31" type="curve" smooth="yes"/>
      <point x="64" y="4"/>
      <point x="78" y="-5"/>
      <point x="101" y="-5" type="curve" smooth="yes"/>
      <point x="130" y="-5"/>
      <point x="156" y="2"/>
      <point x="168" y="19" type="curve"/>
      <point x="141" y="132"/>
      <point x="368" y="311"/>
      <point x="464" y="426" type="curve" smooth="yes"/>
      <point x="485" y="452"/>
      <point x="499" y="476"/>
      <point x="499" y="495" type="curve" smooth="yes"/>
      <point x="499" y="514"/>
      <point x="483" y="525"/>
      <point x="458" y="525" type="curve" smooth="yes"/>
      <point x="396" y="525"/>
      <point x="334" y="521"/>
      <point x="270" y="518" type="curve" smooth="yes"/>
      <point x="251" y="517"/>
      <point x="241" y="522"/>
      <point x="241" y="530" type="curve" smooth="yes"/>
      <point x="241" y="544"/>
      <point x="257" y="590"/>
      <point x="257" y="610" type="curve" smooth="yes"/>
      <point x="257" y="628"/>
      <point x="248" y="639"/>
      <point x="221" y="639" type="curve" smooth="yes"/>
      <point x="203" y="639"/>
      <point x="185" y="633"/>
    </contour>
    <contour>
      <point x="521" y="78" type="curve" smooth="yes"/>
      <point x="521" y="132"/>
      <point x="569" y="207"/>
      <point x="569" y="281" type="curve" smooth="yes"/>
      <point x="569" y="358"/>
      <point x="518" y="371"/>
      <point x="459" y="371" type="curve" smooth="yes"/>
      <point x="343" y="371"/>
      <point x="191" y="256"/>
      <point x="138" y="20" type="curve"/>
      <point x="168" y="19" type="line"/>
      <point x="154" y="148"/>
      <point x="323" y="326"/>
      <point x="427" y="326" type="curve" smooth="yes"/>
      <point x="463" y="326"/>
      <point x="491" y="306"/>
      <point x="491" y="266" type="curve" smooth="yes"/>
      <point x="491" y="197"/>
      <point x="434" y="108"/>
      <point x="434" y="48" type="curve" smooth="yes"/>
      <point x="434" y="14"/>
      <point x="454" y="-8"/>
      <point x="489" y="-8" type="curve" smooth="yes"/>
      <point x="516" y="-8"/>
      <point x="579" y="13"/>
      <point x="630" y="21" type="curve"/>
      <point x="632" y="-38"/>
      <point x="664" y="-64"/>
      <point x="772" y="-45" type="curve"/>
      <point x="766" y="-17"/>
      <point x="764" y="22"/>
      <point x="761" y="42" type="curve" smooth="yes"/>
      <point x="759" y="56"/>
      <point x="754" y="60"/>
      <point x="742" y="63" type="curve" smooth="yes"/>
      <point x="722" y="68"/>
      <point x="702" y="72"/>
      <point x="685" y="75" type="curve" smooth="yes"/>
      <point x="666" y="79"/>
      <point x="657" y="77"/>
      <point x="636" y="73" type="curve" smooth="yes"/>
      <point x="615" y="68"/>
      <point x="564" y="53"/>
      <point x="549" y="53" type="curve" smooth="yes"/>
      <point x="529" y="53"/>
      <point x="521" y="60"/>
    </contour>
  </outline>
</glyph>
<glyph name="uni12AB" format="2">
  <advance width="718"/>
  <unicode hex="12AB"/>
  <outline>
    <contour>
      <point x="196" y="631" type="curve" smooth="yes"/>
      <point x="196" y="659"/>
      <point x="167" y="670"/>
      <point x="142" y="670" type="curve" smooth="yes"/>
      <point x="107" y="670"/>
      <point x="85" y="650"/>
      <point x="80" y="622" type="curve"/>
      <point x="92" y="616"/>
      <point x="98" y="609"/>
      <point x="98" y="593" type="curve" smooth="yes"/>
      <point x="98" y="566"/>
      <point x="70" y="498"/>
      <point x="70" y="463" type="curve" smooth="yes"/>
      <point x="70" y="443"/>
      <point x="84" y="429"/>
      <point x="114" y="429" type="curve" smooth="yes"/>
      <point x="139" y="429"/>
      <point x="179" y="434"/>
      <point x="207" y="435" type="curve" smooth="yes"/>
      <point x="234" y="435"/>
      <point x="250" y="431"/>
      <point x="250" y="413" type="curve" smooth="yes"/>
      <point x="250" y="396"/>
      <point x="178" y="277"/>
      <point x="178" y="239" type="curve" smooth="yes"/>
      <point x="178" y="212"/>
      <point x="191" y="203"/>
      <point x="212" y="203" type="curve" smooth="yes"/>
      <point x="235" y="203"/>
      <point x="252" y="209"/>
      <point x="262" y="227" type="curve"/>
      <point x="253" y="305"/>
      <point x="333" y="409"/>
      <point x="333" y="450" type="curve" smooth="yes"/>
      <point x="333" y="474"/>
      <point x="316" y="480"/>
      <point x="284" y="480" type="curve" smooth="yes"/>
      <point x="207" y="480"/>
      <point x="159" y="470"/>
      <point x="159" y="497" type="curve" smooth="yes"/>
      <point x="159" y="540"/>
      <point x="196" y="594"/>
    </contour>
    <contour>
      <point x="490" y="518" type="curve" smooth="yes"/>
      <point x="440" y="518"/>
      <point x="360" y="499"/>
      <point x="265" y="467" type="curve"/>
      <point x="266" y="406" type="line"/>
      <point x="356" y="450"/>
      <point x="412" y="464"/>
      <point x="447" y="464" type="curve" smooth="yes"/>
      <point x="496" y="464"/>
      <point x="537" y="440"/>
      <point x="537" y="374" type="curve" smooth="yes"/>
      <point x="537" y="284"/>
      <point x="461" y="86"/>
      <point x="461" y="21" type="curve" smooth="yes"/>
      <point x="461" y="7"/>
      <point x="465" y="-5"/>
      <point x="492" y="-5" type="curve" smooth="yes"/>
      <point x="515" y="-5"/>
      <point x="536" y="0"/>
      <point x="548" y="15" type="curve"/>
      <point x="548" y="124"/>
      <point x="619" y="347"/>
      <point x="619" y="401" type="curve" smooth="yes"/>
      <point x="619" y="478"/>
      <point x="566" y="518"/>
    </contour>
  </outline>
</glyph>
<glyph name="uni12AE" format="2">
  <advance width="707"/>
  <unicode hex="12AE"/>
  <outline>
    <contour>
      <point x="119" y="0" type="curve"/>
      <point x="170" y="3"/>
      <point x="217" y="3"/>
      <point x="244" y="-4" type="curve"/>
      <point x="258" y="22"/>
      <point x="255" y="56"/>
      <point x="206" y="56" type="curve" smooth="yes"/>
      <point x="184" y="56"/>
      <point x="147" y="53"/>
      <point x="130" y="48" type="curve" smooth="yes"/>
      <point x="111" y="43"/>
      <point x="102" y="20"/>
    </contour>
    <contour>
      <point x="214" y="631" type="curve" smooth="yes"/>
      <point x="214" y="659"/>
      <point x="185" y="670"/>
      <point x="160" y="670" type="curve" smooth="yes"/>
      <point x="125" y="670"/>
      <point x="103" y="650"/>
      <point x="98" y="622" type="curve"/>
      <point x="110" y="616"/>
      <point x="116" y="609"/>
      <point x="116" y="593" type="curve" smooth="yes"/>
      <point x="116" y="566"/>
      <point x="88" y="498"/>
      <point x="88" y="463" type="curve" smooth="yes"/>
      <point x="88" y="443"/>
      <point x="102" y="429"/>
      <point x="132" y="429" type="curve" smooth="yes"/>
      <point x="157" y="429"/>
      <point x="197" y="434"/>
      <point x="225" y="435" type="curve" smooth="yes"/>
      <point x="252" y="435"/>
      <point x="268" y="431"/>
      <point x="268" y="413" type="curve" smooth="yes"/>
      <point x="268" y="377"/>
      <point x="140" y="121"/>
      <point x="140" y="39" type="curve" smooth="yes"/>
      <point x="140" y="12"/>
      <point x="153" y="3"/>
      <point x="174" y="3" type="curve" smooth="yes"/>
      <point x="197" y="3"/>
      <point x="214" y="9"/>
      <point x="224" y="27" type="curve"/>
      <point x="224" y="177"/>
      <point x="351" y="371"/>
      <point x="351" y="450" type="curve" smooth="yes"/>
      <point x="351" y="474"/>
      <point x="334" y="480"/>
      <point x="302" y="480" type="curve" smooth="yes"/>
      <point x="225" y="480"/>
      <point x="177" y="470"/>
      <point x="177" y="497" type="curve" smooth="yes"/>
      <point x="177" y="540"/>
      <point x="214" y="594"/>
    </contour>
    <contour>
      <point x="494" y="518" type="curve" smooth="yes"/>
      <point x="444" y="518"/>
      <point x="364" y="499"/>
      <point x="269" y="467" type="curve"/>
      <point x="270" y="406" type="line"/>
      <point x="360" y="450"/>
      <point x="416" y="464"/>
      <point x="451" y="464" type="curve" smooth="yes"/>
      <point x="500" y="464"/>
      <point x="541" y="440"/>
      <point x="541" y="374" type="curve" smooth="yes"/>
      <point x="541" y="330"/>
      <point x="495" y="233"/>
      <point x="495" y="201" type="curve" smooth="yes"/>
      <point x="495" y="187"/>
      <point x="499" y="175"/>
      <point x="526" y="175" type="curve" smooth="yes"/>
      <point x="549" y="175"/>
      <point x="570" y="180"/>
      <point x="582" y="195" type="curve"/>
      <point x="582" y="253"/>
      <point x="623" y="372"/>
      <point x="623" y="401" type="curve" smooth="yes"/>
      <point x="623" y="478"/>
      <point x="570" y="518"/>
    </contour>
  </outline>
</glyph>
<glyph name="uni12B5" format="2">
  <advance width="928"/>
  <unicode hex="12B5"/>
  <outline>
    <contour>
      <point x="214" y="631" type="curve" smooth="yes"/>
      <point x="214" y="659"/>
      <point x="185" y="670"/>
      <point x="160" y="670" type="curve" smooth="yes"/>
      <point x="125" y="670"/>
      <point x="103" y="650"/>
      <point x="98" y="622" type="curve"/>
      <point x="110" y="616"/>
      <point x="116" y="609"/>
      <point x="116" y="593" type="curve" smooth="yes"/>
      <point x="116" y="566"/>
      <point x="88" y="498"/>
      <point x="88" y="463" type="curve" smooth="yes"/>
      <point x="88" y="443"/>
      <point x="102" y="429"/>
      <point x="132" y="429" type="curve" smooth="yes"/>
      <point x="157" y="429"/>
      <point x="197" y="434"/>
      <point x="225" y="435" type="curve" smooth="yes"/>
      <point x="252" y="435"/>
      <point x="268" y="431"/>
      <point x="268" y="413" type="curve" smooth="yes"/>
      <point x="268" y="377"/>
      <point x="140" y="121"/>
      <point x="140" y="39" type="curve" smooth="yes"/>
      <point x="140" y="12"/>
      <point x="153" y="3"/>
      <point x="174" y="3" type="curve" smooth="yes"/>
      <point x="197" y="3"/>
      <point x="214" y="9"/>
      <point x="224" y="27" type="curve"/>
      <point x="224" y="177"/>
      <point x="351" y="371"/>
      <point x="351" y="450" type="curve" smooth="yes"/>
      <point x="351" y="474"/>
      <point x="334" y="480"/>
      <point x="302" y="480" type="curve" smooth="yes"/>
      <point x="225" y="480"/>
      <point x="177" y="470"/>
      <point x="177" y="497" type="curve" smooth="yes"/>
      <point x="177" y="540"/>
      <point x="214" y="594"/>
    </contour>
    <contour>
      <point x="119" y="0" type="curve"/>
      <point x="170" y="3"/>
      <point x="217" y="3"/>
      <point x="244" y="-4" type="curve"/>
      <point x="258" y="22"/>
      <point x="255" y="56"/>
      <point x="206" y="56" type="curve" smooth="yes"/>
      <point x="184" y="56"/>
      <point x="147" y="53"/>
      <point x="130" y="48" type="curve" smooth="yes"/>
      <point x="111" y="43"/>
      <point x="102" y="20"/>
    </contour>
    <contour>
      <point x="494" y="518" type="curve" smooth="yes"/>
      <point x="444" y="518"/>
      <point x="364" y="499"/>
      <point x="269" y="467" type="curve"/>
      <point x="270" y="406" type="line"/>
      <point x="360" y="450"/>
      <point x="416" y="464"/>
      <point x="451" y="464" type="curve" smooth="yes"/>
      <point x="500" y="464"/>
      <point x="541" y="440"/>
      <point x="541" y="374" type="curve" smooth="yes"/>
      <point x="541" y="284"/>
      <point x="465" y="86"/>
      <point x="465" y="21" type="curve" smooth="yes"/>
      <point x="465" y="7"/>
      <point x="469" y="-5"/>
      <point x="496" y="-5" type="curve" smooth="yes"/>
      <point x="519" y="-5"/>
      <point x="540" y="0"/>
      <point x="552" y="15" type="curve"/>
      <point x="552" y="124"/>
      <point x="623" y="347"/>
      <point x="623" y="401" type="curve" smooth="yes"/>
      <point x="623" y="478"/>
      <point x="570" y="518"/>
    </contour>
    <contour>
      <point x="603" y="389" type="curve"/>
      <point x="573" y="340" type="line"/>
      <point x="634" y="324"/>
      <point x="709" y="295"/>
      <point x="777" y="264" type="curve"/>
      <point x="722" y="317" type="line"/>
      <point x="691" y="263"/>
      <point x="703" y="219"/>
      <point x="806" y="208" type="curve"/>
      <point x="813" y="230"/>
      <point x="821" y="250"/>
      <point x="827" y="266" type="curve" smooth="yes"/>
      <point x="832" y="279"/>
      <point x="829" y="285"/>
      <point x="820" y="294" type="curve" smooth="yes"/>
      <point x="791" y="321"/>
      <point x="772" y="335"/>
      <point x="733" y="344" type="curve" smooth="yes"/>
      <point x="693" y="353"/>
      <point x="661" y="366"/>
    </contour>
    <contour>
      <point x="600" y="407" type="curve"/>
      <point x="608" y="350" type="line"/>
      <point x="682" y="393"/>
      <point x="760" y="429"/>
      <point x="860" y="417" type="curve"/>
      <point x="869" y="472"/>
      <point x="840" y="502"/>
      <point x="793" y="502" type="curve" smooth="yes"/>
      <point x="745" y="502"/>
      <point x="714" y="458"/>
    </contour>
  </outline>
</glyph>
<glyph name="uni12CC" format="2">
  <advance width="827"/>
  <unicode hex="12CC"/>
  <outline>
    <contour>
      <point x="374" y="112" type="curve" smooth="yes"/>
      <point x="374" y="248"/>
      <point x="484" y="549"/>
      <point x="522" y="608" type="curve"/>
      <point x="435" y="607" type="line"/>
      <point x="380" y="481"/>
      <point x="285" y="193"/>
      <point x="285" y="105" type="curve" smooth="yes"/>
      <point x="285" y="14"/>
      <point x="368" y="-11"/>
      <point x="437" y="-11" type="curve" smooth="yes"/>
      <point x="537" y="-11"/>
      <point x="601" y="47"/>
      <point x="601" y="113" type="curve" smooth="yes"/>
      <point x="601" y="175"/>
      <point x="498" y="213"/>
      <point x="357" y="214" type="curve"/>
      <point x="347" y="165" type="line"/>
      <point x="464" y="170"/>
      <point x="515" y="144"/>
      <point x="515" y="104" type="curve" smooth="yes"/>
      <point x="515" y="76"/>
      <point x="489" y="43"/>
      <point x="439" y="43" type="curve" smooth="yes"/>
      <point x="397" y="43"/>
      <point x="374" y="63"/>
    </contour>
    <contour>
      <point x="755" y="504" type="curve" smooth="yes"/>
      <point x="755" y="589"/>
      <point x="696" y="637"/>
      <point x="581" y="637" type="curve" smooth="yes"/>
      <point x="436" y="637"/>
      <point x="290" y="596"/>
      <point x="202" y="547" type="curve" smooth="yes"/>
      <point x="128" y="506"/>
      <point x="74" y="429"/>
      <point x="74" y="368" type="curve" smooth="yes"/>
      <point x="74" y="284"/>
      <point x="157" y="221"/>
      <point x="272" y="221" type="curve" smooth="yes"/>
      <point x="307" y="221"/>
      <point x="331" y="224"/>
      <point x="352" y="233" type="curve"/>
      <point x="348" y="292" type="line"/>
      <point x="324" y="287"/>
      <point x="301" y="284"/>
      <point x="270" y="284" type="curve" smooth="yes"/>
      <point x="198" y="284"/>
      <point x="159" y="308"/>
      <point x="159" y="375" type="curve" smooth="yes"/>
      <point x="159" y="447"/>
      <point x="255" y="581"/>
      <point x="537" y="581" type="curve" smooth="yes"/>
      <point x="632" y="581"/>
      <point x="668" y="542"/>
      <point x="668" y="481" type="curve" smooth="yes"/>
      <point x="668" y="404"/>
      <point x="575" y="322"/>
      <point x="359" y="292" type="curve"/>
      <point x="369" y="230" type="line"/>
      <point x="542" y="265"/>
      <point x="618" y="314"/>
      <point x="676" y="372" type="curve" smooth="yes"/>
      <point x="729" y="425"/>
      <point x="755" y="470"/>
    </contour>
  </outline>
</glyph>
<glyph name="uni12D1" format="2">
  <advance width="832"/>
  <unicode hex="12D1"/>
  <outline>
    <contour>
      <point x="305" y="-5" type="curve" smooth="yes"/>
      <point x="335" y="-5"/>
      <point x="348" y="11"/>
      <point x="367" y="45" type="curve"/>
      <point x="308" y="77"/>
      <point x="246" y="320"/>
      <point x="188" y="482" type="curve" smooth="yes"/>
      <point x="164" y="548"/>
      <point x="142" y="564"/>
      <point x="119" y="564" type="curve" smooth="yes"/>
      <point x="86" y="564"/>
      <point x="60" y="543"/>
      <point x="60" y="515" type="curve"/>
      <point x="69" y="512"/>
      <point x="88" y="505"/>
      <point x="114" y="445" type="curve" smooth="yes"/>
      <point x="185" y="284"/>
      <point x="231" y="151"/>
      <point x="257" y="43" type="curve" smooth="yes"/>
      <point x="264" y="14"/>
      <point x="280" y="-5"/>
    </contour>
    <contour>
      <point x="318" y="8" type="line"/>
      <point x="444" y="190"/>
      <point x="596" y="442"/>
      <point x="596" y="526" type="curve" smooth="yes"/>
      <point x="596" y="583"/>
      <point x="574" y="611"/>
      <point x="506" y="611" type="curve" smooth="yes"/>
      <point x="429" y="611"/>
      <point x="180" y="569"/>
      <point x="119" y="564" type="curve"/>
      <point x="121" y="508" type="line"/>
      <point x="223" y="526"/>
      <point x="402" y="557"/>
      <point x="470" y="557" type="curve" smooth="yes"/>
      <point x="493" y="557"/>
      <point x="506" y="542"/>
      <point x="506" y="523" type="curve" smooth="yes"/>
      <point x="506" y="439"/>
      <point x="371" y="233"/>
      <point x="277" y="76" type="curve"/>
    </contour>
    <contour>
      <point x="738" y="318" type="curve"/>
      <point x="659" y="328" type="line"/>
      <point x="657" y="314"/>
      <point x="655" y="294"/>
      <point x="655" y="268" type="curve" smooth="yes"/>
      <point x="655" y="239"/>
      <point x="669" y="223"/>
      <point x="706" y="223" type="curve" smooth="yes"/>
      <point x="728" y="223"/>
      <point x="749" y="227"/>
      <point x="767" y="240" type="curve"/>
      <point x="756" y="256"/>
      <point x="750" y="279"/>
      <point x="749" y="305" type="curve" smooth="yes"/>
      <point x="748" y="329"/>
      <point x="750" y="358"/>
      <point x="758" y="380" type="curve"/>
      <point x="737" y="389"/>
      <point x="721" y="394"/>
      <point x="700" y="394" type="curve" smooth="yes"/>
      <point x="678" y="394"/>
      <point x="668" y="383"/>
      <point x="663" y="364" type="curve"/>
      <point x="612" y="349"/>
      <point x="562" y="349"/>
      <point x="479" y="331" type="curve"/>
      <point x="473" y="276" type="line"/>
      <point x="547" y="294"/>
      <point x="647" y="311"/>
    </contour>
  </outline>
</glyph>
<glyph name="uni12D2" format="2">
  <advance width="949"/>
  <unicode hex="12D2"/>
  <outline>
    <contour>
      <point x="305" y="37" type="curve" smooth="yes"/>
      <point x="335" y="37"/>
      <point x="348" y="53"/>
      <point x="367" y="87" type="curve"/>
      <point x="309" y="118"/>
      <point x="241" y="334"/>
      <point x="188" y="482" type="curve" smooth="yes"/>
      <point x="164" y="548"/>
      <point x="142" y="564"/>
      <point x="119" y="564" type="curve" smooth="yes"/>
      <point x="86" y="564"/>
      <point x="60" y="543"/>
      <point x="60" y="515" type="curve"/>
      <point x="69" y="512"/>
      <point x="88" y="505"/>
      <point x="114" y="445" type="curve" smooth="yes"/>
      <point x="179" y="298"/>
      <point x="226" y="182"/>
      <point x="255" y="85" type="curve" smooth="yes"/>
      <point x="264" y="56"/>
      <point x="279" y="37"/>
    </contour>
    <contour>
      <point x="318" y="50" type="line"/>
      <point x="437" y="222"/>
      <point x="596" y="449"/>
      <point x="596" y="526" type="curve" smooth="yes"/>
      <point x="596" y="583"/>
      <point x="574" y="611"/>
      <point x="506" y="611" type="curve" smooth="yes"/>
      <point x="429" y="611"/>
      <point x="180" y="569"/>
      <point x="119" y="564" type="curve"/>
      <point x="121" y="508" type="line"/>
      <point x="223" y="526"/>
      <point x="402" y="557"/>
      <point x="470" y="557" type="curve" smooth="yes"/>
      <point x="493" y="557"/>
      <point x="506" y="542"/>
      <point x="506" y="523" type="curve" smooth="yes"/>
      <point x="506" y="447"/>
      <point x="365" y="264"/>
      <point x="277" y="118" type="curve"/>
    </contour>
    <contour>
      <point x="618" y="78" type="curve" smooth="yes"/>
      <point x="618.0" y="113.63346613545816"/>
      <point x="698.0" y="252"/>
      <point x="698" y="286" type="curve" smooth="yes"/>
      <point x="698" y="308"/>
      <point x="686" y="316"/>
      <point x="654" y="316" type="curve" smooth="yes"/>
      <point x="622" y="316"/>
      <point x="495" y="308"/>
      <point x="460" y="308" type="curve"/>
      <point x="450" y="252" type="line"/>
      <point x="497.0952640533152" y="256.0952403524622"/>
      <point x="603.4285714285714" y="260.0"/>
      <point x="629" y="260" type="curve"/>
      <point x="617" y="284" type="line"/>
      <point x="600" y="226"/>
      <point x="526.0" y="88.14492753623188"/>
      <point x="526" y="51" type="curve" smooth="yes"/>
      <point x="526" y="14"/>
      <point x="554" y="-8"/>
      <point x="600" y="-8" type="curve" smooth="yes"/>
      <point x="630" y="-8"/>
      <point x="707" y="8"/>
      <point x="798" y="28" type="curve"/>
      <point x="792" y="51" type="line"/>
      <point x="791" y="-25"/>
      <point x="811" y="-49"/>
      <point x="866" y="-49" type="curve" smooth="yes"/>
      <point x="879" y="-49"/>
      <point x="897" y="-47"/>
      <point x="909" y="-43" type="curve"/>
      <point x="900" y="-19"/>
      <point x="896" y="24"/>
      <point x="899" y="51" type="curve"/>
      <point x="866" y="63"/>
      <point x="821" y="74"/>
      <point x="811" y="74" type="curve" smooth="yes"/>
      <point x="781" y="74"/>
      <point x="690" y="47"/>
      <point x="657" y="47" type="curve" smooth="yes"/>
      <point x="631" y="47"/>
      <point x="618" y="54"/>
    </contour>
  </outline>
</glyph>
<glyph name="uni12D3" format="2">
  <advance width="765"/>
  <unicode hex="12D3"/>
  <outline>
    <contour>
      <point x="294" y="-5" type="curve" smooth="yes"/>
      <point x="324" y="-5"/>
      <point x="337" y="11"/>
      <point x="356" y="45" type="curve"/>
      <point x="300" y="76"/>
      <point x="246" y="315"/>
      <point x="189" y="472" type="curve" smooth="yes"/>
      <point x="165" y="538"/>
      <point x="143" y="554"/>
      <point x="120" y="554" type="curve" smooth="yes"/>
      <point x="87" y="554"/>
      <point x="61" y="533"/>
      <point x="61" y="505" type="curve"/>
      <point x="70" y="502"/>
      <point x="89" y="495"/>
      <point x="115" y="435" type="curve" smooth="yes"/>
      <point x="183" y="280"/>
      <point x="221" y="148"/>
      <point x="246" y="43" type="curve" smooth="yes"/>
      <point x="253" y="14"/>
      <point x="269" y="-5"/>
    </contour>
    <contour>
      <point x="307" y="8" type="line"/>
      <point x="443" y="205"/>
      <point x="626" y="458"/>
      <point x="626" y="546" type="curve" smooth="yes"/>
      <point x="626" y="605"/>
      <point x="604" y="631"/>
      <point x="533" y="631" type="curve" smooth="yes"/>
      <point x="439" y="631"/>
      <point x="183" y="560"/>
      <point x="120" y="554" type="curve"/>
      <point x="122" y="498" type="line"/>
      <point x="235" y="519"/>
      <point x="426" y="577"/>
      <point x="500" y="577" type="curve" smooth="yes"/>
      <point x="523" y="577"/>
      <point x="536" y="562"/>
      <point x="536" y="543" type="curve" smooth="yes"/>
      <point x="536" y="455"/>
      <point x="369" y="248"/>
      <point x="266" y="76" type="curve"/>
    </contour>
    <contour>
      <point x="451" y="347" type="curve"/>
      <point x="421" y="314" type="line"/>
      <point x="526" y="279"/>
      <point x="576" y="216"/>
      <point x="576" y="80" type="curve" smooth="yes"/>
      <point x="576" y="44"/>
      <point x="571" y="30"/>
      <point x="566" y="18" type="curve"/>
      <point x="585" y="7"/>
      <point x="607" y="2"/>
      <point x="622" y="3" type="curve" smooth="yes"/>
      <point x="650" y="5"/>
      <point x="668" y="27"/>
      <point x="668" y="74" type="curve" smooth="yes"/>
      <point x="668" y="198"/>
      <point x="599" y="308"/>
    </contour>
  </outline>
</glyph>
<glyph name="uni12D4" format="2">
  <advance width="929"/>
  <unicode hex="12D4"/>
  <outline>
    <contour>
      <point x="305" y="37" type="curve" smooth="yes"/>
      <point x="335" y="37"/>
      <point x="348" y="53"/>
      <point x="367" y="87" type="curve"/>
      <point x="309" y="118"/>
      <point x="241" y="334"/>
      <point x="188" y="482" type="curve" smooth="yes"/>
      <point x="164" y="548"/>
      <point x="142" y="564"/>
      <point x="119" y="564" type="curve" smooth="yes"/>
      <point x="86" y="564"/>
      <point x="60" y="543"/>
      <point x="60" y="515" type="curve"/>
      <point x="69" y="512"/>
      <point x="88" y="505"/>
      <point x="114" y="445" type="curve" smooth="yes"/>
      <point x="179" y="298"/>
      <point x="226" y="182"/>
      <point x="255" y="85" type="curve" smooth="yes"/>
      <point x="264" y="56"/>
      <point x="279" y="37"/>
    </contour>
    <contour>
      <point x="318" y="50" type="line"/>
      <point x="437" y="222"/>
      <point x="596" y="449"/>
      <point x="596" y="526" type="curve" smooth="yes"/>
      <point x="596" y="583"/>
      <point x="574" y="611"/>
      <point x="506" y="611" type="curve" smooth="yes"/>
      <point x="429" y="611"/>
      <point x="180" y="569"/>
      <point x="119" y="564" type="curve"/>
      <point x="121" y="508" type="line"/>
      <point x="223" y="526"/>
      <point x="402" y="557"/>
      <point x="470" y="557" type="curve" smooth="yes"/>
      <point x="493" y="557"/>
      <point x="506" y="542"/>
      <point x="506" y="523" type="curve" smooth="yes"/>
      <point x="506" y="447"/>
      <point x="365" y="264"/>
      <point x="277" y="118" type="curve"/>
    </contour>
    <contour>
      <point x="678" y="377" type="curve" smooth="yes"/>
      <point x="646" y="377"/>
      <point x="519" y="369"/>
      <point x="484" y="369" type="curve"/>
      <point x="478" y="314" type="line"/>
      <point x="524" y="318"/>
      <point x="628" y="321"/>
      <point x="653" y="321" type="curve"/>
      <point x="637" y="345" type="line"/>
      <point x="619" y="281"/>
      <point x="546" y="177"/>
      <point x="546" y="89" type="curve" smooth="yes"/>
      <point x="546" y="23"/>
      <point x="593" y="-11"/>
      <point x="665" y="-11" type="curve" smooth="yes"/>
      <point x="780" y="-11"/>
      <point x="856" y="66"/>
      <point x="856" y="159" type="curve" smooth="yes"/>
      <point x="856" y="228"/>
      <point x="808" y="273"/>
      <point x="739" y="273" type="curve" smooth="yes"/>
      <point x="707" y="273"/>
      <point x="669" y="259"/>
      <point x="627" y="225" type="curve"/>
      <point x="645" y="203" type="line"/>
      <point x="688" y="267"/>
      <point x="722" y="320"/>
      <point x="722" y="347" type="curve" smooth="yes"/>
      <point x="722" y="369"/>
      <point x="710" y="377"/>
    </contour>
    <contour>
      <point x="750" y="220"/>
      <point x="774" y="195"/>
      <point x="774" y="147" type="curve" smooth="yes"/>
      <point x="774" y="91"/>
      <point x="735" y="48"/>
      <point x="681" y="48" type="curve" smooth="yes"/>
      <point x="644" y="48"/>
      <point x="627" y="67"/>
      <point x="627" y="100" type="curve" smooth="yes"/>
      <point x="627" y="142"/>
      <point x="653" y="220"/>
      <point x="717" y="220" type="curve" smooth="yes"/>
    </contour>
  </outline>
</glyph>
<glyph name="uni12D9" format="2">
  <advance width="925"/>
  <unicode hex="12D9"/>
  <outline>
    <contour>
      <point x="462" y="12" type="curve"/>
      <point x="517" y="15"/>
      <point x="568" y="15"/>
      <point x="597" y="8" type="curve"/>
      <point x="612" y="35"/>
      <point x="611" y="68"/>
      <point x="549" y="68" type="curve" smooth="yes"/>
      <point x="527" y="68"/>
      <point x="490" y="65"/>
      <point x="473" y="60" type="curve" smooth="yes"/>
      <point x="454" y="55"/>
      <point x="445" y="32"/>
    </contour>
    <contour>
      <point x="117" y="-2" type="curve" smooth="yes"/>
      <point x="156" y="-2"/>
      <point x="176" y="16"/>
      <point x="178" y="60" type="curve" smooth="yes"/>
      <point x="184" y="231"/>
      <point x="316" y="488"/>
      <point x="316" y="542" type="curve" smooth="yes"/>
      <point x="316" y="570"/>
      <point x="290" y="581"/>
      <point x="267" y="581" type="curve" smooth="yes"/>
      <point x="229" y="581"/>
      <point x="205" y="561"/>
      <point x="200" y="533" type="curve"/>
      <point x="212" y="527"/>
      <point x="218" y="520"/>
      <point x="218" y="504" type="curve" smooth="yes"/>
      <point x="218" y="439"/>
      <point x="86" y="47"/>
      <point x="65" y="15" type="curve"/>
      <point x="73" y="5"/>
      <point x="89" y="-2"/>
    </contour>
    <contour>
      <point x="594" y="52" type="line"/>
      <point x="609" y="220"/>
      <point x="648" y="397"/>
      <point x="707" y="536" type="curve"/>
      <point x="727" y="547"/>
      <point x="739" y="553"/>
      <point x="739" y="569" type="curve" smooth="yes"/>
      <point x="739" y="596"/>
      <point x="673" y="627"/>
      <point x="624" y="627" type="curve" smooth="yes"/>
      <point x="596" y="627"/>
      <point x="584" y="603"/>
      <point x="590" y="585" type="curve"/>
      <point x="614" y="577"/>
      <point x="626" y="568"/>
      <point x="626" y="549" type="curve" smooth="yes"/>
      <point x="626" y="497"/>
      <point x="498" y="124"/>
      <point x="498" y="39" type="curve"/>
    </contour>
    <contour>
      <point x="347" y="287"/>
      <point x="544" y="320"/>
      <point x="740" y="351" type="curve"/>
      <point x="745" y="309"/>
      <point x="780" y="291"/>
      <point x="871" y="307" type="curve"/>
      <point x="866" y="332"/>
      <point x="863" y="357"/>
      <point x="860" y="375" type="curve" smooth="yes"/>
      <point x="858" y="389"/>
      <point x="853" y="393"/>
      <point x="841" y="396" type="curve" smooth="yes"/>
      <point x="821" y="401"/>
      <point x="801" y="405"/>
      <point x="784" y="408" type="curve" smooth="yes"/>
      <point x="765" y="412"/>
      <point x="756" y="412"/>
      <point x="735" y="406" type="curve" smooth="yes"/>
      <point x="644" y="382"/>
      <point x="434" y="343"/>
      <point x="186" y="323" type="curve"/>
      <point x="180" y="265" type="line"/>
    </contour>
  </outline>
</glyph>
<glyph name="uni12DB" format="2">
  <advance width="757"/>
  <unicode hex="12DB"/>
  <outline>
    <contour>
      <point x="568" y="399" type="line"/>
      <point x="559" y="400"/>
      <point x="550" y="402"/>
      <point x="514" y="396" type="curve" smooth="yes"/>
      <point x="406" y="380"/>
      <point x="328" y="369"/>
      <point x="170" y="360" type="curve"/>
      <point x="164" y="302" type="line"/>
      <point x="289" y="321"/>
      <point x="441" y="340"/>
      <point x="566" y="347" type="curve"/>
    </contour>
    <contour>
      <point x="398" y="12" type="curve"/>
      <point x="453" y="15"/>
      <point x="504" y="15"/>
      <point x="533" y="8" type="curve"/>
      <point x="548" y="35"/>
      <point x="547" y="68"/>
      <point x="485" y="68" type="curve" smooth="yes"/>
      <point x="463" y="68"/>
      <point x="426" y="65"/>
      <point x="409" y="60" type="curve" smooth="yes"/>
      <point x="390" y="55"/>
      <point x="381" y="32"/>
    </contour>
    <contour>
      <point x="117" y="164" type="curve" smooth="yes"/>
      <point x="156" y="164"/>
      <point x="176" y="182"/>
      <point x="178" y="226" type="curve" smooth="yes"/>
      <point x="183" y="352"/>
      <point x="282" y="542"/>
      <point x="282" y="582" type="curve" smooth="yes"/>
      <point x="282" y="610"/>
      <point x="256" y="621"/>
      <point x="233" y="621" type="curve" smooth="yes"/>
      <point x="195" y="621"/>
      <point x="171" y="601"/>
      <point x="166" y="573" type="curve"/>
      <point x="178" y="567"/>
      <point x="184" y="560"/>
      <point x="184" y="544" type="curve" smooth="yes"/>
      <point x="184" y="462"/>
      <point x="99" y="223"/>
      <point x="65" y="181" type="curve"/>
      <point x="69" y="171"/>
      <point x="89" y="164"/>
    </contour>
    <contour>
      <point x="530" y="52" type="line"/>
      <point x="545" y="220"/>
      <point x="596" y="391"/>
      <point x="663" y="536" type="curve"/>
      <point x="683" y="547"/>
      <point x="695" y="553"/>
      <point x="695" y="569" type="curve" smooth="yes"/>
      <point x="695" y="596"/>
      <point x="629" y="627"/>
      <point x="580" y="627" type="curve" smooth="yes"/>
      <point x="552" y="627"/>
      <point x="540" y="603"/>
      <point x="546" y="585" type="curve"/>
      <point x="570" y="577"/>
      <point x="582" y="568"/>
      <point x="582" y="549" type="curve" smooth="yes"/>
      <point x="582" y="497"/>
      <point x="434" y="124"/>
      <point x="434" y="39" type="curve"/>
    </contour>
  </outline>
</glyph>
<glyph name="uni12DD" format="2">
  <advance width="934"/>
  <unicode hex="12DD"/>
  <outline>
    <contour>
      <point x="575" y="12" type="curve"/>
      <point x="630" y="15"/>
      <point x="681" y="15"/>
      <point x="710" y="8" type="curve"/>
      <point x="725" y="35"/>
      <point x="724" y="68"/>
      <point x="662" y="68" type="curve" smooth="yes"/>
      <point x="640" y="68"/>
      <point x="603" y="65"/>
      <point x="586" y="60" type="curve" smooth="yes"/>
      <point x="567" y="55"/>
      <point x="558" y="32"/>
    </contour>
    <contour>
      <point x="707" y="52" type="line"/>
      <point x="722" y="220"/>
      <point x="773" y="391"/>
      <point x="840" y="536" type="curve"/>
      <point x="860" y="547"/>
      <point x="872" y="553"/>
      <point x="872" y="569" type="curve" smooth="yes"/>
      <point x="872" y="596"/>
      <point x="807" y="627"/>
      <point x="757" y="627" type="curve" smooth="yes"/>
      <point x="729" y="627"/>
      <point x="717" y="603"/>
      <point x="723" y="585" type="curve"/>
      <point x="747" y="577"/>
      <point x="759" y="568"/>
      <point x="759" y="549" type="curve" smooth="yes"/>
      <point x="759" y="497"/>
      <point x="611" y="124"/>
      <point x="611" y="39" type="curve"/>
    </contour>
    <contour>
      <point x="469" y="513" type="curve" smooth="yes"/>
      <point x="469" y="570"/>
      <point x="435" y="597"/>
      <point x="375" y="597" type="curve" smooth="yes"/>
      <point x="303" y="597"/>
      <point x="228" y="570"/>
      <point x="155" y="511" type="curve"/>
      <point x="87" y="525"/>
      <point x="60" y="478"/>
      <point x="60" y="428" type="curve" smooth="yes"/>
      <point x="60" y="383"/>
      <point x="95" y="366"/>
      <point x="162" y="376" type="curve"/>
      <point x="163" y="408"/>
      <point x="174" y="452"/>
      <point x="187" y="472" type="curve"/>
      <point x="236" y="517"/>
      <point x="282" y="541"/>
      <point x="332" y="541" type="curve" smooth="yes"/>
      <point x="366" y="541"/>
      <point x="388" y="527"/>
      <point x="388" y="484" type="curve" smooth="yes"/>
      <point x="388" y="396"/>
      <point x="283" y="82"/>
      <point x="208" y="31" type="curve"/>
      <point x="212" y="14"/>
      <point x="234" y="-2"/>
      <point x="262" y="-2" type="curve" smooth="yes"/>
      <point x="291" y="-2"/>
      <point x="310" y="16"/>
      <point x="331" y="60" type="curve" smooth="yes"/>
      <point x="411" y="228"/>
      <point x="469" y="414"/>
    </contour>
    <contour>
      <point x="740" y="373" type="line"/>
      <point x="731" y="374"/>
      <point x="722" y="376"/>
      <point x="686" y="370" type="curve" smooth="yes"/>
      <point x="595" y="357"/>
      <point x="524" y="342"/>
      <point x="395" y="329" type="curve"/>
      <point x="374" y="272" type="line"/>
      <point x="491" y="289"/>
      <point x="623" y="315"/>
      <point x="738" y="321" type="curve"/>
    </contour>
  </outline>
</glyph>
<glyph name="uni12DE" format="2">
  <advance width="793"/>
  <unicode hex="12DE"/>
  <outline>
    <contour>
      <point x="594" y="376" type="line"/>
      <point x="585" y="377"/>
      <point x="578" y="376"/>
      <point x="542" y="370" type="curve" smooth="yes"/>
      <point x="432" y="354"/>
      <point x="371" y="341"/>
      <point x="195" y="323" type="curve"/>
      <point x="189" y="265" type="line"/>
      <point x="322" y="290"/>
      <point x="457" y="314"/>
      <point x="594" y="321" type="curve"/>
    </contour>
    <contour>
      <point x="71" y="-8" type="curve"/>
      <point x="126" y="-5"/>
      <point x="177" y="-5"/>
      <point x="206" y="-12" type="curve"/>
      <point x="221" y="15"/>
      <point x="220" y="48"/>
      <point x="158" y="48" type="curve" smooth="yes"/>
      <point x="136" y="48"/>
      <point x="99" y="45"/>
      <point x="82" y="40" type="curve" smooth="yes"/>
      <point x="63" y="35"/>
      <point x="54" y="12"/>
    </contour>
    <contour>
      <point x="126" y="-2" type="curve" smooth="yes"/>
      <point x="165" y="-2"/>
      <point x="185" y="16"/>
      <point x="186" y="38" type="curve" smooth="yes"/>
      <point x="194" y="245"/>
      <point x="335" y="524"/>
      <point x="335" y="582" type="curve" smooth="yes"/>
      <point x="335" y="610"/>
      <point x="309" y="621"/>
      <point x="286" y="621" type="curve" smooth="yes"/>
      <point x="248" y="621"/>
      <point x="224" y="601"/>
      <point x="219" y="573" type="curve"/>
      <point x="231" y="567"/>
      <point x="237" y="560"/>
      <point x="237" y="544" type="curve" smooth="yes"/>
      <point x="237" y="474"/>
      <point x="97" y="49"/>
      <point x="74" y="15" type="curve"/>
      <point x="78" y="5"/>
      <point x="98" y="-2"/>
    </contour>
    <contour>
      <point x="620" y="199" type="curve"/>
      <point x="611" y="244"/>
      <point x="639" y="444"/>
      <point x="696" y="536" type="curve"/>
      <point x="716" y="547"/>
      <point x="728" y="553"/>
      <point x="728" y="569" type="curve" smooth="yes"/>
      <point x="728" y="596"/>
      <point x="662" y="627"/>
      <point x="613" y="627" type="curve" smooth="yes"/>
      <point x="585" y="627"/>
      <point x="573" y="603"/>
      <point x="579" y="585" type="curve"/>
      <point x="603" y="577"/>
      <point x="615" y="568"/>
      <point x="615" y="549" type="curve" smooth="yes"/>
      <point x="615" y="497"/>
      <point x="522" y="241"/>
      <point x="522" y="189" type="curve" smooth="yes"/>
      <point x="522" y="171"/>
      <point x="538" y="164"/>
      <point x="556" y="166" type="curve" smooth="yes"/>
      <point x="582" y="168"/>
      <point x="607" y="181"/>
    </contour>
  </outline>
</glyph>
<glyph name="uni12DF" format="2">
  <advance width="766"/>
  <unicode hex="12DF"/>
  <outline>
    <contour>
      <point x="568" y="399" type="line"/>
      <point x="559" y="400"/>
      <point x="550" y="402"/>
      <point x="514" y="396" type="curve" smooth="yes"/>
      <point x="406" y="380"/>
      <point x="328" y="369"/>
      <point x="170" y="360" type="curve"/>
      <point x="164" y="302" type="line"/>
      <point x="289" y="321"/>
      <point x="441" y="340"/>
      <point x="566" y="347" type="curve"/>
    </contour>
    <contour>
      <point x="117" y="164" type="curve" smooth="yes"/>
      <point x="156" y="164"/>
      <point x="176" y="182"/>
      <point x="178" y="226" type="curve" smooth="yes"/>
      <point x="183" y="352"/>
      <point x="282" y="542"/>
      <point x="282" y="582" type="curve" smooth="yes"/>
      <point x="282" y="610"/>
      <point x="256" y="621"/>
      <point x="233" y="621" type="curve" smooth="yes"/>
      <point x="195" y="621"/>
      <point x="171" y="601"/>
      <point x="166" y="573" type="curve"/>
      <point x="178" y="567"/>
      <point x="184" y="560"/>
      <point x="184" y="544" type="curve" smooth="yes"/>
      <point x="184" y="462"/>
      <point x="99" y="223"/>
      <point x="65" y="181" type="curve"/>
      <point x="69" y="171"/>
      <point x="89" y="164"/>
    </contour>
    <contour>
      <point x="502" y="32" type="line"/>
      <point x="517" y="200"/>
      <point x="596" y="391"/>
      <point x="663" y="536" type="curve"/>
      <point x="683" y="547"/>
      <point x="695" y="553"/>
      <point x="695" y="569" type="curve" smooth="yes"/>
      <point x="695" y="596"/>
      <point x="629" y="627"/>
      <point x="580" y="627" type="curve" smooth="yes"/>
      <point x="552" y="627"/>
      <point x="540" y="603"/>
      <point x="546" y="585" type="curve"/>
      <point x="570" y="577"/>
      <point x="582" y="568"/>
      <point x="582" y="549" type="curve" smooth="yes"/>
      <point x="582" y="497"/>
      <point x="406" y="104"/>
      <point x="406" y="19" type="curve"/>
    </contour>
    <contour>
      <point x="411" y="-4"/>
      <point x="529" y="5"/>
      <point x="629" y="9" type="curve"/>
      <point x="573" y="26" type="line"/>
      <point x="572" y="-44"/>
      <point x="596" y="-71"/>
      <point x="695" y="-54" type="curve"/>
      <point x="690" y="-29"/>
      <point x="687" y="5"/>
      <point x="684" y="23" type="curve" smooth="yes"/>
      <point x="682" y="37"/>
      <point x="677" y="41"/>
      <point x="665" y="44" type="curve" smooth="yes"/>
      <point x="645" y="49"/>
      <point x="625" y="53"/>
      <point x="608" y="56" type="curve" smooth="yes"/>
      <point x="589" y="60"/>
      <point x="580" y="57"/>
      <point x="559" y="54" type="curve" smooth="yes"/>
      <point x="502" y="45"/>
      <point x="357" y="39"/>
      <point x="249" y="33" type="curve" smooth="yes"/>
      <point x="220" y="31"/>
      <point x="191" y="-21"/>
      <point x="191" y="-63" type="curve" smooth="yes"/>
      <point x="191" y="-87"/>
      <point x="225" y="-103"/>
      <point x="289" y="-93" type="curve"/>
      <point x="290" y="-61"/>
      <point x="301" y="-27"/>
      <point x="314" y="-7" type="curve"/>
    </contour>
  </outline>
</glyph>
<glyph name="uni12EA" format="2">
  <advance width="735"/>
  <unicode hex="12EA"/>
  <outline>
    <contour>
      <point x="337" y="-5" type="curve" smooth="yes"/>
      <point x="370" y="-5"/>
      <point x="389" y="11"/>
      <point x="406" y="42" type="curve"/>
      <point x="340" y="79"/>
      <point x="303" y="388"/>
      <point x="194" y="532" type="curve" smooth="yes"/>
      <point x="148" y="593"/>
      <point x="141" y="614"/>
      <point x="115" y="614" type="curve" smooth="yes"/>
      <point x="82" y="614"/>
      <point x="56" y="593"/>
      <point x="56" y="565" type="curve"/>
      <point x="67" y="562"/>
      <point x="75" y="554"/>
      <point x="120" y="495" type="curve" smooth="yes"/>
      <point x="222" y="361"/>
      <point x="260" y="163"/>
      <point x="289" y="43" type="curve" smooth="yes"/>
      <point x="296" y="14"/>
      <point x="312" y="-5"/>
    </contour>
    <contour>
      <point x="287" y="209" type="line"/>
      <point x="404" y="327"/>
      <point x="513" y="479"/>
      <point x="513" y="575" type="curve" smooth="yes"/>
      <point x="513" y="621"/>
      <point x="480" y="651"/>
      <point x="413" y="651" type="curve" smooth="yes"/>
      <point x="353" y="651"/>
      <point x="161" y="618"/>
      <point x="115" y="614" type="curve"/>
      <point x="117" y="558" type="line"/>
      <point x="194" y="572"/>
      <point x="340" y="597"/>
      <point x="394" y="597" type="curve" smooth="yes"/>
      <point x="417" y="597"/>
      <point x="430" y="582"/>
      <point x="430" y="563" type="curve" smooth="yes"/>
      <point x="430" y="517"/>
      <point x="352" y="368"/>
      <point x="262" y="278" type="curve"/>
    </contour>
    <contour>
      <point x="544" y="115" type="line"/>
      <point x="533" y="131"/>
      <point x="530" y="145"/>
      <point x="530" y="171" type="curve" smooth="yes"/>
      <point x="530" y="229"/>
      <point x="556" y="287"/>
      <point x="569" y="316" type="curve"/>
      <point x="548" y="325"/>
      <point x="520" y="329"/>
      <point x="499" y="329" type="curve" smooth="yes"/>
      <point x="474" y="329"/>
      <point x="456" y="306"/>
      <point x="444" y="230" type="curve"/>
      <point x="406" y="219"/>
      <point x="371" y="210"/>
      <point x="310" y="197" type="curve"/>
      <point x="304" y="139" type="line"/>
      <point x="365" y="154"/>
      <point x="425" y="173"/>
      <point x="499" y="179" type="curve"/>
      <point x="440" y="194" type="line"/>
      <point x="438" y="180"/>
      <point x="436" y="160"/>
      <point x="436" y="142" type="curve" smooth="yes"/>
      <point x="436" y="105"/>
      <point x="450" y="89"/>
      <point x="487" y="89" type="curve" smooth="yes"/>
      <point x="533" y="89"/>
      <point x="566" y="117"/>
      <point x="620" y="121" type="curve"/>
      <point x="549" y="141" type="line"/>
      <point x="548" y="71"/>
      <point x="574" y="43"/>
      <point x="681" y="61" type="curve"/>
      <point x="676" y="85"/>
      <point x="674" y="108"/>
      <point x="671" y="126" type="curve" smooth="yes"/>
      <point x="669" y="140"/>
      <point x="664" y="144"/>
      <point x="652" y="147" type="curve" smooth="yes"/>
      <point x="632" y="152"/>
      <point x="612" y="156"/>
      <point x="595" y="159" type="curve" smooth="yes"/>
      <point x="576" y="163"/>
      <point x="567" y="163"/>
      <point x="546" y="157" type="curve" smooth="yes"/>
      <point x="521" y="150"/>
      <point x="500" y="145"/>
      <point x="460" y="137" type="curve"/>
    </contour>
  </outline>
</glyph>
<glyph name="uni12EE" format="2">
  <advance width="787"/>
  <unicode hex="12EE"/>
  <outline>
    <contour>
      <point x="337" y="-5" type="curve" smooth="yes"/>
      <point x="370" y="-5"/>
      <point x="389" y="11"/>
      <point x="406" y="42" type="curve"/>
      <point x="340" y="79"/>
      <point x="303" y="388"/>
      <point x="194" y="532" type="curve" smooth="yes"/>
      <point x="148" y="593"/>
      <point x="141" y="614"/>
      <point x="115" y="614" type="curve" smooth="yes"/>
      <point x="82" y="614"/>
      <point x="56" y="593"/>
      <point x="56" y="565" type="curve"/>
      <point x="67" y="562"/>
      <point x="75" y="554"/>
      <point x="120" y="495" type="curve" smooth="yes"/>
      <point x="222" y="361"/>
      <point x="260" y="163"/>
      <point x="289" y="43" type="curve" smooth="yes"/>
      <point x="296" y="14"/>
      <point x="312" y="-5"/>
    </contour>
    <contour>
      <point x="287" y="209" type="line"/>
      <point x="404" y="327"/>
      <point x="513" y="479"/>
      <point x="513" y="575" type="curve" smooth="yes"/>
      <point x="513" y="621"/>
      <point x="480" y="651"/>
      <point x="413" y="651" type="curve" smooth="yes"/>
      <point x="353" y="651"/>
      <point x="161" y="618"/>
      <point x="115" y="614" type="curve"/>
      <point x="117" y="558" type="line"/>
      <point x="194" y="572"/>
      <point x="340" y="597"/>
      <point x="394" y="597" type="curve" smooth="yes"/>
      <point x="417" y="597"/>
      <point x="430" y="582"/>
      <point x="430" y="563" type="curve" smooth="yes"/>
      <point x="430" y="517"/>
      <point x="352" y="368"/>
      <point x="262" y="278" type="curve"/>
    </contour>
    <contour>
      <point x="462" y="519" type="curve"/>
      <point x="456" y="463" type="line"/>
      <point x="517" y="480"/>
      <point x="597" y="501"/>
      <point x="671" y="507" type="curve"/>
      <point x="600" y="525" type="line"/>
      <point x="599" y="455"/>
      <point x="625" y="427"/>
      <point x="732" y="445" type="curve"/>
      <point x="726" y="473"/>
      <point x="724" y="501"/>
      <point x="721" y="521" type="curve" smooth="yes"/>
      <point x="719" y="535"/>
      <point x="714" y="539"/>
      <point x="702" y="542" type="curve" smooth="yes"/>
      <point x="682" y="547"/>
      <point x="662" y="551"/>
      <point x="645" y="554" type="curve" smooth="yes"/>
      <point x="626" y="558"/>
      <point x="617" y="558"/>
      <point x="596" y="552" type="curve" smooth="yes"/>
      <point x="558" y="541"/>
      <point x="523" y="532"/>
    </contour>
  </outline>
</glyph>
<glyph name="uni12F1" format="2">
  <advance width="669"/>
  <unicode hex="12F1"/>
  <outline>
    <contour>
      <point x="340" y="-19" type="curve" smooth="yes"/>
      <point x="367" y="-19"/>
      <point x="382" y="-9"/>
      <point x="389" y="18" type="curve"/>
      <point x="363" y="47"/>
      <point x="352" y="167"/>
      <point x="351" y="291" type="curve"/>
      <point x="331" y="380"/>
      <point x="291" y="464"/>
      <point x="255" y="529" type="curve" smooth="yes"/>
      <point x="219" y="594"/>
      <point x="204" y="614"/>
      <point x="179" y="614" type="curve" smooth="yes"/>
      <point x="146" y="614"/>
      <point x="120" y="593"/>
      <point x="120" y="565" type="curve"/>
      <point x="131" y="562"/>
      <point x="150" y="549"/>
      <point x="184" y="495" type="curve" smooth="yes"/>
      <point x="230" y="422"/>
      <point x="276" y="309"/>
      <point x="276" y="266" type="curve" smooth="yes"/>
      <point x="276" y="179"/>
      <point x="280" y="93"/>
      <point x="292" y="29" type="curve" smooth="yes"/>
      <point x="297" y="0"/>
      <point x="315" y="-19"/>
    </contour>
    <contour>
      <point x="336" y="248" type="line"/>
      <point x="447" y="360"/>
      <point x="562" y="489"/>
      <point x="562" y="575" type="curve" smooth="yes"/>
      <point x="562" y="621"/>
      <point x="529" y="651"/>
      <point x="462" y="651" type="curve" smooth="yes"/>
      <point x="405" y="651"/>
      <point x="223" y="618"/>
      <point x="179" y="614" type="curve"/>
      <point x="181" y="558" type="line"/>
      <point x="254" y="571"/>
      <point x="392" y="597"/>
      <point x="443" y="597" type="curve" smooth="yes"/>
      <point x="466" y="597"/>
      <point x="479" y="582"/>
      <point x="479" y="563" type="curve" smooth="yes"/>
      <point x="479" y="523"/>
      <point x="395" y="401"/>
      <point x="311" y="317" type="curve"/>
    </contour>
    <contour>
      <point x="179" y="144" type="curve"/>
      <point x="224" y="148"/>
      <point x="404" y="164"/>
      <point x="478" y="169" type="curve"/>
      <point x="472" y="192" type="line"/>
      <point x="471" y="116"/>
      <point x="491" y="92"/>
      <point x="546" y="92" type="curve" smooth="yes"/>
      <point x="559" y="92"/>
      <point x="577" y="94"/>
      <point x="589" y="98" type="curve"/>
      <point x="580" y="122"/>
      <point x="576" y="165"/>
      <point x="579" y="192" type="curve"/>
      <point x="546" y="204"/>
      <point x="501" y="215"/>
      <point x="491" y="215" type="curve" smooth="yes"/>
      <point x="463" y="215"/>
      <point x="236" y="196"/>
      <point x="166" y="190" type="curve"/>
      <point x="101" y="198"/>
      <point x="65" y="161"/>
      <point x="65" y="112" type="curve" smooth="yes"/>
      <point x="65" y="82"/>
      <point x="86" y="61"/>
      <point x="124" y="61" type="curve" smooth="yes"/>
      <point x="135" y="61"/>
      <point x="148" y="63"/>
      <point x="162" y="67" type="curve"/>
      <point x="158" y="95"/>
      <point x="165" y="130"/>
    </contour>
  </outline>
</glyph>
<glyph name="uni12F2" format="2">
  <advance width="697"/>
  <unicode hex="12F2"/>
  <outline>
    <contour>
      <point x="336" y="249" type="line"/>
      <point x="447" y="361"/>
      <point x="562" y="489"/>
      <point x="562" y="575" type="curve" smooth="yes"/>
      <point x="562" y="621"/>
      <point x="529" y="651"/>
      <point x="462" y="651" type="curve" smooth="yes"/>
      <point x="405" y="651"/>
      <point x="223" y="618"/>
      <point x="179" y="614" type="curve"/>
      <point x="181" y="558" type="line"/>
      <point x="254" y="571"/>
      <point x="392" y="597"/>
      <point x="443" y="597" type="curve" smooth="yes"/>
      <point x="466" y="597"/>
      <point x="479" y="582"/>
      <point x="479" y="563" type="curve" smooth="yes"/>
      <point x="479" y="523"/>
      <point x="395" y="402"/>
      <point x="311" y="318" type="curve"/>
    </contour>
    <contour>
      <point x="179" y="166" type="curve"/>
      <point x="230" y="171"/>
      <point x="436" y="186"/>
      <point x="520" y="192" type="curve"/>
      <point x="514" y="215" type="line"/>
      <point x="513" y="151"/>
      <point x="533" y="130"/>
      <point x="588" y="130" type="curve" smooth="yes"/>
      <point x="601" y="130"/>
      <point x="619" y="132"/>
      <point x="631" y="136" type="curve"/>
      <point x="622" y="159"/>
      <point x="619" y="198"/>
      <point x="621" y="223" type="curve"/>
      <point x="589" y="231"/>
      <point x="552" y="238"/>
      <point x="533" y="238" type="curve" smooth="yes"/>
      <point x="501" y="238"/>
      <point x="245" y="219"/>
      <point x="166" y="212" type="curve"/>
      <point x="101" y="220"/>
      <point x="65" y="183"/>
      <point x="65" y="134" type="curve" smooth="yes"/>
      <point x="65" y="104"/>
      <point x="86" y="83"/>
      <point x="124" y="83" type="curve" smooth="yes"/>
      <point x="135" y="83"/>
      <point x="148" y="85"/>
      <point x="162" y="89" type="curve"/>
      <point x="158" y="117"/>
      <point x="165" y="152"/>
    </contour>
    <contour>
      <point x="488" y="50" type="line"/>
      <point x="472" y="50"/>
      <point x="422" y="40"/>
      <point x="404" y="40" type="curve" smooth="yes"/>
      <point x="376" y="40"/>
      <point x="367" y="49"/>
      <point x="362" y="78" type="curve" smooth="yes"/>
      <point x="358" y="101"/>
      <point x="352" y="195"/>
      <point x="351" y="291" type="curve"/>
      <point x="331" y="380"/>
      <point x="291" y="464"/>
      <point x="255" y="529" type="curve" smooth="yes"/>
      <point x="219" y="594"/>
      <point x="204" y="614"/>
      <point x="179" y="614" type="curve" smooth="yes"/>
      <point x="146" y="614"/>
      <point x="120" y="593"/>
      <point x="120" y="565" type="curve"/>
      <point x="131" y="562"/>
      <point x="150" y="549"/>
      <point x="184" y="495" type="curve" smooth="yes"/>
      <point x="230" y="422"/>
      <point x="276" y="309"/>
      <point x="276" y="266" type="curve" smooth="yes"/>
      <point x="276" y="188"/>
      <point x="276" y="77"/>
      <point x="280" y="51" type="curve" smooth="yes"/>
      <point x="286" y="14"/>
      <point x="305" y="-8"/>
      <point x="347" y="-8" type="curve" smooth="yes"/>
      <point x="366" y="-8"/>
      <point x="417" y="-5"/>
      <point x="475" y="8" type="curve"/>
      <point x="435" y="27" type="line"/>
      <point x="433" y="13"/>
      <point x="431" y="-1"/>
      <point x="431" y="-18" type="curve" smooth="yes"/>
      <point x="431" y="-45"/>
      <point x="446" y="-61"/>
      <point x="482" y="-61" type="curve" smooth="yes"/>
      <point x="500" y="-61"/>
      <point x="521" y="-55"/>
      <point x="532" y="-44" type="curve"/>
      <point x="523" y="-30"/>
      <point x="516" y="-13"/>
      <point x="515" y="5" type="curve" smooth="yes"/>
      <point x="514" y="26"/>
      <point x="518" y="46"/>
      <point x="525" y="63" type="curve"/>
      <point x="512" y="70"/>
      <point x="497" y="77"/>
      <point x="481" y="77" type="curve" smooth="yes"/>
      <point x="459" y="77"/>
      <point x="441" y="66"/>
      <point x="436" y="34" type="curve"/>
    </contour>
  </outline>
</glyph>
<glyph name="uni130B" format="2">
  <advance width="601"/>
  <unicode hex="130B"/>
  <outline>
    <contour>
      <point x="524" y="549" type="curve" smooth="yes"/>
      <point x="524" y="581"/>
      <point x="502" y="597"/>
      <point x="463" y="597" type="curve" smooth="yes"/>
      <point x="396" y="597"/>
      <point x="248" y="557"/>
      <point x="212" y="557" type="curve" smooth="yes"/>
      <point x="148" y="557"/>
      <point x="126" y="522"/>
      <point x="126" y="474" type="curve" smooth="yes"/>
      <point x="126" y="426"/>
      <point x="161" y="409"/>
      <point x="228" y="419" type="curve"/>
      <point x="229" y="451"/>
      <point x="240" y="495"/>
      <point x="253" y="515" type="curve"/>
      <point x="313" y="533"/>
      <point x="362" y="543"/>
      <point x="419" y="543" type="curve" smooth="yes"/>
      <point x="434" y="543"/>
      <point x="443" y="537"/>
      <point x="443" y="521" type="curve" smooth="yes"/>
      <point x="443" y="425"/>
      <point x="263" y="140"/>
      <point x="263" y="23" type="curve" smooth="yes"/>
      <point x="263" y="4"/>
      <point x="268" y="-2"/>
      <point x="284" y="-2" type="curve" smooth="yes"/>
      <point x="320" y="-2"/>
      <point x="339" y="9"/>
      <point x="354" y="23" type="curve"/>
      <point x="354" y="181"/>
      <point x="524" y="441"/>
    </contour>
    <contour>
      <point x="316" y="55" type="line"/>
      <point x="268" y="48"/>
      <point x="192" y="41"/>
      <point x="96" y="41" type="curve" smooth="yes"/>
      <point x="67" y="41"/>
      <point x="37" y="-12"/>
      <point x="37" y="-53" type="curve" smooth="yes"/>
      <point x="37" y="-85"/>
      <point x="74" y="-104"/>
      <point x="146" y="-93" type="curve"/>
      <point x="147" y="-61"/>
      <point x="158" y="-27"/>
      <point x="171" y="-7" type="curve"/>
      <point x="200" y="-4"/>
      <point x="241" y="-2"/>
      <point x="284" y="-2" type="curve"/>
    </contour>
  </outline>
</glyph>
<glyph name="uni130D" format="2">
  <advance width="674"/>
  <unicode hex="130D"/>
  <outline>
    <contour>
      <point x="446" y="547" type="curve" smooth="yes"/>
      <point x="498" y="547"/>
      <point x="514" y="530"/>
      <point x="514" y="496" type="curve" smooth="yes"/>
      <point x="514" y="406"/>
      <point x="334" y="140"/>
      <point x="334" y="27" type="curve" smooth="yes"/>
      <point x="334" y="7"/>
      <point x="345" y="-2"/>
      <point x="365" y="-2" type="curve" smooth="yes"/>
      <point x="391" y="-2"/>
      <point x="410" y="9"/>
      <point x="425" y="23" type="curve"/>
      <point x="425" y="181"/>
      <point x="599" y="440"/>
      <point x="599" y="525" type="curve" smooth="yes"/>
      <point x="599" y="572"/>
      <point x="563" y="597"/>
      <point x="474" y="597" type="curve" smooth="yes"/>
      <point x="258" y="597"/>
      <point x="62" y="529"/>
      <point x="62" y="412" type="curve" smooth="yes"/>
      <point x="62" y="373"/>
      <point x="150" y="332"/>
      <point x="221" y="332" type="curve" smooth="yes"/>
      <point x="305" y="332"/>
      <point x="406" y="381"/>
      <point x="406" y="478" type="curve" smooth="yes"/>
      <point x="406" y="503"/>
      <point x="399" y="532"/>
      <point x="383" y="564" type="curve"/>
      <point x="289" y="555" type="line"/>
      <point x="316" y="519"/>
      <point x="326" y="489"/>
      <point x="326" y="464" type="curve" smooth="yes"/>
      <point x="326" y="404"/>
      <point x="262" y="379"/>
      <point x="212" y="379" type="curve" smooth="yes"/>
      <point x="172" y="379"/>
      <point x="151" y="400"/>
      <point x="151" y="428" type="curve" smooth="yes"/>
      <point x="151" y="494"/>
      <point x="239" y="547"/>
    </contour>
  </outline>
</glyph>
<glyph name="uni133C" format="2">
  <advance width="786"/>
  <unicode hex="133C"/>
  <outline>
    <contour>
      <point x="184" y="522" type="line"/>
      <point x="226" y="542"/>
      <point x="263" y="554"/>
      <point x="299" y="554" type="curve" smooth="yes"/>
      <point x="344" y="554"/>
      <point x="369" y="527"/>
      <point x="369" y="472" type="curve" smooth="yes"/>
      <point x="369" y="292"/>
      <point x="109" y="283"/>
      <point x="109" y="27" type="curve" smooth="yes"/>
      <point x="109" y="7"/>
      <point x="120" y="-2"/>
      <point x="146" y="-2" type="curve" smooth="yes"/>
      <point x="171" y="-2"/>
      <point x="187" y="4"/>
      <point x="200" y="16" type="curve"/>
      <point x="185" y="296"/>
      <point x="454" y="256"/>
      <point x="454" y="494" type="curve" smooth="yes"/>
      <point x="454" y="571"/>
      <point x="397" y="604"/>
      <point x="338" y="604" type="curve" smooth="yes"/>
      <point x="280" y="604"/>
      <point x="206" y="588"/>
      <point x="158" y="559" type="curve"/>
    </contour>
    <contour>
      <point x="344" y="312" type="line"/>
      <point x="232" y="336"/>
      <point x="204" y="365"/>
      <point x="204" y="409" type="curve" smooth="yes"/>
      <point x="204" y="466"/>
      <point x="223" y="529"/>
      <point x="223" y="553" type="curve" smooth="yes"/>
      <point x="223" y="571"/>
      <point x="216" y="579"/>
      <point x="199" y="579" type="curve" smooth="yes"/>
      <point x="178" y="579"/>
      <point x="163" y="573"/>
      <point x="148" y="566" type="curve"/>
      <point x="138" y="518"/>
      <point x="123" y="456"/>
      <point x="123" y="381" type="curve" smooth="yes"/>
      <point x="123" y="333"/>
      <point x="175" y="302"/>
      <point x="295" y="266" type="curve"/>
    </contour>
    <contour>
      <point x="426" y="105" type="curve" smooth="yes"/>
      <point x="436" y="14"/>
      <point x="504" y="-11"/>
      <point x="569" y="-11" type="curve" smooth="yes"/>
      <point x="663" y="-11"/>
      <point x="723" y="42"/>
      <point x="723" y="103" type="curve" smooth="yes"/>
      <point x="723" y="171"/>
      <point x="618" y="213"/>
      <point x="474" y="214" type="curve"/>
      <point x="479" y="165" type="line"/>
      <point x="589" y="170"/>
      <point x="637" y="141"/>
      <point x="637" y="94" type="curve" smooth="yes"/>
      <point x="637" y="71"/>
      <point x="616" y="43"/>
      <point x="578" y="43" type="curve" smooth="yes"/>
      <point x="534" y="43"/>
      <point x="515" y="62"/>
      <point x="505" y="111" type="curve" smooth="yes"/>
      <point x="477" y="245"/>
      <point x="459" y="287"/>
      <point x="321" y="317" type="curve"/>
      <point x="277" y="264" type="line"/>
      <point x="383" y="264"/>
      <point x="415" y="208"/>
    </contour>
  </outline>
</glyph>
